<svg width="205" height="142" viewBox="0 0 205 142" fill="none" xmlns="http://www.w3.org/2000/svg">
<g clip-path="url(#clip0_3_51)">
<g filter="url(#filter0_d_3_51)">
<path d="M5 132.5C6 134 10.1616 134.819 11.8168 134.821L197.138 135.079C198.798 135.081 200.145 133.734 200.148 132.078L200.322 6.08827C200.325 4.42865 198.987 3.0814 197.323 3.07909L9.66374 2.81815C8.00514 2.81584 5.57674 3.61074 4.24211 4.59187L5 132.5Z" fill="#F4F4F4"/>
</g>
<path d="M53 39.668C53 39.4102 53.0352 39.1758 53.1055 38.9648C53.1758 38.7539 53.1875 38.4844 53.1406 38.1562C53.8672 36.6094 54.6875 35.1797 55.6016 33.8672C56.5391 32.5312 57.6523 31.3594 58.9414 30.3516C59.1523 30.1875 59.3164 30.0234 59.4336 29.8594C59.5742 29.6719 59.7031 29.4961 59.8203 29.332C59.9609 29.168 60.1133 29.0273 60.2773 28.9102C60.4414 28.7695 60.6523 28.6758 60.9102 28.6289C61.4961 27.9492 62.1992 27.3281 63.0195 26.7656C63.8398 26.2031 64.6953 25.6641 65.5859 25.1484C66.4766 24.6328 67.3672 24.1055 68.2578 23.5664C69.1719 23.0273 69.9922 22.4414 70.7188 21.8086C70.9766 21.9727 71.1758 22.0312 71.3164 21.9844C71.4805 21.9141 71.6445 21.9023 71.8086 21.9492C72.0195 22.3945 72.2891 22.7109 72.6172 22.8984C72.9688 23.0625 73.3203 23.2383 73.6719 23.4258C74.0469 23.5898 74.3867 23.8008 74.6914 24.0586C75.0195 24.293 75.2656 24.6211 75.4297 25.043C75.2656 25.043 75.1836 25.1016 75.1836 25.2188C75.207 25.3359 75.2422 25.4648 75.2891 25.6055C75.3359 25.7461 75.3594 25.875 75.3594 25.9922C75.3594 26.1094 75.2539 26.168 75.043 26.168C75.043 26.332 75.125 26.4141 75.2891 26.4141C75.4531 26.4141 75.5352 26.4961 75.5352 26.6602C75.5352 26.8008 75.5 26.918 75.4297 27.0117C75.3828 27.082 75.3828 27.2109 75.4297 27.3984C74.8672 27.7734 74.2344 28.1367 73.5312 28.4883C72.8516 28.8164 72.125 29.168 71.3516 29.543C70.6016 29.918 69.8281 30.3281 69.0312 30.7734C68.2578 31.1953 67.4844 31.6875 66.7109 32.25C65.9375 32.8125 65.1523 33.4336 64.3555 34.1133C63.582 34.793 62.832 35.5195 62.1055 36.293C61.3789 37.043 60.6992 37.8281 60.0664 38.6484C59.4336 39.4453 58.8945 40.2305 58.4492 41.0039C58.4961 41.1211 58.5547 41.2266 58.625 41.3203C58.7188 41.4141 58.7891 41.5195 58.8359 41.6367C59.7266 41.6836 60.5586 41.6836 61.332 41.6367C62.1055 41.5664 62.8789 41.6133 63.6523 41.7773C63.7461 41.707 63.8047 41.6133 63.8281 41.4961C63.8516 41.3789 63.9219 41.2969 64.0391 41.25C65.6328 41.0859 67.1211 40.8281 68.5039 40.4766C69.8867 40.1016 71.293 39.7266 72.7227 39.3516C72.3008 39.1875 71.9258 39.0586 71.5977 38.9648C71.457 38.8242 71.457 38.707 71.5977 38.6133C71.7617 38.4961 71.8906 38.3789 71.9844 38.2617C71.6094 38.0508 71.293 37.7695 71.0352 37.418C70.8008 37.0664 70.6602 36.6094 70.6133 36.0469C70.7773 35.9062 70.8594 35.7422 70.8594 35.5547C70.8594 35.3672 70.7773 35.2148 70.6133 35.0977C70.4961 35.0508 70.4258 35.0508 70.4023 35.0977C70.3789 35.1445 70.3555 35.1914 70.332 35.2383C70.332 35.2852 70.3086 35.332 70.2617 35.3789C70.2383 35.4258 70.1797 35.4258 70.0859 35.3789C70.1094 35.1211 70.168 34.9102 70.2617 34.7461C70.3555 34.582 70.4258 34.3828 70.4727 34.1484L73.3906 32.2148C73.6953 32.4492 74.0703 32.6953 74.5156 32.9531C74.9609 33.2109 75.4297 33.4688 75.9219 33.7266C76.4141 33.9844 76.918 34.2539 77.4336 34.5352C77.9492 34.793 78.4297 35.0508 78.875 35.3086C79.2969 35.4961 79.6602 35.7305 79.9648 36.0117C80.2695 36.2695 80.5625 36.5508 80.8438 36.8555C81.125 37.1367 81.4062 37.418 81.6875 37.6992C81.9688 37.9805 82.3086 38.2148 82.707 38.4023C82.6602 38.7773 82.6836 39.082 82.7773 39.3164C82.8711 39.5508 82.8945 39.832 82.8477 40.1602C82.4023 40.957 81.8633 41.6367 81.2305 42.1992C80.5977 42.7383 79.8828 43.207 79.0859 43.6055C78.3125 44.0039 77.4805 44.3438 76.5898 44.625C75.6992 44.8828 74.7852 45.1406 73.8477 45.3984C72.9102 45.6328 71.9609 45.8906 71 46.1719C70.0625 46.4297 69.1367 46.7344 68.2227 47.0859C67.8242 47.0859 67.4844 47.0977 67.2031 47.1211C66.9219 47.1445 66.6523 47.1797 66.3945 47.2266C66.1367 47.2734 65.8789 47.3203 65.6211 47.3672C65.3633 47.4141 65.082 47.4492 64.7773 47.4727C64.6602 47.4492 64.5781 47.4727 64.5312 47.543C64.5078 47.6133 64.4609 47.6719 64.3906 47.7188C63.9219 47.7891 63.5 47.8242 63.125 47.8242C62.75 47.8242 62.4336 47.8242 62.1758 47.8242C61.8477 47.8242 61.5078 47.8711 61.1562 47.9648C60.8047 48.0586 60.4766 48.0938 60.1719 48.0703C58.0625 47.9766 56.4102 47.2266 55.2148 45.8203C54.0195 44.4141 53.3633 42.4805 53.2461 40.0195C53.2695 39.9023 53.2461 39.832 53.1758 39.8086C53.1055 39.7617 53.0469 39.7148 53 39.668ZM100.004 45.0469C99.8633 45.4453 99.6523 45.8555 99.3711 46.2773C99.1133 46.6758 98.7969 47.0391 98.4219 47.3672C98.0703 47.6719 97.6719 47.9297 97.2266 48.1406C96.7812 48.3516 96.3125 48.4688 95.8203 48.4922C95.5156 48.4219 95.3047 48.3398 95.1875 48.2461C95.0938 48.1758 94.9883 48.1055 94.8711 48.0352C94.8008 47.9883 94.7305 47.9531 94.6602 47.9297C94.6133 47.8828 94.5664 47.8477 94.5195 47.8242L94.0977 47.6484L94.2383 47.1914C94.2852 47.0039 94.2734 46.8633 94.2031 46.7695C94.1328 46.6523 93.9922 46.5 93.7812 46.3125C93.7109 46.2422 93.6406 46.1719 93.5703 46.1016C93.5 46.0312 93.4414 45.9609 93.3945 45.8906L92.7969 45.2227L93.7461 44.9766C94.332 44.8125 94.7188 44.6016 94.9062 44.3438C95.1172 44.0859 95.1992 43.6523 95.1523 43.043C94.6836 42.9492 94.2852 42.9375 93.957 43.0078C93.6523 43.0781 93.3359 43.1602 93.0078 43.2539C92.5859 43.3711 92.1523 43.4766 91.707 43.5703C91.2852 43.6406 90.8164 43.6758 90.3008 43.6758C90.1133 43.6758 89.9375 43.6758 89.7734 43.6758C89.6094 43.6523 89.4336 43.6289 89.2461 43.6055L88.8945 43.5352C88.8477 43.2773 88.8008 43.1367 88.7539 43.1133C88.707 43.0664 88.6602 43.0195 88.6133 42.9727C88.4961 42.8555 88.3672 42.7031 88.2266 42.5156C88.1094 42.3047 88.0859 42.0469 88.1562 41.7422C88.0391 41.5312 87.9688 41.3203 87.9453 41.1094C87.8047 41.3906 87.6992 41.6836 87.6289 41.9883L87.4883 42.3398L87.1367 42.4102C87.0898 42.4336 87.0547 42.4922 87.0312 42.5859C87.0078 42.6562 86.9961 42.7148 86.9961 42.7617L86.8203 43.3594C86.7734 43.4062 86.7266 43.4531 86.6797 43.5C86.6328 43.5234 86.5859 43.5586 86.5391 43.6055C86.4922 43.8164 86.4336 44.0273 86.3633 44.2383C86.293 44.4492 86.2227 44.6484 86.1523 44.8359C86.0352 45.1406 85.9297 45.4453 85.8359 45.75C85.7656 46.0312 85.7422 46.3125 85.7656 46.5938L85.625 46.9805C85.5078 47.1211 85.3789 47.2383 85.2383 47.332C85.0977 47.4023 84.957 47.4727 84.8164 47.543C84.7695 47.5898 84.6992 47.6367 84.6055 47.6836C84.5352 47.707 84.4766 47.7305 84.4297 47.7539L84.3242 48.1406L83.9023 48.2109C83.6445 48.2578 83.457 48.293 83.3398 48.3164C83.2461 48.3398 83.1289 48.3516 82.9883 48.3516L82.6367 48.3164C82.3789 48.1055 82.1797 47.9414 82.0391 47.8242C81.8984 47.6836 81.7344 47.5547 81.5469 47.4375C81.3359 47.1562 81.2188 46.9453 81.1953 46.8047C81.1719 46.6641 81.1484 46.5352 81.125 46.418C81.0781 46.2773 81.0547 46.1602 81.0547 46.0664C81.0312 45.9727 80.9961 45.9023 80.9492 45.8555L80.4922 45.4336L80.8789 45.1172L80.9141 44.5195C81.3828 43.3242 81.875 42.1758 82.3906 41.0742C82.9297 39.9727 83.4805 38.8477 84.043 37.6992C84.2305 37.3242 84.4062 36.9492 84.5703 36.5742C84.7578 36.1992 84.9453 35.8242 85.1328 35.4492C85.1094 35.3789 85.0977 35.2969 85.0977 35.2031C85.0977 35.1094 85.1211 35.0039 85.168 34.8867C85.4258 34.4883 85.6367 34.1367 85.8008 33.832C85.9648 33.5039 86.1289 33.1758 86.293 32.8477C86.4805 32.4492 86.668 32.0625 86.8555 31.6875C87.0664 31.3125 87.3242 30.9258 87.6289 30.5273L88.1914 30.2812C88.2617 30.2578 88.3438 30.2344 88.4375 30.2109C88.5312 30.1641 88.6367 30.1406 88.7539 30.1406L89.2812 30.2109C89.9375 29.9062 90.5117 29.4844 91.0039 28.9453C91.4961 28.3828 92 27.7148 92.5156 26.9414L92.8672 26.4492L93.3242 26.7305C93.4414 26.8008 93.6055 26.8711 93.8164 26.9414C94.0273 26.9883 94.25 27.0469 94.4844 27.1172C94.9062 27.2109 95.3047 27.3164 95.6797 27.4336C96.0547 27.5508 96.3594 27.7266 96.5938 27.9609C96.7344 28.3359 96.8164 28.6172 96.8398 28.8047C96.8633 28.9922 96.8984 29.1797 96.9453 29.3672C97.0156 29.7656 97.0742 30.1641 97.1211 30.5625C97.1914 30.9609 97.2383 31.4062 97.2617 31.8984C97.3789 32.2969 97.4727 32.6953 97.543 33.0938C97.6367 33.4688 97.7188 33.8555 97.7891 34.2539C97.9062 34.8164 98.0234 35.3672 98.1406 35.9062C98.2578 36.4219 98.4102 36.9141 98.5977 37.3828C98.7852 37.3828 98.9023 37.3945 98.9492 37.418C99.0664 37.3711 99.1836 37.3359 99.3008 37.3125C99.4414 37.2891 99.5938 37.2656 99.7578 37.2422L100.145 37.207L100.285 37.5586C100.309 37.6758 100.426 37.793 100.637 37.9102C100.941 37.9336 101.164 38.0039 101.305 38.1211C101.445 38.2148 101.574 38.3203 101.691 38.4375C101.785 38.5312 101.879 38.6016 101.973 38.6484L102.5 38.8594L102.219 39.3867C101.984 39.8086 101.645 40.2188 101.199 40.6172C100.777 40.9922 100.297 41.3086 99.7578 41.5664C99.7812 41.707 99.793 41.8477 99.793 41.9883C99.8164 42.1055 99.8516 42.2344 99.8984 42.375C99.9688 42.7734 100.027 43.1836 100.074 43.6055C100.121 44.0273 100.121 44.4609 100.074 44.9062L100.004 45.0469ZM89.8438 38.9648C90.5469 38.918 91.1797 38.8711 91.7422 38.8242C92.3281 38.7539 92.9727 38.6484 93.6758 38.5078C93.5117 37.8047 93.3359 37.0781 93.1484 36.3281C92.9609 35.5547 92.7617 34.793 92.5508 34.043L92.3398 34.3945C91.8711 34.8867 91.4141 35.4375 90.9688 36.0469C90.5469 36.6562 90.1836 37.2305 89.8789 37.7695C89.7383 37.9805 89.5977 38.1914 89.457 38.4023C89.3164 38.6133 89.1875 38.8242 89.0703 39.0352C89.2109 39.0117 89.3398 39 89.457 39C89.5977 39 89.7266 38.9883 89.8438 38.9648ZM126.652 47.3672C126.418 47.4844 126.195 47.5898 125.984 47.6836C125.797 47.7773 125.574 47.8242 125.316 47.8242C124.402 47.1445 123.922 45.9609 123.875 44.2734C123.852 42.5859 124.215 40.4414 124.965 37.8398C125.082 37.7695 125.141 37.6289 125.141 37.418L124.824 37.0664C124.73 37.0664 124.637 37.0781 124.543 37.1016C124.473 37.125 124.414 37.207 124.367 37.3477C123.758 37.793 123.09 38.2617 122.363 38.7539C121.637 39.2227 120.875 39.668 120.078 40.0898C119.305 40.4883 118.508 40.8164 117.688 41.0742C116.891 41.332 116.105 41.4609 115.332 41.4609C113.363 41.4609 111.887 40.4648 110.902 38.4727L110.621 37.9453L110.34 38.4023C110.27 38.4961 110.164 38.6953 110.023 39C109.883 39.2812 109.742 39.6094 109.602 39.9844C109.461 40.3594 109.332 40.7461 109.215 41.1445C109.121 41.5195 109.086 41.8477 109.109 42.1289C108.898 42.3398 108.676 42.5859 108.441 42.8672C108.207 43.1484 108.031 43.4648 107.914 43.8164C107.867 44.0039 107.891 44.1797 107.984 44.3438C107.938 44.5547 107.832 44.7188 107.668 44.8359C107.574 44.9531 107.469 45.0703 107.352 45.1875C107.258 45.2812 107.176 45.3867 107.105 45.5039C107.059 45.6211 107.023 45.7383 107 45.8555C107 45.9727 106.988 46.0898 106.965 46.207C106.965 46.3711 106.941 46.5234 106.895 46.6641C106.496 47.4844 106.18 48.0117 105.945 48.2461C105.711 48.5039 105.395 48.6328 104.996 48.6328C104.809 48.6328 104.504 48.5977 104.082 48.5273C103.777 48.1992 103.496 47.7539 103.238 47.1914C103.004 46.6055 102.816 45.9844 102.676 45.3281C102.559 44.6719 102.5 44.0156 102.5 43.3594C102.523 42.6797 102.641 42.0938 102.852 41.6016C102.852 41.5781 102.945 41.3438 103.133 40.8984C103.32 40.4531 103.555 39.8789 103.836 39.1758C104.141 38.4727 104.48 37.6992 104.855 36.8555C105.23 35.9883 105.605 35.1562 105.98 34.3594C106.355 33.5391 106.707 32.7891 107.035 32.1094C107.387 31.4297 107.68 30.9141 107.914 30.5625C108.102 30.2812 108.266 30.0234 108.406 29.7891C108.57 29.5312 108.723 29.2852 108.863 29.0508C109.285 28.3242 109.684 27.7266 110.059 27.2578C110.457 26.7656 111.031 26.3789 111.781 26.0977C112.297 26.3086 112.672 26.5547 112.906 26.8359L112.977 27.2227C113.07 27.457 113.211 27.5742 113.398 27.5742C113.656 27.6445 113.867 27.7148 114.031 27.7852C114.219 27.832 114.418 27.8789 114.629 27.9258C114.793 28.1133 114.945 28.3359 115.086 28.5938C115.273 28.875 115.449 29.1562 115.613 29.4375C115.801 29.6953 115.941 29.9648 116.035 30.2461C116.152 30.5039 116.211 30.7734 116.211 31.0547C116.234 31.3359 116.188 31.6289 116.07 31.9336L116.105 32.2852C116.223 32.4961 116.246 32.7891 116.176 33.1641C116.152 33.3281 116.141 33.5039 116.141 33.6914C116.141 33.8555 116.164 34.043 116.211 34.2539C116.633 34.582 117.008 34.7461 117.336 34.7461C117.711 34.7461 118.051 34.6641 118.355 34.5C118.684 34.3125 118.988 34.125 119.27 33.9375C119.457 33.7969 119.645 33.6797 119.832 33.5859C120.02 33.4688 120.207 33.3984 120.395 33.375C120.816 32.9766 121.191 32.625 121.52 32.3203C121.871 32.0156 122.234 31.7109 122.609 31.4062C123.312 30.8438 123.992 30.2344 124.648 29.5781C125.305 28.9219 125.832 28.1016 126.23 27.1172C126.465 26.9766 126.711 26.9062 126.969 26.9062C127.227 26.9062 127.496 26.9648 127.777 27.082C128.059 27.1992 128.328 27.3164 128.586 27.4336C128.656 27.4805 128.715 27.5156 128.762 27.5391C128.832 27.5625 128.891 27.5859 128.938 27.6094C128.938 27.8438 129.031 28.043 129.219 28.207C129.312 28.2773 129.371 28.3242 129.395 28.3477C129.418 28.3711 129.453 28.3945 129.5 28.418C129.852 28.6055 130.074 28.793 130.168 28.9805C130.332 29.5195 130.625 29.9297 131.047 30.2109C131 30.4453 131 30.668 131.047 30.8789C131.117 31.0664 131.199 31.2656 131.293 31.4766C131.316 31.5469 131.34 31.6172 131.363 31.6875C131.387 31.7578 131.422 31.8398 131.469 31.9336L130.801 31.8633L130.906 32.5312C130.953 32.8594 130.918 33.2227 130.801 33.6211C130.707 34.0195 130.59 34.3359 130.449 34.5703C130.473 35.1797 130.484 35.6602 130.484 36.0117C130.508 36.3398 130.496 36.6562 130.449 36.9609C130.402 37.2422 130.332 37.5117 130.238 37.7695C130.168 38.0273 130.062 38.3086 129.922 38.6133C130.016 40.1133 129.84 41.4844 129.395 42.7266C128.973 43.9453 128.527 45.0938 128.059 46.1719C128.012 46.2891 127.953 46.4062 127.883 46.5234C127.836 46.6406 127.789 46.7578 127.742 46.875C127.531 46.9453 127.344 47.0273 127.18 47.1211C127.016 47.1914 126.84 47.2734 126.652 47.3672ZM151.262 28.207C151.285 28.3711 151.285 28.5 151.262 28.5938C151.262 28.6641 151.25 28.7344 151.227 28.8047C151.227 28.875 151.227 28.957 151.227 29.0508C151.227 29.1211 151.25 29.2383 151.297 29.4023C150.805 30.1992 150.23 30.75 149.574 31.0547C148.941 31.3359 148.25 31.5469 147.5 31.6875C146.75 31.8047 145.977 31.9336 145.18 32.0742C144.406 32.2148 143.633 32.5195 142.859 32.9883C142.555 32.8711 142.273 32.8711 142.016 32.9883C141.781 33.1055 141.43 33.1406 140.961 33.0938C140.82 33.2344 140.645 33.3398 140.434 33.4102C140.223 33.457 140.012 33.5156 139.801 33.5859C139.895 33.7969 139.93 34.0195 139.906 34.2539C139.906 34.4648 139.941 34.6406 140.012 34.7812C140.832 34.8516 141.734 34.8398 142.719 34.7461C143.727 34.6523 144.711 34.5938 145.672 34.5703C145.695 34.6875 145.684 34.7695 145.637 34.8164C145.59 34.8398 145.578 34.8984 145.602 34.9922C145.766 35.1094 145.93 35.2617 146.094 35.4492C146.258 35.6133 146.422 35.7773 146.586 35.9414C146.75 36.1055 146.914 36.2461 147.078 36.3633C147.266 36.457 147.477 36.4922 147.711 36.4688C147.805 36.6562 147.863 36.8672 147.887 37.1016C147.934 37.3125 147.91 37.5352 147.816 37.7695C147.441 38.0273 147.066 38.2969 146.691 38.5781C146.316 38.8359 145.918 39.0703 145.496 39.2812C145.098 39.4922 144.664 39.668 144.195 39.8086C143.75 39.9258 143.246 39.9727 142.684 39.9492C142.566 39.9492 142.473 39.9492 142.402 39.9492C142.355 39.9492 142.285 39.9141 142.191 39.8438C142.004 39.9609 141.734 39.9961 141.383 39.9492C141.055 39.9023 140.797 39.9375 140.609 40.0547C140.352 39.9375 140.035 39.8906 139.66 39.9141C139.309 39.9141 138.992 39.8672 138.711 39.7734C138.336 40.2656 137.996 40.793 137.691 41.3555C137.387 41.918 137.117 42.5156 136.883 43.1484C137.68 43.2656 138.336 43.3125 138.852 43.2891C139.391 43.2656 139.895 43.2305 140.363 43.1836C140.832 43.1133 141.312 43.0547 141.805 43.0078C142.297 42.9375 142.918 42.9141 143.668 42.9375C144.137 42.6797 144.688 42.5156 145.32 42.4453C145.977 42.3516 146.574 42.2109 147.113 42.0234C147.301 42.0938 147.465 42.2227 147.605 42.4102C147.746 42.5742 147.875 42.7383 147.992 42.9023C148.133 43.043 148.273 43.1719 148.414 43.2891C148.555 43.4062 148.73 43.4531 148.941 43.4297C149.035 43.5234 149.094 43.6406 149.117 43.7812C149.164 43.8984 149.199 44.0156 149.223 44.1328C149.246 44.25 149.281 44.3555 149.328 44.4492C149.398 44.5195 149.504 44.543 149.645 44.5195C149.293 45.293 148.883 45.8906 148.414 46.3125C147.969 46.7109 147.453 47.0156 146.867 47.2266C146.281 47.4375 145.625 47.6016 144.898 47.7188C144.195 47.8359 143.41 47.9766 142.543 48.1406C142.332 48.1875 142.156 48.1758 142.016 48.1055C141.875 48.0586 141.711 48.0352 141.523 48.0352C140.984 48.1523 140.34 48.2578 139.59 48.3516C138.84 48.4453 138.078 48.4805 137.305 48.457C136.531 48.4336 135.793 48.3281 135.09 48.1406C134.387 47.9766 133.812 47.6719 133.367 47.2266C133.18 47.0625 133.051 46.875 132.98 46.6641C132.934 46.4297 132.781 46.2539 132.523 46.1367C132.5 45.832 132.453 45.4922 132.383 45.1172C132.312 44.7422 132.242 44.3555 132.172 43.957C132.102 43.5352 132.043 43.125 131.996 42.7266C131.973 42.3281 131.996 41.9648 132.066 41.6367C132.137 41.2852 132.277 40.9688 132.488 40.6875C132.723 40.4062 132.805 40.1016 132.734 39.7734C132.852 39.75 132.922 39.6914 132.945 39.5977C132.969 39.4805 133.062 39.4336 133.227 39.457C133.367 39.0352 133.52 38.6367 133.684 38.2617C133.848 37.8867 134.012 37.5234 134.176 37.1719C134.363 36.8203 134.539 36.4688 134.703 36.1172C134.891 35.7422 135.066 35.332 135.23 34.8867C134.902 34.582 134.656 34.2539 134.492 33.9023C134.352 33.5273 134.246 33.1641 134.176 32.8125C134.105 32.4375 134.047 32.0625 134 31.6875C133.953 31.2891 133.871 30.8906 133.754 30.4922C133.988 30.1406 134.27 29.8594 134.598 29.6484C134.949 29.4141 135.324 29.2266 135.723 29.0859C136.121 28.9453 136.555 28.8281 137.023 28.7344C137.492 28.6406 137.984 28.5352 138.5 28.418C139.438 28.1133 140.27 27.8789 140.996 27.7148C141.746 27.5508 142.473 27.4219 143.176 27.3281C143.902 27.2109 144.652 27.1055 145.426 27.0117C146.199 26.918 147.078 26.7773 148.062 26.5898C148.273 26.8008 148.473 26.9062 148.66 26.9062C148.754 26.6953 148.859 26.6367 148.977 26.7305C149.117 26.8008 149.176 26.7305 149.152 26.5195C149.387 26.918 149.68 27.2578 150.031 27.5391C150.406 27.7969 150.816 28.0195 151.262 28.207ZM59.3633 79.6953C59.1289 79.8828 58.9883 80.1289 58.9414 80.4336C58.8945 80.7148 58.8359 80.9961 58.7656 81.2773C58.6953 81.5586 58.5664 81.8047 58.3789 82.0156C58.2148 82.2031 57.9102 82.2852 57.4648 82.2617C57.3711 82.3789 57.3477 82.4492 57.3945 82.4727C57.4648 82.4961 57.5234 82.6016 57.5703 82.7891C57.2422 82.7422 57.0078 82.7656 56.8672 82.8594C56.7266 82.9531 56.5508 83.0234 56.3398 83.0703C55.8008 82.9062 55.3438 82.6133 54.9688 82.1914C54.6172 81.7461 54.3008 81.2656 54.0195 80.75C53.7617 80.2344 53.5273 79.707 53.3164 79.168C53.1289 78.6289 52.9297 78.1602 52.7188 77.7617C52.7188 77.668 52.7656 77.6328 52.8594 77.6562C52.9297 77.6562 53 77.6562 53.0703 77.6562C52.9531 77.4219 52.8711 77.1641 52.8242 76.8828C52.7539 76.5781 52.6367 76.332 52.4727 76.1445C53.1523 74.6914 53.8789 73.1797 54.6523 71.6094C55.4258 70.0156 56.1992 68.4102 56.9727 66.793C57.7695 65.1523 58.5547 63.5117 59.3281 61.8711C60.125 60.207 60.8867 58.5781 61.6133 56.9844C62.2695 57.2188 62.9023 57.5 63.5117 57.8281C64.1445 58.1328 64.7188 58.4961 65.2344 58.918C65.75 59.3398 66.1836 59.832 66.5352 60.3945C66.9102 60.9336 67.1562 61.5547 67.2734 62.2578C67.2266 62.3984 67.168 62.4453 67.0977 62.3984C67.0273 62.3516 66.9688 62.375 66.9219 62.4688C67.0391 62.6094 67.0977 62.7148 67.0977 62.7852C67.1211 62.832 67.1211 62.8906 67.0977 62.9609C67.0742 63.0078 67.0625 63.0781 67.0625 63.1719C67.0625 63.2656 67.1211 63.3945 67.2383 63.5586C67.1211 63.5352 67.0391 63.5586 66.9922 63.6289C66.9453 63.6758 66.8633 63.6758 66.7461 63.6289C66.8633 63.957 66.8984 64.2148 66.8516 64.4023C66.8047 64.5898 66.7344 64.7656 66.6406 64.9297C66.5469 65.0703 66.4648 65.2344 66.3945 65.4219C66.3477 65.5859 66.3711 65.8203 66.4648 66.125C66.3711 66.125 66.3008 66.1484 66.2539 66.1953C66.2305 66.2188 66.207 66.2539 66.1836 66.3008C66.1602 66.3477 66.125 66.3945 66.0781 66.4414C66.0547 66.4648 65.9961 66.4648 65.9023 66.4414C65.9727 67.0508 65.9961 67.6719 65.9727 68.3047C65.9492 68.9141 65.9258 69.5469 65.9023 70.2031C65.8789 70.8359 65.8789 71.4922 65.9023 72.1719C65.9258 72.8516 66.0195 73.5547 66.1836 74.2812C67.1914 73.6953 68 72.9336 68.6094 71.9961C69.2422 71.0586 69.7344 70.0156 70.0859 68.8672C70.4609 67.7188 70.7422 66.4883 70.9297 65.1758C71.1406 63.8633 71.3516 62.5273 71.5625 61.168C71.8203 60.9102 72.0195 60.5938 72.1602 60.2188C72.3242 59.8438 72.4531 59.457 72.5469 59.0586C72.6641 58.6602 72.7695 58.2617 72.8633 57.8633C72.9805 57.4414 73.1328 57.0664 73.3203 56.7383C73.7422 56.7852 74.0938 56.9141 74.375 57.125C74.6797 57.3125 74.9609 57.5352 75.2188 57.793C75.4766 58.0273 75.7461 58.25 76.0273 58.4609C76.3086 58.6719 76.6602 58.8125 77.082 58.8828C77.4102 59.3516 77.7148 59.8086 77.9961 60.2539C78.2773 60.6758 78.4648 61.1562 78.5586 61.6953C78.418 61.9297 78.3125 62.1875 78.2422 62.4688C78.1719 62.75 78.0898 63.0312 77.9961 63.3125C77.9258 63.5938 77.8203 63.8516 77.6797 64.0859C77.5391 64.3203 77.3398 64.5195 77.082 64.6836C77.0117 65.3867 76.9062 66.043 76.7656 66.6523C76.625 67.2617 76.4961 67.8594 76.3789 68.4453C76.2617 69.0312 76.1562 69.6406 76.0625 70.2734C75.9688 70.9062 75.9336 71.5977 75.957 72.3477C75.7461 73.0273 75.5117 73.7305 75.2539 74.457C74.9961 75.1602 74.8086 75.8164 74.6914 76.4258C74.2461 76.7773 73.8945 77.2109 73.6367 77.7266C73.3789 78.2422 73.1094 78.7578 72.8281 79.2734C72.7109 79.3672 72.6406 79.3906 72.6172 79.3438C72.5938 79.2734 72.4883 79.2266 72.3008 79.2031C72.3242 79.4141 72.2773 79.5547 72.1602 79.625C72.0664 79.6719 72.0781 79.8359 72.1953 80.1172C71.7969 80.3047 71.4453 80.5508 71.1406 80.8555C70.8359 81.1602 70.4961 81.4414 70.1211 81.6992C69.7695 81.957 69.3477 82.1328 68.8555 82.2266C68.3867 82.2969 67.7656 82.1914 66.9922 81.9102C65.8438 81.0664 64.8125 80.0938 63.8984 78.9922C62.9844 77.8906 62.2578 76.5898 61.7188 75.0898C61.4844 75.1602 61.3086 75.3125 61.1914 75.5469C61.0742 75.7812 60.9688 76.0273 60.875 76.2852C60.7812 76.543 60.6875 76.7773 60.5938 76.9883C60.5 77.1992 60.3594 77.3047 60.1719 77.3047C60.125 77.5156 60.0312 77.7148 59.8906 77.9023C59.7734 78.0664 59.6562 78.2422 59.5391 78.4297C59.4219 78.5938 59.3281 78.7812 59.2578 78.9922C59.2109 79.2031 59.2461 79.4375 59.3633 79.6953ZM85.0977 80.5391C85.2148 81.2422 85.168 81.793 84.957 82.1914C84.7695 82.5898 84.4883 82.8828 84.1133 83.0703C83.7617 83.2812 83.3516 83.3984 82.8828 83.4219C82.4141 83.4453 81.9688 83.4219 81.5469 83.3516C81.3125 83.0234 81.1016 82.6133 80.9141 82.1211C80.7266 81.6289 80.5508 81.125 80.3867 80.6094C80.2227 80.0703 80.0703 79.543 79.9297 79.0273C79.8125 78.5117 79.707 78.0547 79.6133 77.6562C79.7305 77.375 79.8008 77.0586 79.8242 76.707C79.8711 76.332 79.8945 75.957 79.8945 75.582C79.918 75.207 79.9297 74.832 79.9297 74.457C79.9531 74.0586 79.9883 73.6836 80.0352 73.332C80.1992 72.3477 80.4336 71.4102 80.7383 70.5195C81.0664 69.6289 81.3242 68.7031 81.5117 67.7422C81.5586 67.5312 81.5352 67.332 81.4414 67.1445C81.3711 66.957 81.3594 66.7812 81.4062 66.6172C81.4297 66.5234 81.5 66.4648 81.6172 66.4414C81.7344 66.3945 81.8047 66.3125 81.8281 66.1953C81.8984 65.9375 81.9102 65.7266 81.8633 65.5625C81.8398 65.3984 81.8867 65.1992 82.0039 64.9648C82.1211 64.7773 82.2617 64.5078 82.4258 64.1562C82.6133 63.7812 82.6836 63.3945 82.6367 62.9961C82.8477 62.8555 83.0469 62.6914 83.2344 62.5039C83.4219 62.3164 83.6094 62.1523 83.7969 62.0117C84.0078 61.8477 84.2305 61.707 84.4648 61.5898C84.7227 61.4727 85.0273 61.4141 85.3789 61.4141C85.5664 61.6484 85.6836 61.9062 85.7305 62.1875C85.8008 62.4688 85.8594 62.75 85.9062 63.0312C85.9766 63.3125 86.0703 63.582 86.1875 63.8398C86.3047 64.0742 86.5039 64.2617 86.7852 64.4023C86.7852 64.5898 86.7852 64.8242 86.7852 65.1055C86.7852 65.3867 86.7969 65.668 86.8203 65.9492C86.8438 66.207 86.8906 66.4531 86.9609 66.6875C87.0547 66.8984 87.1953 67.0391 87.3828 67.1094C86.9609 68.2344 86.5625 69.3477 86.1875 70.4492C85.8359 71.5508 85.543 72.6641 85.3086 73.7891C85.0742 74.8906 84.9219 76.0039 84.8516 77.1289C84.8047 78.2539 84.8867 79.3906 85.0977 80.5391ZM114.102 76.6719C113.539 77.6797 112.801 78.4648 111.887 79.0273C110.973 79.5664 109.965 80.0234 108.863 80.3984C107.762 80.75 106.602 81.0664 105.383 81.3477C104.188 81.6289 103.027 81.9922 101.902 82.4375C101.574 82.4375 101.281 82.4492 101.023 82.4727C100.789 82.4961 100.555 82.5312 100.32 82.5781C100.109 82.6016 99.8984 82.6367 99.6875 82.6836C99.4766 82.707 99.2422 82.7305 98.9844 82.7539C98.8906 82.7305 98.832 82.7539 98.8086 82.8242C98.7852 82.8711 98.75 82.918 98.7031 82.9648C98.3047 83.0352 97.9414 83.0703 97.6133 83.0703C97.3086 83.0703 97.0508 83.0703 96.8398 83.0703C96.5586 83.0703 96.2656 83.1055 95.9609 83.1758C95.6797 83.2695 95.4219 83.3047 95.1875 83.2812C93.4297 83.1875 92.0469 82.5664 91.0391 81.418C90.0547 80.2461 89.5039 78.6289 89.3867 76.5664C89.4102 76.4492 89.3867 76.3789 89.3164 76.3555C89.2695 76.332 89.2227 76.2969 89.1758 76.25C89.1758 76.0156 89.1992 75.8164 89.2461 75.6523C89.3164 75.4883 89.3281 75.2773 89.2812 75.0195C89.8906 73.7305 90.582 72.5352 91.3555 71.4336C92.1289 70.3086 93.0547 69.3242 94.1328 68.4805C94.2969 68.3398 94.4375 68.1992 94.5547 68.0586C94.6719 67.918 94.7773 67.7773 94.8711 67.6367C94.9883 67.4961 95.1172 67.3789 95.2578 67.2852C95.3984 67.168 95.5742 67.0859 95.7852 67.0391C96.2773 66.4766 96.8633 65.9609 97.543 65.4922C98.2227 65.0234 98.9375 64.5781 99.6875 64.1562C100.438 63.7109 101.176 63.2773 101.902 62.8555C102.652 62.4102 103.332 61.918 103.941 61.3789C104.199 61.4961 104.387 61.5312 104.504 61.4844C104.621 61.4375 104.75 61.4375 104.891 61.4844C105.055 61.8359 105.277 62.082 105.559 62.2227C105.863 62.3633 106.156 62.5156 106.438 62.6797C106.742 62.8203 107.023 62.9961 107.281 63.207C107.539 63.418 107.738 63.6992 107.879 64.0508C107.738 64.0508 107.668 64.1094 107.668 64.2266C107.691 64.3203 107.727 64.4258 107.773 64.543C107.82 64.6367 107.832 64.7422 107.809 64.8594C107.809 64.9531 107.727 65 107.562 65C107.586 65.1172 107.656 65.1875 107.773 65.2109C107.914 65.2109 107.984 65.2695 107.984 65.3867C107.984 65.5039 107.949 65.5977 107.879 65.668C107.832 65.7383 107.832 65.8555 107.879 66.0195C107.41 66.3242 106.883 66.6172 106.297 66.8984C105.734 67.1797 105.137 67.4844 104.504 67.8125C103.895 68.1172 103.25 68.457 102.57 68.832C101.914 69.1836 101.27 69.5938 100.637 70.0625C100.004 70.5312 99.3594 71.0586 98.7031 71.6445C98.0469 72.207 97.4141 72.8047 96.8047 73.4375C96.1953 74.0703 95.6211 74.7266 95.082 75.4062C94.543 76.0625 94.0859 76.7188 93.7109 77.375C93.7578 77.4922 93.8047 77.5859 93.8516 77.6562C93.9219 77.7031 93.9805 77.7852 94.0273 77.9023C94.7773 77.9492 95.4688 77.9492 96.1016 77.9023C96.7578 77.832 97.4141 77.8672 98.0703 78.0078C98.1406 77.9609 98.1875 77.8906 98.2109 77.7969C98.2344 77.7031 98.293 77.6328 98.3867 77.5859C99.7227 77.4453 100.965 77.2344 102.113 76.9531C103.262 76.6484 104.434 76.332 105.629 76.0039C105.441 75.9336 105.266 75.875 105.102 75.8281C104.961 75.7578 104.82 75.6992 104.68 75.6523C104.562 75.5352 104.562 75.4414 104.68 75.3711C104.82 75.2773 104.938 75.1836 105.031 75.0898C104.703 74.9023 104.434 74.668 104.223 74.3867C104.035 74.1055 103.918 73.7305 103.871 73.2617C104.012 73.1445 104.082 73.0039 104.082 72.8398C104.082 72.6758 104.012 72.5469 103.871 72.4531C103.777 72.4297 103.719 72.4297 103.695 72.4531C103.672 72.4766 103.648 72.5117 103.625 72.5586C103.625 72.6055 103.613 72.6523 103.59 72.6992C103.566 72.7227 103.508 72.7109 103.414 72.6641C103.438 72.4531 103.484 72.2773 103.555 72.1367C103.648 71.9961 103.719 71.832 103.766 71.6445L106.191 70.0273C106.449 70.2148 106.766 70.4258 107.141 70.6602C107.516 70.8711 107.902 71.0938 108.301 71.3281C108.723 71.5391 109.145 71.7617 109.566 71.9961C110.012 72.207 110.422 72.418 110.797 72.6289C111.125 72.7695 111.418 72.957 111.676 73.1914C111.934 73.4258 112.18 73.6719 112.414 73.9297C112.648 74.1641 112.883 74.3984 113.117 74.6328C113.375 74.8672 113.668 75.0664 113.996 75.2305C113.949 75.5352 113.961 75.7812 114.031 75.9688C114.102 76.1562 114.125 76.3906 114.102 76.6719ZM130.66 79.5898C130.707 80.1992 130.637 80.7031 130.449 81.1016C130.262 81.5 130.004 81.8398 129.676 82.1211C129.348 82.4023 128.973 82.625 128.551 82.7891C128.129 82.9531 127.719 83.1055 127.32 83.2461C127.133 83.1289 126.945 83.0117 126.758 82.8945C126.594 82.7539 126.395 82.6484 126.16 82.5781C125.855 82.0156 125.562 81.5234 125.281 81.1016C125 80.6562 124.871 80.1523 124.895 79.5898C124.895 79.5664 124.906 79.4375 124.93 79.2031C124.977 78.9688 125.023 78.7109 125.07 78.4297C125.141 78.1484 125.188 77.8906 125.211 77.6562C125.258 77.3984 125.281 77.2578 125.281 77.2344C124.742 77.2812 124.18 77.3984 123.594 77.5859C123.008 77.7734 122.434 77.9961 121.871 78.2539C121.332 78.5117 120.816 78.7695 120.324 79.0273C119.855 79.2852 119.469 79.5078 119.164 79.6953C119.164 79.7656 119.117 79.9414 119.023 80.2227C118.93 80.4805 118.812 80.7617 118.672 81.0664C118.531 81.3477 118.379 81.6055 118.215 81.8398C118.051 82.0742 117.887 82.1914 117.723 82.1914C117.746 82.2617 117.781 82.332 117.828 82.4023C117.875 82.4727 117.875 82.5664 117.828 82.6836C117.5 82.7773 117.207 82.8945 116.949 83.0352C116.691 83.1992 116.422 83.3281 116.141 83.4219C115.859 83.5391 115.555 83.5977 115.227 83.5977C114.898 83.5977 114.512 83.4805 114.066 83.2461C114.066 83.1055 114.008 82.9883 113.891 82.8945C113.773 82.7773 113.645 82.6836 113.504 82.6133C113.387 82.5195 113.281 82.4492 113.188 82.4023C113.094 82.332 113.047 82.2734 113.047 82.2266C112.93 82.25 112.883 82.168 112.906 81.9805C112.93 81.793 113.023 81.7461 113.188 81.8398C112.93 81.5117 112.766 81.2305 112.695 80.9961C112.648 80.7383 112.52 80.4219 112.309 80.0469C112.355 80 112.402 79.918 112.449 79.8008C112.473 79.6836 112.496 79.5781 112.52 79.4844C112.543 79.3906 112.578 79.3203 112.625 79.2734C112.672 79.2266 112.73 79.2383 112.801 79.3086C112.754 79.0977 112.754 78.9219 112.801 78.7812C112.848 78.6406 112.895 78.5117 112.941 78.3945C112.988 78.2773 113.023 78.1602 113.047 78.043C113.07 77.9258 113.035 77.7969 112.941 77.6562C113.316 77.1406 113.562 76.5898 113.68 76.0039C113.797 75.3945 113.867 74.8438 113.891 74.3516C114.055 74.1875 114.195 73.9531 114.312 73.6484C114.453 73.3438 114.559 73.0391 114.629 72.7344C114.699 72.4062 114.723 72.1016 114.699 71.8203C114.699 71.5156 114.664 71.2695 114.594 71.082C114.617 70.9648 114.746 70.9297 114.98 70.9766C115.121 70.2031 115.215 69.3359 115.262 68.375C115.332 67.3906 115.438 66.4648 115.578 65.5977C115.719 64.707 115.953 63.9336 116.281 63.2773C116.609 62.5977 117.137 62.1523 117.863 61.9414C118.004 62.4336 118.18 62.8672 118.391 63.2422C118.625 63.6172 118.871 63.9805 119.129 64.332C119.41 64.6602 119.68 65 119.938 65.3516C120.219 65.7031 120.477 66.1016 120.711 66.5469C120.688 66.9922 120.641 67.5078 120.57 68.0938C120.5 68.6797 120.406 69.2773 120.289 69.8867C120.195 70.4961 120.09 71.082 119.973 71.6445C119.879 72.207 119.785 72.6875 119.691 73.0859C119.715 73.2031 119.773 73.2734 119.867 73.2969C119.984 73.3203 120.008 73.4258 119.938 73.6133C120.5 73.4727 121.086 73.3438 121.695 73.2266C122.305 73.1094 122.914 72.9805 123.523 72.8398C124.133 72.6992 124.719 72.5469 125.281 72.3828C125.867 72.1953 126.406 71.9727 126.898 71.7148C127.016 70.8008 127.168 69.8867 127.355 68.9727C127.543 68.0586 127.566 67.1211 127.426 66.1602C127.543 66.0664 127.637 65.9492 127.707 65.8086C127.777 65.668 127.895 65.5742 128.059 65.5273C127.941 65.082 127.895 64.6133 127.918 64.1211C127.941 63.6289 128.023 63.1602 128.164 62.7148C128.328 62.2695 128.551 61.8945 128.832 61.5898C129.137 61.2617 129.5 61.0508 129.922 60.957C130.18 61.332 130.402 61.7422 130.59 62.1875C130.777 62.6094 130.965 63.043 131.152 63.4883C131.363 63.9102 131.574 64.3203 131.785 64.7188C132.02 65.0938 132.312 65.4219 132.664 65.7031C132.734 66.3828 132.781 67.0859 132.805 67.8125C132.852 68.5391 132.887 69.2773 132.91 70.0273C132.723 70.918 132.512 71.7852 132.277 72.6289C132.066 73.4492 131.914 74.3281 131.82 75.2656C131.656 75.4531 131.527 75.6641 131.434 75.8984C131.34 76.1328 131.246 76.3789 131.152 76.6367C131.059 76.8711 130.953 77.1055 130.836 77.3398C130.719 77.5508 130.578 77.7383 130.414 77.9023C130.508 78.1836 130.52 78.4531 130.449 78.7109C130.402 78.9453 130.473 79.2383 130.66 79.5898ZM153.617 66.0898C153.031 66.0898 152.398 66.1367 151.719 66.2305C151.039 66.3008 150.371 66.3828 149.715 66.4766C149.246 66.5469 148.789 66.6055 148.344 66.6523C147.922 66.6992 147.535 66.7344 147.184 66.7578C147.02 67.2734 146.855 67.7305 146.691 68.1289C146.527 68.5273 146.352 68.9141 146.164 69.2891C145.977 69.6875 145.801 70.0977 145.637 70.5195C145.496 70.918 145.355 71.3516 145.215 71.8203C144.98 72.1953 144.781 72.5469 144.617 72.875C144.477 73.1797 144.359 73.5312 144.266 73.9297C143.984 74.2812 143.773 74.6562 143.633 75.0547C143.492 75.4297 143.387 75.7578 143.316 76.0391L143.176 76.4609C143.035 76.6016 142.953 76.7188 142.93 76.8125C142.906 76.8828 142.848 76.9531 142.754 77.0234C142.73 77.2812 142.648 77.5391 142.508 77.7969C142.461 77.9141 142.426 78.0312 142.402 78.1484C142.379 78.2422 142.367 78.3125 142.367 78.3594C142.367 78.5938 142.309 78.7461 142.191 78.8164C142.215 78.9336 142.215 79.0625 142.191 79.2031C142.168 79.3203 142.145 79.4375 142.121 79.5547C142.051 79.8359 142.027 80.0586 142.051 80.2227C142.121 80.3164 142.18 80.3984 142.227 80.4688C142.297 80.5391 142.344 80.6328 142.367 80.75C142.508 80.8438 142.613 80.9023 142.684 80.9258C142.777 80.9961 142.918 81.0781 143.105 81.1719L143.422 81.5234C143.539 82.2031 143.434 82.7422 143.105 83.1406C142.754 83.5859 142.156 83.8086 141.312 83.8086H140.891C140.773 83.6914 140.703 83.5977 140.68 83.5273C140.492 83.457 140.34 83.3984 140.223 83.3516C140.105 83.3047 140 83.2109 139.906 83.0703C139.602 82.9297 139.355 82.8125 139.168 82.7188L138.852 82.543C138.852 82.2852 138.852 82.1445 138.852 82.1211C138.688 81.9102 138.559 81.6758 138.465 81.418C138.395 81.1602 138.336 80.9023 138.289 80.6445C138.242 80.4336 138.184 80.2344 138.113 80.0469C138.066 79.8594 137.996 79.6953 137.902 79.5547C137.855 78.1953 137.984 77.0469 138.289 76.1094C138.594 75.1719 138.91 74.2695 139.238 73.4023C139.426 72.9336 139.613 72.4648 139.801 71.9961C139.988 71.5039 140.152 71 140.293 70.4844L140.609 70.1328C140.773 69.7578 140.902 69.4531 140.996 69.2188C141.113 68.9609 141.23 68.7031 141.348 68.4453C141.418 68.2812 141.477 68.1289 141.523 67.9883C141.594 67.8242 141.652 67.6836 141.699 67.5664C141.559 67.5664 141.43 67.5781 141.312 67.6016C141.195 67.6016 141.078 67.6133 140.961 67.6367C140.82 67.6602 140.691 67.6836 140.574 67.707C140.457 67.707 140.34 67.707 140.223 67.707C140.059 67.707 139.941 67.6953 139.871 67.6719C139.613 67.7891 139.332 67.8477 139.027 67.8477H138.676C138.605 67.8477 138.535 67.8477 138.465 67.8477C138.418 67.8242 138.371 67.8125 138.324 67.8125C138.09 67.8125 137.902 67.8477 137.762 67.918C137.48 67.918 137.211 67.918 136.953 67.918H136.602C136.555 67.918 136.496 67.9297 136.426 67.9531C136.355 67.9531 136.297 67.9531 136.25 67.9531C136.086 67.9531 135.91 67.9414 135.723 67.918C135.535 67.8711 135.336 67.7891 135.125 67.6719C134.844 67.2969 134.656 67.0977 134.562 67.0742L134.246 66.6523C134.223 66.5117 134.188 66.3828 134.141 66.2656C134.094 66.125 134.047 65.9727 134 65.8086C133.906 65.5742 133.812 65.3281 133.719 65.0703C133.648 64.7891 133.613 64.4609 133.613 64.0859C133.637 63.8984 133.684 63.7578 133.754 63.6641C133.824 63.5703 133.883 63.4883 133.93 63.418L134.035 62.8906L134.492 62.9258H135.477C136.227 62.9258 136.988 62.9023 137.762 62.8555C138.535 62.7852 139.332 62.7148 140.152 62.6445C140.621 62.5977 141.09 62.5508 141.559 62.5039C142.051 62.457 142.555 62.4102 143.07 62.3633C143.164 62.1523 143.258 61.9531 143.352 61.7656L143.703 61.5898C144.125 61.5664 144.418 61.625 144.582 61.7656C144.77 61.8828 144.922 62 145.039 62.1172C145.555 62.0703 146.07 62.0234 146.586 61.9766C147.125 61.9062 147.664 61.8242 148.203 61.7305C149 61.6133 149.797 61.5078 150.594 61.4141C151.414 61.3203 152.199 61.2734 152.949 61.2734C153.277 61.2734 153.594 61.2852 153.898 61.3086C154.203 61.332 154.484 61.3672 154.742 61.4141L155.094 61.6602C155.164 61.8008 155.258 61.9297 155.375 62.0469C155.516 62.1641 155.656 62.2812 155.797 62.3984C156.078 62.6562 156.359 62.9609 156.641 63.3125C156.922 63.6641 157.027 64.1797 156.957 64.8594C156.77 65.1406 156.629 65.3047 156.535 65.3516L156.219 65.7734L155.867 65.7383C155.727 65.7383 155.598 65.7617 155.48 65.8086C155.363 65.832 155.246 65.8672 155.129 65.9141C155.035 65.9609 154.941 66.0078 154.848 66.0547C154.754 66.0781 154.648 66.1016 154.531 66.125C154.32 66.125 154.145 66.125 154.004 66.125C153.887 66.1016 153.758 66.0898 153.617 66.0898ZM54.582 108.086C54.6055 107.992 54.6523 107.957 54.7227 107.98C54.8164 107.98 54.8984 107.969 54.9688 107.945C54.7812 107.758 54.6641 107.512 54.6172 107.207C54.5703 106.879 54.4531 106.609 54.2656 106.398C54.3125 106.281 54.3477 106.164 54.3711 106.047C54.418 105.93 54.5234 105.883 54.6875 105.906C54.6172 105.391 54.6289 104.91 54.7227 104.465C54.8164 104.02 54.957 103.598 55.1445 103.199C55.3555 102.801 55.5898 102.414 55.8477 102.039C56.1289 101.641 56.3984 101.242 56.6562 100.844C56.8672 100.797 56.9961 100.82 57.043 100.914C57.0898 100.984 57.1719 100.961 57.2891 100.844C57.6641 100.586 57.9219 100.305 58.0625 100C58.2031 99.6719 58.2734 99.3203 58.2734 98.9453C58.4844 98.3359 58.7188 97.7383 58.9766 97.1523C59.2578 96.543 59.5742 95.9805 59.9258 95.4648C60.2773 94.9492 60.6523 94.5039 61.0508 94.1289C61.4492 93.7305 61.8828 93.4258 62.3516 93.2148C62.6797 92.9336 63.0898 92.6758 63.582 92.4414C64.0977 92.207 64.6367 92.0312 65.1992 91.9141C65.7852 91.7734 66.3828 91.7031 66.9922 91.7031C67.6016 91.6797 68.1641 91.7383 68.6797 91.8789C68.7969 91.9258 68.8672 91.9023 68.8906 91.8086C68.9141 91.6914 68.9727 91.6328 69.0664 91.6328C70.2383 91.7734 71.2812 92.0078 72.1953 92.3359C73.1328 92.6641 73.9297 93.1211 74.5859 93.707C75.0312 94.4102 75.4531 95.1719 75.8516 95.9922C76.25 96.7891 76.5547 97.6328 76.7656 98.5234C77 99.3906 77.1055 100.293 77.082 101.23C77.0586 102.168 76.8594 103.105 76.4844 104.043C75.6641 105.074 74.668 105.906 73.4961 106.539C72.3242 107.148 71.0586 107.664 69.6992 108.086C68.3633 108.484 66.9688 108.812 65.5156 109.07C64.0859 109.328 62.6914 109.609 61.332 109.914C61.3555 110.547 61.3555 111.227 61.332 111.953C61.3086 112.656 61.2266 113.371 61.0859 114.098C60.9688 114.801 60.7812 115.492 60.5234 116.172C60.2891 116.852 59.9609 117.484 59.5391 118.07C59.0703 118.047 58.5781 118.094 58.0625 118.211C57.5703 118.328 57.125 118.445 56.7266 118.562C56.5391 118.445 56.3516 118.328 56.1641 118.211C56 118.117 55.7891 118.059 55.5312 118.035C55.6016 117.754 55.5312 117.461 55.3203 117.156C55.1328 116.852 54.9336 116.559 54.7227 116.277C54.5352 115.973 54.4062 115.68 54.3359 115.398C54.2891 115.094 54.4297 114.824 54.7578 114.59C54.5703 114.426 54.4766 114.168 54.4766 113.816C54.5703 113.91 54.6875 113.957 54.8281 113.957C54.7812 113.535 54.8281 113.031 54.9688 112.445C55.1328 111.859 55.2617 111.285 55.3555 110.723C55.4727 110.137 55.4961 109.609 55.4258 109.141C55.3555 108.648 55.0742 108.297 54.582 108.086ZM63.7227 99.8594C63.6289 100.117 63.5469 100.352 63.4766 100.562C63.4297 100.75 63.3711 100.926 63.3008 101.09C63.2305 101.254 63.1484 101.418 63.0547 101.582C62.9844 101.746 62.9023 101.934 62.8086 102.145C62.8555 102.285 62.9492 102.391 63.0898 102.461C63.2305 102.531 63.3242 102.637 63.3711 102.777C63.6992 102.613 64.0273 102.496 64.3555 102.426C64.6836 102.332 65.0117 102.262 65.3398 102.215C65.668 102.168 65.9961 102.109 66.3242 102.039C66.6523 101.969 66.9922 101.852 67.3438 101.688C67.6953 101.523 68.0586 101.395 68.4336 101.301C68.832 101.184 69.2188 101.066 69.5938 100.949C69.9688 100.832 70.332 100.703 70.6836 100.562C71.0352 100.398 71.3398 100.188 71.5977 99.9297C71.2695 99.625 70.7773 99.3555 70.1211 99.1211C69.4648 98.8867 68.75 98.7461 67.9766 98.6992C67.2266 98.6289 66.4648 98.6758 65.6914 98.8398C64.9414 99.0039 64.2852 99.3438 63.7227 99.8594ZM74.4102 114.66L74.8672 114.309L74.9023 113.57C75.4883 112.141 76.0859 110.77 76.6953 109.457C77.3281 108.145 77.9844 106.797 78.6641 105.414C78.875 104.969 79.0859 104.523 79.2969 104.078C79.5312 103.633 79.7539 103.176 79.9648 102.707C79.9414 102.613 79.9297 102.52 79.9297 102.426C79.9297 102.309 79.9531 102.18 80 102.039C80.3281 101.57 80.5859 101.148 80.7734 100.773C80.9844 100.398 81.1836 100.012 81.3711 99.6133C81.582 99.1445 81.8047 98.6758 82.0391 98.207C82.2969 97.7383 82.6133 97.2812 82.9883 96.8359L83.2344 96.4844L83.6211 96.5195C83.7148 96.4727 83.8086 96.4375 83.9023 96.4141C84.0195 96.3672 84.1602 96.3438 84.3242 96.3438L84.957 96.4492C85.7305 96.0977 86.4102 95.5938 86.9961 94.9375C87.6055 94.2578 88.2148 93.4492 88.8242 92.5117L89.2461 91.9141L89.8086 92.2656C89.9258 92.3359 90.1133 92.4062 90.3711 92.4766C90.6289 92.5469 90.8984 92.6289 91.1797 92.7227C91.6719 92.8398 92.1523 92.9805 92.6211 93.1445C93.0898 93.2852 93.4531 93.4844 93.7109 93.7422L93.8867 94.0586C93.9336 94.3164 93.9688 94.5508 93.9922 94.7617C94.0391 94.9727 94.0859 95.1836 94.1328 95.3945C94.2266 95.8867 94.3086 96.3789 94.3789 96.8711C94.4492 97.3398 94.4961 97.8672 94.5195 98.4531C94.6367 98.9219 94.7422 99.4023 94.8359 99.8945C94.9531 100.363 95.0586 100.832 95.1523 101.301C95.2695 101.98 95.3984 102.637 95.5391 103.27C95.6797 103.879 95.8672 104.465 96.1016 105.027C96.3359 105.027 96.4766 105.039 96.5234 105.062C96.8047 104.945 97.1328 104.875 97.5078 104.852L97.9648 104.816L98.1055 105.238C98.1523 105.309 98.2109 105.379 98.2812 105.449C98.3516 105.52 98.4336 105.59 98.5273 105.66C98.9023 105.684 99.1719 105.766 99.3359 105.906C99.5234 106.023 99.6758 106.141 99.793 106.258C99.8398 106.305 99.8984 106.363 99.9688 106.434C100.039 106.48 100.098 106.516 100.145 106.539L100.777 106.785L100.426 107.453C100.168 107.945 99.7695 108.426 99.2305 108.895C98.7148 109.363 98.1289 109.75 97.4727 110.055C97.5195 110.219 97.543 110.371 97.543 110.512C97.5664 110.652 97.6016 110.816 97.6484 111.004C97.7422 111.473 97.8125 111.965 97.8594 112.48C97.9297 112.973 97.9297 113.488 97.8594 114.027C97.625 114.637 97.3438 115.188 97.0156 115.68C96.7109 116.148 96.3359 116.582 95.8906 116.98C95.4688 117.355 94.9883 117.672 94.4492 117.93C93.9102 118.164 93.3477 118.293 92.7617 118.316C92.4336 118.246 92.1875 118.164 92.0234 118.07C91.8828 117.977 91.7539 117.883 91.6367 117.789C91.4492 117.648 91.2969 117.555 91.1797 117.508L90.7227 117.297L90.8633 116.77C90.9336 116.582 90.9219 116.418 90.8281 116.277C90.7578 116.137 90.5938 115.949 90.3359 115.715C90.2422 115.645 90.1602 115.574 90.0898 115.504C90.0195 115.41 89.9375 115.316 89.8438 115.223L89.1406 114.414L90.3008 114.098C91.0039 113.91 91.4727 113.676 91.707 113.395C91.9414 113.09 92.0352 112.562 91.9883 111.812C91.4023 111.695 90.9219 111.684 90.5469 111.777C90.1719 111.848 89.7969 111.93 89.4219 112.023C88.8828 112.164 88.3555 112.293 87.8398 112.41C87.3242 112.504 86.7617 112.551 86.1523 112.551C85.7539 112.551 85.332 112.516 84.8867 112.445L84.5 112.41L84.3945 112.023C84.3945 111.977 84.3594 111.93 84.2891 111.883C84.2422 111.812 84.1953 111.754 84.1484 111.707C84.0312 111.566 83.8906 111.379 83.7266 111.145C83.5625 110.91 83.5273 110.617 83.6211 110.266C83.457 110.008 83.3633 109.738 83.3398 109.457C83.2461 109.645 83.1641 109.832 83.0938 110.02C83.0469 110.184 83 110.348 82.9531 110.512L82.8125 110.969L82.3555 111.039C82.3086 111.086 82.2617 111.156 82.2148 111.25C82.1914 111.344 82.1914 111.414 82.2148 111.461L82.3555 111.848L82.0039 112.164C81.957 112.234 81.8984 112.293 81.8281 112.34C81.7578 112.387 81.6992 112.434 81.6523 112.48C81.6055 112.738 81.5352 112.984 81.4414 113.219C81.3711 113.453 81.2891 113.688 81.1953 113.922C81.0781 114.297 80.9609 114.66 80.8438 115.012C80.75 115.363 80.7031 115.715 80.7031 116.066L80.5625 116.523C80.4453 116.711 80.293 116.852 80.1055 116.945C79.9414 117.039 79.7773 117.121 79.6133 117.191C79.3789 117.285 79.2148 117.379 79.1211 117.473L79.0156 117.93L78.4883 118C78.1836 118.07 77.9609 118.117 77.8203 118.141C77.7031 118.164 77.5625 118.176 77.3984 118.176L76.9414 118.141C76.6602 117.859 76.4258 117.648 76.2383 117.508C76.0742 117.344 75.875 117.203 75.6406 117.086L75.4297 116.805C75.3359 116.617 75.2773 116.453 75.2539 116.312C75.2305 116.148 75.1953 115.984 75.1484 115.82C75.1016 115.516 75.0312 115.305 74.9375 115.188L74.4102 114.66ZM85.625 105.52C85.2969 105.988 84.9805 106.48 84.6758 106.996C84.8398 106.973 84.9922 106.961 85.1328 106.961C85.2969 106.961 85.4609 106.949 85.625 106.926C86.4453 106.879 87.207 106.82 87.9102 106.75C88.6133 106.68 89.375 106.562 90.1953 106.398C90.0078 105.531 89.7969 104.652 89.5625 103.762C89.3516 102.848 89.1172 101.934 88.8594 101.02L88.6836 101.371C88.0977 102.004 87.5352 102.684 86.9961 103.41C86.457 104.137 86.0117 104.828 85.6602 105.484L85.625 105.52ZM103.871 114.941C103.191 114.426 102.629 113.781 102.184 113.008C101.762 112.234 101.422 111.414 101.164 110.547C100.93 109.68 100.766 108.789 100.672 107.875C100.602 106.938 100.578 106.047 100.602 105.203C100.812 104.57 101.07 103.996 101.375 103.48C101.68 102.941 102.02 102.438 102.395 101.969C102.77 101.477 103.156 101.02 103.555 100.598C103.977 100.152 104.387 99.707 104.785 99.2617C104.926 99.2617 105.055 99.2969 105.172 99.3672C105.266 99.1094 105.406 98.8867 105.594 98.6992C105.781 98.5117 105.98 98.3477 106.191 98.207C106.402 98.043 106.613 97.8906 106.824 97.75C107.035 97.5859 107.211 97.3984 107.352 97.1875C107.938 97.0469 108.453 96.8477 108.898 96.5898C109.367 96.332 109.812 96.0508 110.234 95.7461C110.656 95.4414 111.09 95.1602 111.535 94.9023C111.98 94.6445 112.496 94.4453 113.082 94.3047C113.293 94.0703 113.551 93.8711 113.855 93.707C114.184 93.543 114.5 93.3906 114.805 93.25C115.133 93.1094 115.438 92.957 115.719 92.793C116.023 92.6289 116.27 92.4062 116.457 92.125C116.598 92.3125 116.797 92.3828 117.055 92.3359C117.312 92.2656 117.547 92.1953 117.758 92.125C117.898 92.1016 118.016 92.125 118.109 92.1953C118.203 92.2656 118.285 92.3477 118.355 92.4414C118.449 92.5117 118.52 92.5586 118.566 92.582C118.637 92.6055 118.707 92.5352 118.777 92.3711C118.965 92.3945 119.012 92.4766 118.918 92.6172C118.848 92.7578 118.801 92.8516 118.777 92.8984C119.012 92.8516 119.199 92.8984 119.34 93.0391C119.504 93.1562 119.75 93.2383 120.078 93.2852C120.195 93.4023 120.23 93.4961 120.184 93.5664C120.137 93.6367 120.102 93.7539 120.078 93.918C120.922 94.1758 121.461 94.5859 121.695 95.1484C121.93 95.6875 121.953 96.2617 121.766 96.8711C121.578 97.457 121.227 98.0078 120.711 98.5234C120.219 99.0156 119.668 99.3438 119.059 99.5078C118.332 99.6953 117.652 99.8828 117.02 100.07C116.41 100.258 115.812 100.469 115.227 100.703C114.664 100.938 114.125 101.219 113.609 101.547C113.117 101.852 112.684 102.215 112.309 102.637C111.652 102.824 111.055 103.082 110.516 103.41C110 103.738 109.508 104.102 109.039 104.5C108.594 104.898 108.16 105.32 107.738 105.766C107.316 106.188 106.895 106.609 106.473 107.031C106.473 107.43 106.402 107.734 106.262 107.945C106.121 108.156 105.969 108.367 105.805 108.578C105.852 109.023 105.945 109.41 106.086 109.738C106.25 110.043 106.414 110.359 106.578 110.688C108.453 111.25 110.434 111.602 112.52 111.742C114.629 111.859 116.715 111.93 118.777 111.953C118.988 112.234 119.223 112.504 119.48 112.762C119.762 112.996 120.008 113.242 120.219 113.5C120.453 113.758 120.629 114.062 120.746 114.414C120.887 114.742 120.922 115.141 120.852 115.609C120.453 116.008 120.02 116.395 119.551 116.77C119.082 117.121 118.613 117.473 118.145 117.824C117.934 117.848 117.676 117.848 117.371 117.824C117.09 117.801 116.785 117.789 116.457 117.789C116.152 117.789 115.836 117.812 115.508 117.859C115.203 117.883 114.91 117.953 114.629 118.07C113.152 118.023 111.641 117.848 110.094 117.543C108.547 117.215 107.117 116.828 105.805 116.383C105.547 116.078 105.277 115.797 104.996 115.539C104.715 115.258 104.34 115.059 103.871 114.941ZM123.312 111.566C123.336 111.473 123.348 111.402 123.348 111.355C123.371 111.309 123.336 111.25 123.242 111.18C123.195 111.016 123.23 110.91 123.348 110.863C123.465 110.816 123.582 110.77 123.699 110.723C123.816 109.316 124.051 108.039 124.402 106.891C124.777 105.719 125.176 104.582 125.598 103.48C126.043 102.379 126.477 101.277 126.898 100.176C127.344 99.0508 127.707 97.832 127.988 96.5195C128.293 96.2148 128.539 95.8516 128.727 95.4297C128.938 95.0078 129.137 94.5859 129.324 94.1641C129.535 93.7188 129.77 93.2969 130.027 92.8984C130.309 92.5 130.684 92.1719 131.152 91.9141C131.363 91.9375 131.551 91.9844 131.715 92.0547C131.902 92.1016 132.078 92.1602 132.242 92.2305C132.406 92.3008 132.582 92.3594 132.77 92.4062C132.957 92.4531 133.156 92.4766 133.367 92.4766C133.461 92.5938 133.543 92.7344 133.613 92.8984C133.684 93.0391 133.777 93.168 133.895 93.2852L134.527 93.1797C134.832 93.4375 135.102 93.7656 135.336 94.1641C135.57 94.5391 135.734 94.9375 135.828 95.3594C135.922 95.7578 135.91 96.1562 135.793 96.5547C135.676 96.9297 135.406 97.2227 134.984 97.4336C135.008 97.5742 135.008 97.6797 134.984 97.75C134.961 97.8203 134.926 97.8906 134.879 97.9609C134.855 98.0078 134.844 98.0664 134.844 98.1367C134.844 98.1836 134.891 98.2539 134.984 98.3477C134.727 98.5586 134.492 98.8281 134.281 99.1562C134.07 99.4609 133.895 99.7891 133.754 100.141C133.613 100.492 133.496 100.844 133.402 101.195C133.332 101.547 133.285 101.875 133.262 102.18C133.941 101.477 134.738 100.82 135.652 100.211C136.566 99.6016 137.363 99.0273 138.043 98.4883C138.582 98.1133 139.051 97.7617 139.449 97.4336C139.871 97.082 140.293 96.7656 140.715 96.4844C141.137 96.1797 141.57 95.8984 142.016 95.6406C142.484 95.3594 142.953 95.0547 143.422 94.7266C143.656 94.6328 143.832 94.6094 143.949 94.6562C144.09 94.7031 144.219 94.7617 144.336 94.832C144.359 94.668 144.324 94.5742 144.23 94.5508C144.137 94.5039 144.102 94.3867 144.125 94.1992C144.523 94.082 144.875 93.9414 145.18 93.7773C145.508 93.6133 145.848 93.4609 146.199 93.3203C146.434 93.5781 146.668 93.8594 146.902 94.1641C147.137 94.4453 147.453 94.5977 147.852 94.6211C147.992 94.9258 148.156 95.1602 148.344 95.3242C148.555 95.4648 148.754 95.6055 148.941 95.7461C149.152 95.8867 149.328 96.0625 149.469 96.2734C149.609 96.4609 149.691 96.7656 149.715 97.1875C149.621 97.375 149.504 97.5859 149.363 97.8203C149.246 98.0312 149.141 98.3008 149.047 98.6289C148.484 99.1445 147.91 99.6016 147.324 100C146.762 100.375 146.176 100.738 145.566 101.09C144.98 101.441 144.371 101.805 143.738 102.18C143.129 102.555 142.508 102.988 141.875 103.48C141.734 103.691 141.559 103.879 141.348 104.043C141.137 104.207 140.914 104.371 140.68 104.535C140.469 104.676 140.258 104.828 140.047 104.992C139.859 105.156 139.707 105.355 139.59 105.59C139.496 105.59 139.414 105.602 139.344 105.625C139.273 105.625 139.191 105.637 139.098 105.66C139.004 105.848 138.863 106 138.676 106.117C138.512 106.234 138.395 106.387 138.324 106.574C138.746 107.488 139.297 108.18 139.977 108.648C140.656 109.117 141.418 109.457 142.262 109.668C143.105 109.879 144.02 109.996 145.004 110.02C145.988 110.043 147.008 110.055 148.062 110.055C148.18 110.031 148.227 109.973 148.203 109.879C148.203 109.762 148.273 109.715 148.414 109.738C148.766 109.855 149.059 109.996 149.293 110.16C149.527 110.324 149.75 110.5 149.961 110.688C150.172 110.875 150.371 111.074 150.559 111.285C150.77 111.473 151.004 111.672 151.262 111.883C151.215 112.984 150.887 113.887 150.277 114.59C149.691 115.27 148.906 115.82 147.922 116.242C146.562 116.289 145.379 116.254 144.371 116.137C143.363 116.02 142.367 115.762 141.383 115.363C141.312 115.34 141.242 115.27 141.172 115.152C141.125 115.035 141.078 114.953 141.031 114.906C140.844 114.789 140.633 114.742 140.398 114.766C140.164 114.789 139.965 114.766 139.801 114.695C139.59 114.602 139.238 114.391 138.746 114.062C138.277 113.734 137.844 113.43 137.445 113.148C136.953 112.75 136.473 112.363 136.004 111.988C135.559 111.59 135.16 111.156 134.809 110.688C134.738 110.57 134.633 110.512 134.492 110.512C134.375 110.512 134.258 110.477 134.141 110.406C133.32 110.922 132.629 111.566 132.066 112.34C131.527 113.09 131 113.863 130.484 114.66C129.969 115.434 129.418 116.172 128.832 116.875C128.27 117.555 127.555 118.082 126.688 118.457C126.43 118.457 126.207 118.41 126.02 118.316C125.832 118.246 125.656 118.141 125.492 118C125.328 117.883 125.164 117.766 125 117.648C124.836 117.531 124.648 117.449 124.438 117.402C124.438 117.074 124.367 116.77 124.227 116.488C124.109 116.184 123.98 115.914 123.84 115.68C123.723 115.422 123.629 115.176 123.559 114.941C123.512 114.707 123.582 114.473 123.77 114.238C123.512 114.027 123.266 113.852 123.031 113.711C123.195 113.547 123.266 113.395 123.242 113.254C123.242 113.113 123.207 112.973 123.137 112.832C123.066 112.691 123.008 112.551 122.961 112.41C122.938 112.246 122.984 112.07 123.102 111.883C123.195 111.859 123.23 111.812 123.207 111.742C123.207 111.672 123.242 111.613 123.312 111.566Z" fill="black"/>
</g>
<defs>
<filter id="filter0_d_3_51" x="0.242111" y="0.818138" width="204.08" height="140.261" filterUnits="userSpaceOnUse" color-interpolation-filters="sRGB">
<feFlood flood-opacity="0" result="BackgroundImageFix"/>
<feColorMatrix in="SourceAlpha" type="matrix" values="0 0 0 0 0 0 0 0 0 0 0 0 0 0 0 0 0 0 127 0" result="hardAlpha"/>
<feOffset dy="2"/>
<feGaussianBlur stdDeviation="2"/>
<feColorMatrix type="matrix" values="0 0 0 0 0 0 0 0 0 0 0 0 0 0 0 0 0 0 0.35 0"/>
<feBlend mode="normal" in2="BackgroundImageFix" result="effect1_dropShadow_3_51"/>
<feBlend mode="normal" in="SourceGraphic" in2="effect1_dropShadow_3_51" result="shape"/>
</filter>
<clipPath id="clip0_3_51">
<rect width="142" height="205" fill="white" transform="translate(0 142) rotate(-90)"/>
</clipPath>
</defs>
</svg>
