<svg width="80" height="80" viewBox="0 0 80 80" fill="none" xmlns="http://www.w3.org/2000/svg">
<path opacity="0.75" d="M37.4546 34.0422C37.4546 34.0422 37.8971 32.4935 37.7496 31.8298C37.4915 30.7605 36.3853 29.9493 36.3853 29.138C36.4222 28.1056 37.639 27.2206 38.782 27.11C39.9251 26.9994 40.6257 27.2206 41.1419 27.8106C42.1744 28.9906 41.6213 29.7649 40.9576 30.5392C39.9251 31.6823 41.0313 33.4153 41.1051 33.5628M44.1287 34.9271C44.1287 34.9271 45.6405 34.3372 46.0461 33.8209C46.7466 32.9729 46.7098 31.6086 47.4104 31.1292C48.2584 30.5392 49.6965 30.9817 50.4708 31.8298C51.2452 32.6779 51.5033 33.3785 51.3189 34.1528C50.9871 35.7015 50.0284 35.7015 49.0328 35.6277C47.4841 35.5171 46.7835 37.4345 46.6729 37.582M32.6611 39.1675C32.6611 39.1675 31.5918 37.9507 30.9649 37.7295C29.9325 37.3239 28.6419 37.8401 27.9782 37.3608C27.1301 36.7339 27.0564 35.259 27.6095 34.2265C28.1626 33.231 28.7157 32.7516 29.49 32.641C31.0387 32.4566 31.4074 33.3416 31.6655 34.3003C32.0711 35.7752 34.0992 35.8121 34.2835 35.849M39.4458 48.3858C39.4458 48.3858 38.4871 49.6764 38.3764 50.3401C38.2289 51.4463 38.9664 52.5894 38.6345 53.3268C38.2289 54.2855 36.754 54.6543 35.6478 54.3593C34.5416 54.0274 33.9517 53.585 33.6935 52.8475C33.1773 51.3726 33.9517 50.8563 34.8735 50.377C36.2378 49.6764 35.8322 47.6852 35.8322 47.5009M33.8779 45.4729C33.8779 45.4729 32.2555 45.5466 31.7024 45.8785C30.7437 46.4316 30.3381 47.759 29.5638 47.9802C28.5682 48.2752 27.3514 47.3903 26.872 46.3209C26.4295 45.2516 26.3927 44.5142 26.7983 43.8504C27.6095 42.523 28.5313 42.7811 29.4531 43.1867C30.8543 43.8136 32.1449 42.1911 32.2924 42.0805M45.5298 45.5835C45.5298 45.5835 45.9723 47.1322 46.4517 47.6115C47.226 48.4227 48.5903 48.4965 48.9959 49.197C49.5121 50.1189 48.9222 51.5201 48.0003 52.1838C47.0785 52.8475 46.341 53.0687 45.6036 52.8106C44.1287 52.3313 44.1655 51.3726 44.3499 50.377C44.608 48.8652 42.8012 47.9802 42.6537 47.8696M47.2629 40.0156C47.2629 40.0156 48.7009 40.7531 49.3646 40.7531C50.4708 40.7531 51.4664 39.7944 52.2776 40.0156C53.2732 40.2737 53.9 41.6381 53.7525 42.7811C53.6051 43.9242 53.2732 44.5879 52.5726 44.9566C51.2083 45.6941 50.5446 45.0304 49.9546 44.2192C49.0328 42.9655 47.1154 43.7029 46.9679 43.7398M38.5608 43.9979C38.5608 43.9979 39.0033 42.4493 38.8558 41.7855C38.5977 40.7162 37.4915 39.905 37.4915 39.0938C37.5284 38.0614 38.7452 37.1764 39.8882 37.0658C41.0313 36.9552 41.7319 37.1764 42.2481 37.7664C43.2806 38.9463 42.7275 39.7206 42.0638 40.495C41.0313 41.638 42.1375 43.3711 42.2112 43.5186M63.3396 43.8504C63.2658 43.8504 63.1552 43.8136 63.0815 43.8136C62.8602 43.8136 62.6759 43.8504 62.4915 43.9242C62.3071 43.9979 62.1228 44.1086 61.9015 44.1823C61.5328 44.3667 61.0534 44.6248 60.7216 44.6248C60.1316 44.6248 58.5092 44.0348 57.993 43.5555L57.9561 43.5186C58.0667 42.6336 58.1405 41.7487 58.1405 40.8637C58.1405 39.3519 57.9561 37.877 57.5874 36.4389C58.0298 36.0333 58.5092 35.7752 59.0992 35.7383C59.136 35.7383 59.136 35.7383 59.1729 35.7383C59.5416 35.7383 60.0579 35.9227 60.4635 36.1071C60.611 36.1808 60.7584 36.2177 60.9059 36.2546C61.0534 36.2914 61.1641 36.3283 61.3115 36.3283C61.459 36.3283 61.6065 36.2914 61.7909 36.2546C62.8233 35.9227 63.3027 34.5584 62.8602 33.1204C62.4915 31.9404 61.5697 31.0923 60.6478 31.0923C60.5003 31.0923 60.3528 31.1292 60.2054 31.1661C59.9472 31.2398 59.6523 31.4242 59.5048 31.6454C59.3941 31.7929 59.2466 31.9773 59.136 32.1616C58.8779 32.5304 58.5829 32.9729 58.2879 33.1204C57.9192 33.3047 57.5136 33.4153 57.108 33.4153C56.9236 33.4153 56.7393 33.3785 56.518 33.3416C55.8174 31.7929 54.8956 30.3549 53.8263 29.0274C53.7157 28.8799 53.5682 28.7324 53.4207 28.585C53.7525 27.9212 54.5638 26.5201 55.7806 26.5938C56.7761 26.6675 57.7348 26.6307 58.0667 25.082C58.2142 24.3077 57.9561 23.6071 57.1817 22.759C56.4074 21.9109 54.9694 21.5053 54.1213 22.0953C53.4576 22.5746 53.4944 23.9389 52.7938 24.787C52.4989 25.1557 51.2083 25.7457 50.5446 26.0407C49.9546 25.5614 49.4015 25.1926 49.0697 24.9714C47.6316 24.1233 46.0829 23.4596 44.4605 23.054C44.3499 22.5746 44.3868 22.0953 44.5343 21.6528C44.6449 21.3578 45.0874 20.9891 45.3823 20.731C45.493 20.6204 45.6036 20.5466 45.7142 20.436C45.8986 20.2516 46.0461 19.9935 46.1198 19.6616C46.2304 19.1086 46.0092 18.5555 45.5298 18.113C45.1242 17.7442 44.5711 17.4861 43.9812 17.3755C43.7599 17.3386 43.5756 17.3018 43.3543 17.3018C42.2112 17.3018 41.3263 17.8917 41.1788 18.7398C41.1051 19.0348 41.1788 19.3667 41.2525 19.551C41.3263 19.7354 41.4 19.8829 41.5107 20.0673C41.695 20.3991 41.9163 20.8416 41.9163 21.1366C41.9163 21.6159 41.7688 22.0584 41.4738 22.464C41.0682 22.4271 40.6994 22.3903 40.2938 22.3903C40.257 22.3534 40.257 22.3165 40.2201 22.2796C39.7407 21.6159 39.1877 19.9566 39.2614 19.4404C39.2983 19.0717 39.6301 18.5555 39.8882 18.1867C39.962 18.0392 40.0726 17.9286 40.1464 17.818C40.2938 17.5599 40.3676 17.2649 40.3307 16.933C40.2201 15.9375 39.1876 15.2 37.8602 15.2C37.7496 15.2 37.639 15.2 37.5284 15.2C36.0534 15.3475 34.9472 16.3062 35.0579 17.4124C35.0947 17.7442 35.2422 18.0392 35.3528 18.2236C35.4635 18.3711 35.611 18.5186 35.7584 18.7029C36.0534 19.0348 36.4222 19.4035 36.5328 19.6985C36.7171 20.2516 36.6065 21.9847 36.2747 22.6484C36.2747 22.6852 36.2378 22.6852 36.2378 22.7221C34.5785 23.054 32.993 23.6071 31.4812 24.3445C31.4443 24.3077 31.4074 24.3077 31.3705 24.2708C30.7437 23.9389 30.3381 23.4965 30.1169 22.8696C30.0062 22.5378 30.08 21.9109 30.1169 21.4684C30.1537 21.3209 30.1537 21.1734 30.1537 21.026C30.1906 20.731 30.08 20.436 29.9325 20.1779C29.6375 19.6616 29.0475 19.3667 28.3469 19.3667C27.7938 19.3667 27.167 19.551 26.6508 19.8829C26.0977 20.2147 25.6552 20.6941 25.3971 21.2103C25.1021 21.8372 25.1021 22.464 25.3971 22.9434C25.5446 23.1646 25.8027 23.3858 26.0239 23.5333C26.2083 23.6071 26.3927 23.6808 26.6139 23.7914C27.0195 23.9389 27.5357 24.1233 27.757 24.3814C28.1994 24.8608 28.4207 25.4507 28.4207 26.1145C28.4207 26.1882 28.4207 26.2619 28.4207 26.3357C27.3514 27.1838 26.3558 28.1793 25.4708 29.2487C25.3971 29.2487 24.8071 30.2811 24.1065 31.4979C23.6272 31.4242 21.5254 31.2398 21.1935 29.8755C20.9354 28.8799 20.6036 28.0319 19.018 28.2162C18.2437 28.29 17.6537 28.8062 17.1375 29.8018C16.5844 30.7973 16.6582 32.3091 17.5062 32.936C18.1699 33.4153 19.4605 32.8991 20.493 33.3047C20.9354 33.4891 21.8573 34.4109 22.3366 34.964C22.226 35.2221 22.1891 35.3696 22.226 35.3696C21.6729 37.1395 21.4148 38.9463 21.4148 40.79C21.4148 41.3799 21.4517 42.0068 21.4885 42.5968C20.7879 42.9286 20.0874 43.113 19.7555 43.113C19.7555 43.113 19.7555 43.113 19.7186 43.113C19.3499 43.0761 18.8337 42.7811 18.4281 42.5599C18.2806 42.4861 18.17 42.4124 18.0225 42.3386C17.8381 42.228 17.6169 42.1911 17.3956 42.1911C17.3219 42.1911 17.2481 42.1911 17.1744 42.1911C16.6213 42.2649 16.1051 42.6705 15.8469 43.2973C15.6257 43.8136 15.5151 44.4773 15.6257 45.1041C15.8101 46.4684 16.695 47.464 17.7275 47.464C17.8012 47.464 17.875 47.464 17.9487 47.464C18.2806 47.4271 18.5756 47.2428 18.723 47.0953C18.8705 46.9847 19.018 46.8003 19.1655 46.6528C19.4605 46.3578 19.8292 45.9522 20.1242 45.8416C20.2717 45.7678 20.7142 45.731 21.341 45.731C21.5992 45.731 21.8573 45.731 22.0785 45.7678C22.7422 48.0908 23.8853 50.3401 25.3971 52.2206C25.2127 52.4788 24.9915 52.7 24.7334 52.8844C24.4384 53.1056 23.8115 53.1793 23.3691 53.2162C23.2216 53.2531 23.0741 53.2531 22.9266 53.29C22.6316 53.3268 22.3735 53.4743 22.1523 53.7324C21.7466 54.138 21.5992 54.7649 21.7466 55.4286C21.8573 55.9817 22.1891 56.5348 22.6685 57.0142C23.2953 57.6041 24.0328 57.9729 24.7334 57.9729C25.2127 57.9729 25.6183 57.8254 25.9502 57.4935C26.1346 57.3091 26.282 57.0142 26.3558 56.756C26.3927 56.5717 26.4295 56.3504 26.4295 56.1292C26.4664 55.6867 26.5402 55.1705 26.7245 54.9124C26.872 54.6911 27.0564 54.5068 27.2407 54.3224C27.5726 54.6174 27.9045 54.9124 28.2363 55.1705C28.0151 55.9817 27.7201 56.756 27.4989 56.9773C27.2407 57.2354 26.6876 57.4566 26.2452 57.6041C26.0977 57.6779 25.9502 57.7147 25.8396 57.7516C25.5815 57.8622 25.3602 58.0835 25.1758 58.3416C24.6228 59.2634 25.1758 60.6277 26.4295 61.4021C26.9826 61.7339 27.5726 61.9183 28.1257 61.9183C28.8263 61.9183 29.4163 61.6233 29.7112 61.1071C29.8587 60.8858 29.9325 60.554 29.9325 60.2959C29.9325 60.1115 29.8956 59.8903 29.8587 59.669C29.8219 59.2265 29.7481 58.7103 29.8587 58.4153C29.9694 58.1203 30.4118 57.4935 30.9281 56.9773C32.5136 57.8622 34.2098 58.4891 35.9428 58.8578C35.9059 58.9684 35.8691 59.0791 35.8322 59.1897C35.6847 59.4847 35.2791 59.8534 34.9472 60.1115C34.8366 60.2221 34.726 60.2959 34.6154 60.3696C34.3941 60.554 34.2466 60.8121 34.2098 61.1071C33.9885 62.1395 34.8735 63.172 36.2378 63.467C36.4959 63.5407 36.754 63.5407 36.9753 63.5407C38.0446 63.5407 38.8927 62.9876 39.077 62.1764C39.1508 61.9183 39.1139 61.5864 39.0402 61.3652C38.9664 61.1808 38.8927 61.0333 38.8189 60.8121C38.6714 60.4802 38.4502 60.0009 38.4502 59.7428C38.4502 59.5584 38.4871 59.374 38.5239 59.1897C38.9295 59.2265 39.372 59.2265 39.7776 59.2265C40.0726 59.2265 40.3676 59.2265 40.6994 59.1897C40.9944 59.7428 41.1051 60.2959 40.9944 60.849C40.9207 61.2177 40.552 61.697 40.2938 62.0658C40.1832 62.1764 40.1095 62.3239 40.0357 62.4345C39.8882 62.6558 39.7776 62.9507 39.7776 63.2826C39.7776 63.8357 40.1095 64.3888 40.6626 64.7206C41.1419 65.0156 41.7688 65.2 42.3956 65.2C42.4325 65.2 42.4325 65.2 42.4694 65.2C43.9812 65.1631 45.1242 64.2782 45.0874 63.172C45.0874 62.9139 44.9767 62.582 44.8292 62.3608C44.7186 62.2133 44.5711 62.0289 44.4236 61.8445C44.1655 61.5127 43.7968 61.1071 43.723 60.7752C43.5756 60.1484 43.6862 59.5215 44.018 58.9316C44.0918 58.8209 44.1287 58.7103 44.2024 58.6366C46.0829 58.1572 47.8528 57.4198 49.5121 56.3873C50.2496 56.9035 51.1714 57.8991 51.3189 58.3047C51.4295 58.6366 51.3927 59.2634 51.3189 59.7059C51.3189 59.8534 51.282 60.0009 51.282 60.1484C51.282 60.4434 51.3558 60.7383 51.5033 60.9965C51.7983 61.5127 52.3882 61.7708 53.0888 61.7708C53.6419 61.7708 54.2688 61.5864 54.8219 61.2546C55.375 60.9227 55.8174 60.4434 56.0756 59.9271C56.3705 59.3003 56.3705 58.6734 56.0387 58.1941C55.8543 57.8991 55.5962 57.7147 55.4118 57.641C55.2275 57.5673 55.0431 57.4935 54.8219 57.4198C54.4163 57.2723 53.9 57.0879 53.6788 56.8667C53.2732 56.4242 52.6095 54.8755 52.6095 54.1012C52.6095 54.0643 52.6095 54.0274 52.6095 53.9537C52.757 53.8062 52.9045 53.6587 53.052 53.5112C53.4576 53.6587 53.8263 53.8799 54.1213 54.1749C54.3794 54.433 54.5269 55.0599 54.6375 55.4655C54.6744 55.613 54.7112 55.7605 54.7481 55.908C54.8219 56.1661 55.0062 56.4242 55.2643 56.6086C55.5225 56.7929 55.8543 56.9035 56.223 56.9035C56.9974 56.9035 57.8455 56.4242 58.4354 55.613C58.841 55.0968 59.0623 54.4699 59.0992 53.9168C59.136 53.2531 58.9148 52.6631 58.4354 52.3313C58.1773 52.1469 57.8455 52.0363 57.6242 52.0363C57.5505 52.0363 57.4767 52.0363 57.3661 52.0363C57.2555 52.0363 57.108 52.0363 56.9974 52.0363C56.8499 52.0363 56.7024 52.0363 56.5549 52.0363C56.4074 52.0363 55.9649 52.0363 55.7437 51.9257C55.4118 51.7782 55.1169 51.5201 54.8587 51.2251C55.67 50.082 56.2968 48.8283 56.813 47.5378C56.9236 47.5009 57.0343 47.464 57.1817 47.3903C57.5874 47.2428 58.3986 47.1322 59.136 47.1322C59.6891 47.1322 60.0579 47.2059 60.1685 47.2428C60.5003 47.3903 60.9059 47.8327 61.2009 48.2015C61.3115 48.3121 61.4222 48.4596 61.4959 48.5333C61.6803 48.7546 61.9753 48.9021 62.2702 48.9389C62.3809 48.9389 62.4546 48.9758 62.5652 48.9758C63.5608 48.9758 64.4458 48.0171 64.7039 46.6897C65.0357 45.3991 64.4089 44.0717 63.3396 43.8504Z" stroke="white" stroke-width="1.5" stroke-miterlimit="10" stroke-linecap="round"/>
</svg>
