<svg width="141" height="253" viewBox="0 0 141 253" fill="none" xmlns="http://www.w3.org/2000/svg">
<g clip-path="url(#clip0_2_2)">
<g filter="url(#filter0_d_2_2)">
<path fill-rule="evenodd" clip-rule="evenodd" d="M35.2439 13.1855C33.5856 13.1831 31.5105 14.3055 30.6095 15.6917L6.81464 52.3011C5.91349 53.6875 5.18108 56.1616 5.17878 57.8168L4.92099 243.138C4.91868 244.798 6.26626 246.145 7.92183 246.148L133.912 246.322C135.571 246.325 136.919 244.987 136.921 243.323L137.182 55.6637C137.184 54.0051 136.389 51.5767 135.408 50.2421L110.019 15.7057C109.037 14.3701 106.89 13.2854 105.239 13.2831L35.2439 13.1855ZM63.87 40.7467C63.8753 36.6961 67.1633 33.4167 71.2127 33.4227C75.2624 33.4278 78.5406 36.7166 78.5352 40.7672C78.5304 44.8159 75.2426 48.0943 71.193 48.0892C67.1436 48.0831 63.8651 44.7954 63.87 40.7467Z" fill="#F4F4F4"/>
</g>
<path d="M21.6416 83.708C21.501 83.708 21.4307 83.6055 21.4307 83.4004C21.4307 83.1953 21.4424 83.0078 21.4658 82.8379C21.4951 82.668 21.5303 82.5068 21.5713 82.3545C21.6123 82.2021 21.6592 82.0527 21.7119 81.9062L21.8789 81.4492C22.0195 81.0508 22.1162 80.6934 22.1689 80.377C22.2217 80.0605 22.2773 79.873 22.3359 79.8145C22.3945 79.75 22.459 79.7178 22.5293 79.7178C22.6465 79.7178 22.7988 79.8408 22.9863 80.0869C23.0801 80.1982 23.2178 80.2598 23.3994 80.2715C23.5869 80.2773 23.7656 80.2803 23.9355 80.2803H32.8301C33.1992 80.2803 33.4775 80.2158 33.665 80.0869C33.8525 79.958 33.9814 79.8643 34.0518 79.8057C34.1221 79.7471 34.1807 79.7178 34.2275 79.7178C34.2744 79.7178 34.3154 79.7207 34.3506 79.7266C34.3916 79.7324 34.4297 79.7471 34.4648 79.7705C34.5645 79.8291 34.5703 79.9609 34.4824 80.166C34.4004 80.3652 34.3066 80.623 34.2012 80.9395C34.0957 81.25 33.999 81.5547 33.9111 81.8535C33.7529 82.3984 33.6416 82.8203 33.5771 83.1191C33.4951 83.5293 33.3809 83.7344 33.2344 83.7344C33.082 83.7344 32.9883 83.6436 32.9531 83.4619C32.9238 83.2744 32.8887 83.1104 32.8477 82.9697C32.8066 82.8232 32.7539 82.6914 32.6895 82.5742C32.291 81.8711 31.0547 81.5195 28.9805 81.5195V91.0469C28.9805 91.8203 29.0273 92.3359 29.1211 92.5938C29.2207 92.8516 29.335 93.0303 29.4639 93.1299C29.5928 93.2236 29.7305 93.2705 29.877 93.2705C30.0293 93.2705 30.1406 93.2676 30.2109 93.2617C30.3809 93.2383 30.5039 93.2207 30.5801 93.209C30.6562 93.1973 30.7383 93.1914 30.8262 93.1914C30.9199 93.1914 30.9961 93.2383 31.0547 93.332C31.1133 93.4199 31.1426 93.499 31.1426 93.5693C31.1426 93.6338 31.125 93.6982 31.0898 93.7627C31.0547 93.8271 30.999 93.8857 30.9229 93.9385C30.7354 94.0674 30.5068 94.1318 30.2373 94.1318C29.9736 94.1318 29.7422 94.123 29.543 94.1055C29.3496 94.0938 29.168 94.082 28.998 94.0703L28.4883 94.0176C28.3242 94.0059 28.1455 94 27.9521 94C27.7588 94 27.5801 94.0059 27.416 94.0176L26.9062 94.0703C26.3965 94.1113 26.0215 94.1318 25.7812 94.1318C25.5469 94.1318 25.3711 94.1113 25.2539 94.0703C25.1426 94.0352 25.0488 93.9912 24.9727 93.9385C24.8262 93.833 24.7529 93.7275 24.7529 93.6221C24.7529 93.5166 24.7822 93.4199 24.8408 93.332C24.8994 93.2383 24.9756 93.1914 25.0693 93.1914C25.1631 93.1914 25.2393 93.1973 25.2979 93.209C25.3623 93.2148 25.4238 93.2207 25.4824 93.2266C25.6699 93.2559 25.8428 93.2705 26.001 93.2705C26.1592 93.2705 26.3027 93.2236 26.4316 93.1299C26.5605 93.0361 26.6602 92.8955 26.7305 92.708C26.8535 92.3799 26.915 91.8262 26.915 91.0469V81.5107C25.7549 81.5107 24.9199 81.5928 24.4102 81.7568C24.334 81.7803 24.1875 81.8184 23.9707 81.8711C23.7539 81.9238 23.5078 82.0557 23.2324 82.2666C22.957 82.4717 22.7139 82.6826 22.5029 82.8994C22.292 83.1104 22.1133 83.2979 21.9668 83.4619C21.8262 83.626 21.7178 83.708 21.6416 83.708ZM35.4141 89.2715C35.4141 88.7676 35.543 88.2285 35.8008 87.6543C36.0645 87.0801 36.4219 86.5762 36.873 86.1426C37.8516 85.2109 39.0439 84.7451 40.4502 84.7451C42.0791 84.7451 43.3418 85.2314 44.2383 86.2041C45.041 87.0771 45.4424 88.1172 45.4424 89.3242C45.4424 90.748 45.0176 91.9053 44.168 92.7959C43.2715 93.7393 42.0439 94.2109 40.4854 94.2109C38.2354 94.2109 36.7031 93.3613 35.8887 91.6621C35.5723 91 35.4141 90.2031 35.4141 89.2715ZM37.7871 87.584C37.6641 87.918 37.6025 88.3604 37.6025 88.9111C37.6025 89.4619 37.6934 89.9922 37.875 90.502C38.0625 91.0117 38.3086 91.4424 38.6133 91.7939C39.252 92.5205 40.0107 92.8838 40.8896 92.8838C41.9678 92.8838 42.6855 92.4121 43.043 91.4688C43.166 91.1465 43.2275 90.6895 43.2275 90.0977C43.2275 89.5059 43.1309 88.9463 42.9375 88.4189C42.7441 87.8857 42.4922 87.4463 42.1816 87.1006C41.5723 86.4209 40.8311 86.0811 39.958 86.0811C38.874 86.0811 38.1504 86.582 37.7871 87.584ZM48.1934 93.7275C48.0703 93.5869 47.9795 93.4316 47.9209 93.2617C47.8623 93.0918 47.833 92.9189 47.833 92.7432C47.833 92.5674 47.8682 92.3887 47.9385 92.207C48.0146 92.0254 48.123 91.8643 48.2637 91.7236C48.5566 91.4189 48.9258 91.2666 49.3711 91.2666C49.8281 91.2666 50.1943 91.4336 50.4697 91.7676C50.71 92.0605 50.8301 92.4062 50.8301 92.8047C50.8301 93.1504 50.6953 93.4639 50.4258 93.7451C50.1211 94.0557 49.7959 94.2109 49.4502 94.2109C49.1104 94.2109 48.8467 94.1641 48.6592 94.0703C48.4717 93.9824 48.3164 93.8682 48.1934 93.7275ZM48.1934 87.7246C48.0703 87.584 47.9795 87.4287 47.9209 87.2588C47.8623 87.0889 47.833 86.916 47.833 86.7402C47.833 86.5645 47.8682 86.3857 47.9385 86.2041C48.0146 86.0225 48.123 85.8613 48.2637 85.7207C48.5566 85.416 48.9258 85.2637 49.3711 85.2637C49.8281 85.2637 50.1943 85.4307 50.4697 85.7646C50.71 86.0576 50.8301 86.4033 50.8301 86.8018C50.8301 87.1475 50.6953 87.4609 50.4258 87.7422C50.1211 88.0527 49.7959 88.208 49.4502 88.208C49.1104 88.208 48.8467 88.1641 48.6592 88.0762C48.4717 87.9824 48.3164 87.8652 48.1934 87.7246ZM27.3984 186.123L24.8584 186C24.5654 186 24.2871 186.015 24.0234 186.044C23.5488 186.097 23.1768 186.123 22.9072 186.123C22.6436 186.123 22.459 186.103 22.3535 186.062C22.248 186.026 22.1631 185.982 22.0986 185.93C21.9814 185.836 21.9229 185.733 21.9229 185.622C21.9229 185.347 22.0371 185.209 22.2656 185.209L22.8281 185.262C23.2324 185.262 23.502 185.104 23.6367 184.787C23.7539 184.512 23.8125 183.99 23.8125 183.223V175.163C23.8125 174.372 23.7598 173.859 23.6543 173.625C23.5488 173.391 23.4229 173.229 23.2764 173.142C23.1299 173.054 22.9365 173.01 22.6963 173.01L22.2656 173.062C22.1543 173.062 22.0693 173.024 22.0107 172.948C21.9521 172.872 21.9229 172.796 21.9229 172.72C21.9229 172.644 21.9346 172.576 21.958 172.518C21.9873 172.453 22.0342 172.395 22.0986 172.342C22.2568 172.213 22.4648 172.148 22.7227 172.148C22.9805 172.148 23.2002 172.154 23.3818 172.166L24.4102 172.254C24.5742 172.271 24.7617 172.28 24.9727 172.28H32.3379C32.3789 172.556 32.4375 172.834 32.5137 173.115L32.7334 173.95C32.9033 174.577 32.9883 174.996 32.9883 175.207C32.9883 175.412 32.9238 175.515 32.7949 175.515C32.6953 175.515 32.5664 175.415 32.4082 175.216C32.25 175.017 32.0742 174.809 31.8809 174.592C31.6875 174.369 31.4707 174.17 31.2305 173.994C30.6855 173.613 30.0264 173.423 29.2529 173.423H26.7041C26.4463 173.423 26.2441 173.508 26.0977 173.678C25.957 173.848 25.8867 174.082 25.8867 174.381V177.984C25.8867 178.295 26.1416 178.45 26.6514 178.45H29.0684C29.4668 178.45 29.8359 178.245 30.1758 177.835C30.293 177.694 30.3809 177.557 30.4395 177.422C30.498 177.281 30.5449 177.188 30.5801 177.141C30.6211 177.094 30.6826 177.07 30.7646 177.07C30.9404 177.07 31.0283 177.234 31.0283 177.562L30.958 179.083L31.0283 180.463C31.0283 180.791 30.9404 180.955 30.7646 180.955C30.6416 180.955 30.5479 180.867 30.4834 180.691C30.2373 180.146 29.8857 179.801 29.4287 179.654C29.2998 179.613 29.1797 179.593 29.0684 179.593H26.6426C26.4023 179.593 26.2148 179.646 26.0801 179.751C25.9512 179.851 25.8867 179.977 25.8867 180.129V183.223C25.8867 183.984 25.9336 184.477 26.0273 184.699C26.1211 184.922 26.2324 185.071 26.3613 185.147C26.4902 185.224 26.6602 185.262 26.8711 185.262L27.9873 185.183C28.0869 185.183 28.166 185.229 28.2246 185.323C28.2832 185.411 28.3125 185.49 28.3125 185.561C28.3125 185.625 28.2949 185.689 28.2598 185.754C28.2246 185.818 28.1719 185.877 28.1016 185.93C27.9199 186.059 27.6855 186.123 27.3984 186.123ZM35.2383 186.132C34.6465 186.132 34.3506 185.953 34.3506 185.596C34.3506 185.502 34.3799 185.417 34.4385 185.341C34.5029 185.259 34.585 185.218 34.6846 185.218L35.124 185.279C35.458 185.279 35.6924 185.121 35.8271 184.805C35.9736 184.465 36.0469 183.861 36.0469 182.994V180.313C36.0469 179.458 35.9766 178.878 35.8359 178.573C35.6953 178.286 35.5283 178.107 35.335 178.037C35.1416 177.967 34.9658 177.911 34.8076 177.87C34.6553 177.823 34.5205 177.771 34.4033 177.712C34.292 177.653 34.2363 177.586 34.2363 177.51C34.2363 177.428 34.2451 177.36 34.2627 177.308C34.2803 177.255 34.3096 177.205 34.3506 177.158C34.4502 177.047 34.6025 176.991 34.8076 176.991L36.0996 177.097L37.4268 176.991C37.8896 176.991 38.1211 177.296 38.1211 177.905V178.521C38.6719 177.677 39.3926 177.129 40.2832 176.877C40.5762 176.789 40.8809 176.745 41.1973 176.745C42.2871 176.745 42.832 177.094 42.832 177.791L42.8145 179.962C42.8145 180.044 42.7881 180.114 42.7354 180.173C42.6885 180.226 42.6328 180.252 42.5684 180.252C42.416 180.252 42.3047 180.117 42.2344 179.848C42.1641 179.578 42.0645 179.35 41.9355 179.162C41.8066 178.969 41.6602 178.816 41.4961 178.705C41.1914 178.512 40.8662 178.415 40.5205 178.415C40.1807 178.415 39.8936 178.471 39.6592 178.582C39.4248 178.693 39.208 178.834 39.0088 179.004C38.6221 179.344 38.3262 179.73 38.1211 180.164V182.994C38.1211 183.967 38.2031 184.605 38.3672 184.91C38.502 185.156 38.7744 185.279 39.1846 185.279L39.791 185.209C39.8906 185.209 39.9697 185.25 40.0283 185.332C40.0869 185.414 40.1162 185.493 40.1162 185.569C40.1162 185.646 40.0898 185.716 40.0371 185.78C39.9902 185.845 39.9258 185.903 39.8438 185.956C39.5801 186.12 39.1699 186.17 38.6133 186.105C38.4785 186.094 38.3438 186.082 38.209 186.07C37.5352 185.994 37.0312 185.971 36.6973 186C36.3633 186.029 36.126 186.05 35.9854 186.062C35.8447 186.079 35.7158 186.094 35.5986 186.105C35.4814 186.123 35.3613 186.132 35.2383 186.132ZM44.3965 181.271C44.3965 180.768 44.5254 180.229 44.7832 179.654C45.0469 179.08 45.4043 178.576 45.8555 178.143C46.834 177.211 48.0264 176.745 49.4326 176.745C51.0615 176.745 52.3242 177.231 53.2207 178.204C54.0234 179.077 54.4248 180.117 54.4248 181.324C54.4248 182.748 54 183.905 53.1504 184.796C52.2539 185.739 51.0264 186.211 49.4678 186.211C47.2178 186.211 45.6855 185.361 44.8711 183.662C44.5547 183 44.3965 182.203 44.3965 181.271ZM46.7695 179.584C46.6465 179.918 46.585 180.36 46.585 180.911C46.585 181.462 46.6758 181.992 46.8574 182.502C47.0449 183.012 47.291 183.442 47.5957 183.794C48.2344 184.521 48.9932 184.884 49.8721 184.884C50.9502 184.884 51.668 184.412 52.0254 183.469C52.1484 183.146 52.21 182.689 52.21 182.098C52.21 181.506 52.1133 180.946 51.9199 180.419C51.7266 179.886 51.4746 179.446 51.1641 179.101C50.5547 178.421 49.8135 178.081 48.9404 178.081C47.8564 178.081 47.1328 178.582 46.7695 179.584ZM57.1406 186.132C56.5488 186.132 56.2529 185.953 56.2529 185.596C56.2529 185.502 56.2822 185.417 56.3408 185.341C56.4053 185.259 56.4873 185.218 56.5869 185.218L57.0264 185.279C57.5068 185.279 57.7969 184.852 57.8965 183.996C57.9316 183.686 57.9492 183.308 57.9492 182.862V180.278C57.9492 179.165 57.8203 178.438 57.5625 178.099C57.4746 177.981 57.3486 177.899 57.1846 177.853C57.0264 177.806 56.8682 177.765 56.71 177.729C56.5576 177.694 56.4229 177.653 56.3057 177.606C56.1943 177.56 56.1387 177.486 56.1387 177.387C56.1387 177.123 56.3291 176.991 56.71 176.991L58.002 177.097L59.3291 176.991C59.5693 176.991 59.7246 177.035 59.7949 177.123C59.9355 177.287 60.0117 177.586 60.0234 178.02C61.0723 177.17 62.168 176.745 63.3105 176.745C64.0078 176.745 64.6055 176.883 65.1035 177.158C65.6074 177.434 65.9883 177.814 66.2461 178.301C66.9844 177.586 67.8516 177.108 68.8477 176.868C69.1875 176.786 69.5713 176.745 69.999 176.745C70.4268 176.745 70.8428 176.818 71.2471 176.965C71.6572 177.111 72.0059 177.319 72.293 177.589C72.8848 178.151 73.1807 178.89 73.1807 179.804V182.862C73.1807 183.794 73.2334 184.397 73.3389 184.673C73.4443 184.942 73.5498 185.112 73.6553 185.183C73.7666 185.247 73.8926 185.279 74.0332 185.279L74.4902 185.218C74.584 185.218 74.6602 185.259 74.7188 185.341C74.7773 185.423 74.8066 185.499 74.8066 185.569C74.8066 185.64 74.792 185.707 74.7627 185.771C74.7393 185.83 74.6953 185.886 74.6309 185.938C74.4316 186.114 74.0566 186.17 73.5059 186.105L72.6885 186.018C72.5479 186.006 72.3896 186 72.2139 186L70.3594 186.132C69.7324 186.132 69.4189 185.953 69.4189 185.596C69.4189 185.502 69.4512 185.417 69.5156 185.341C69.5801 185.259 69.6621 185.218 69.7617 185.218L70.2188 185.279C70.5645 185.279 70.7988 185.098 70.9219 184.734C71.0332 184.406 71.0889 183.782 71.0889 182.862V180.155C71.0889 179.534 70.9336 179.051 70.623 178.705C70.3125 178.354 69.9023 178.178 69.3926 178.178C68.4375 178.178 67.4883 178.614 66.5449 179.487C66.5859 179.745 66.6064 179.971 66.6064 180.164V182.862C66.6064 183.8 66.6592 184.403 66.7646 184.673C66.876 184.942 66.9844 185.112 67.0898 185.183C67.1953 185.247 67.3184 185.279 67.459 185.279L67.9248 185.218C68.0244 185.218 68.1006 185.259 68.1533 185.341C68.2119 185.423 68.2412 185.499 68.2412 185.569C68.2412 185.64 68.2266 185.707 68.1973 185.771C68.1738 185.83 68.1299 185.886 68.0654 185.938C67.8545 186.108 67.4795 186.164 66.9404 186.105L66.123 186.018C65.9766 186.006 65.8154 186 65.6396 186L63.7852 186.132C63.2812 186.132 62.9824 186.012 62.8887 185.771C62.8652 185.707 62.8535 185.64 62.8535 185.569C62.8535 185.493 62.8828 185.417 62.9414 185.341C63.0059 185.259 63.0908 185.218 63.1963 185.218L63.6533 185.279C64.0049 185.279 64.2393 185.104 64.3564 184.752C64.4678 184.418 64.5234 183.788 64.5234 182.862V180.155C64.5234 179.534 64.3652 179.051 64.0488 178.705C63.7383 178.354 63.3047 178.178 62.748 178.178C61.8809 178.178 60.9727 178.6 60.0234 179.443V182.862C60.0234 183.853 60.082 184.474 60.1992 184.726C60.3223 184.978 60.4453 185.133 60.5684 185.191C60.6973 185.25 60.8467 185.279 61.0166 185.279L61.4561 185.218C61.5557 185.218 61.6318 185.259 61.6846 185.341C61.7432 185.417 61.7725 185.502 61.7725 185.596C61.7725 185.953 61.4678 186.132 60.8584 186.132C60.5537 186.132 60.2461 186.108 59.9355 186.062C59.6309 186.021 59.335 186 59.0479 186C58.7607 186 58.5293 186.006 58.3535 186.018C58.1836 186.035 58.0283 186.05 57.8877 186.062C57.7471 186.079 57.6182 186.094 57.501 186.105C57.3838 186.123 57.2637 186.132 57.1406 186.132ZM77.1973 185.728C77.0742 185.587 76.9834 185.432 76.9248 185.262C76.8662 185.092 76.8369 184.919 76.8369 184.743C76.8369 184.567 76.8721 184.389 76.9424 184.207C77.0186 184.025 77.127 183.864 77.2676 183.724C77.5605 183.419 77.9297 183.267 78.375 183.267C78.832 183.267 79.1982 183.434 79.4736 183.768C79.7139 184.061 79.834 184.406 79.834 184.805C79.834 185.15 79.6992 185.464 79.4297 185.745C79.125 186.056 78.7998 186.211 78.4541 186.211C78.1143 186.211 77.8506 186.164 77.6631 186.07C77.4756 185.982 77.3203 185.868 77.1973 185.728ZM77.1973 179.725C77.0742 179.584 76.9834 179.429 76.9248 179.259C76.8662 179.089 76.8369 178.916 76.8369 178.74C76.8369 178.564 76.8721 178.386 76.9424 178.204C77.0186 178.022 77.127 177.861 77.2676 177.721C77.5605 177.416 77.9297 177.264 78.375 177.264C78.832 177.264 79.1982 177.431 79.4736 177.765C79.7139 178.058 79.834 178.403 79.834 178.802C79.834 179.147 79.6992 179.461 79.4297 179.742C79.125 180.053 78.7998 180.208 78.4541 180.208C78.1143 180.208 77.8506 180.164 77.6631 180.076C77.4756 179.982 77.3203 179.865 77.1973 179.725Z" fill="black"/>
<path d="M43.2969 217.258C42.8438 217.148 42.4922 216.969 42.2422 216.719C42.0078 216.453 41.8281 216.148 41.7031 215.805C41.5938 215.445 41.5156 215.055 41.4688 214.633C41.4375 214.211 41.3984 213.773 41.3516 213.32C41.4141 213.117 41.4922 212.945 41.5859 212.805C41.6953 212.664 41.7422 212.469 41.7266 212.219C41.8984 211.719 42.0547 211.234 42.1953 210.766C42.3359 210.297 42.4297 209.812 42.4766 209.312C42.5703 209.172 42.6641 209.078 42.7578 209.031C42.8828 208.141 42.8984 207.227 42.8047 206.289C42.7109 205.352 42.5547 204.484 42.3359 203.688C42.3516 203.516 42.375 203.391 42.4062 203.312C42.4375 203.219 42.4375 203.141 42.4062 203.078C42.375 202.938 42.4219 202.867 42.5469 202.867C42.6719 202.867 42.7969 202.867 42.9219 202.867C42.9219 202.586 42.8672 202.312 42.7578 202.047C42.6641 201.766 42.5703 201.445 42.4766 201.086C42.6016 200.805 42.6875 200.531 42.7344 200.266C42.7812 200 42.8672 199.758 42.9922 199.539C43.4922 199.695 43.9844 199.875 44.4688 200.078C44.9531 200.281 45.4297 200.484 45.8984 200.688C46.3672 200.875 46.8281 201.062 47.2812 201.25C47.7344 201.422 48.1797 201.562 48.6172 201.672C49.2891 202.156 49.9766 202.641 50.6797 203.125C51.3984 203.594 52.0469 204.117 52.625 204.695C53.2188 205.258 53.7109 205.906 54.1016 206.641C54.4922 207.375 54.7188 208.242 54.7812 209.242C54.75 209.336 54.7266 209.414 54.7109 209.477C54.6953 209.539 54.6797 209.602 54.6641 209.664C54.6484 209.727 54.6406 209.797 54.6406 209.875C54.6406 209.953 54.6406 210.062 54.6406 210.203C54.0781 211.188 53.3672 212.016 52.5078 212.688C51.6484 213.359 50.7109 213.953 49.6953 214.469C48.6797 214.984 47.6172 215.461 46.5078 215.898C45.4141 216.32 44.3438 216.773 43.2969 217.258ZM45.5938 203.969C45.4531 203.969 45.3516 204 45.2891 204.062C45.4766 204.766 45.6172 205.43 45.7109 206.055C45.8047 206.68 45.8516 207.305 45.8516 207.93C45.8672 208.555 45.8359 209.195 45.7578 209.852C45.6797 210.508 45.5703 211.219 45.4297 211.984C45.6328 211.969 45.8125 211.93 45.9688 211.867C46.125 211.805 46.2812 211.734 46.4375 211.656C46.6094 211.578 46.7812 211.508 46.9531 211.445C47.1406 211.383 47.3516 211.344 47.5859 211.328C47.6484 211.203 47.7266 211.109 47.8203 211.047C47.9297 210.969 48.0234 210.891 48.1016 210.812C48.4922 210.656 48.8828 210.492 49.2734 210.32C49.6641 210.148 50.0234 209.953 50.3516 209.734C50.6797 209.516 50.9766 209.266 51.2422 208.984C51.5078 208.703 51.7266 208.367 51.8984 207.977C51.7734 207.742 51.6172 207.547 51.4297 207.391C51.2578 207.219 51.0703 207.055 50.8672 206.898C50.6797 206.727 50.4922 206.555 50.3047 206.383C50.1328 206.195 49.9922 205.984 49.8828 205.75C49.6328 205.719 49.4141 205.656 49.2266 205.562C49.0391 205.453 48.8594 205.352 48.6875 205.258C48.5156 205.148 48.3281 205.047 48.125 204.953C47.9375 204.859 47.7109 204.805 47.4453 204.789C47.0391 204.57 46.6719 204.422 46.3438 204.344C46.0156 204.25 45.7656 204.125 45.5938 203.969ZM58.9062 214.562C58.7344 215.188 58.5781 215.664 58.4375 215.992C58.3125 216.305 58.1172 216.633 57.8516 216.977C57.6484 216.945 57.5078 216.969 57.4297 217.047C57.3516 217.125 57.2656 217.195 57.1719 217.258C57.0312 217.289 56.9297 217.289 56.8672 217.258C56.8047 217.227 56.75 217.188 56.7031 217.141C56.6562 217.109 56.5938 217.07 56.5156 217.023C56.4531 216.992 56.3516 216.977 56.2109 216.977C56.1797 216.852 56.1406 216.734 56.0938 216.625C56.0625 216.516 55.9609 216.477 55.7891 216.508C55.8203 216.383 55.8281 216.281 55.8125 216.203C55.7969 216.109 55.7734 216.031 55.7422 215.969C55.7266 215.891 55.7109 215.82 55.6953 215.758C55.6797 215.68 55.6875 215.586 55.7188 215.477C55.6406 215.477 55.5781 215.422 55.5312 215.312C55.4844 215.203 55.4297 215.094 55.3672 214.984C55.4141 214.703 55.4609 214.438 55.5078 214.188C55.5547 213.938 55.6094 213.703 55.6719 213.484C55.75 213.266 55.8125 213.047 55.8594 212.828C55.9062 212.609 55.8828 212.383 55.7891 212.148C55.8516 212.195 55.8984 212.188 55.9297 212.125C55.9609 212.047 55.9844 211.953 56 211.844C56.0156 211.719 56.0234 211.602 56.0234 211.492C56.0234 211.367 56.0156 211.266 56 211.188C56.1562 210.781 56.2812 210.367 56.375 209.945C56.4844 209.508 56.5781 209.078 56.6562 208.656C56.75 208.234 56.8438 207.82 56.9375 207.414C57.0312 207.008 57.1562 206.633 57.3125 206.289C57.4844 206.258 57.6719 206.281 57.875 206.359C58.0938 206.422 58.2266 206.508 58.2734 206.617C58.6797 206.305 59.0391 205.93 59.3516 205.492C59.6641 205.039 59.9844 204.602 60.3125 204.18C60.6406 203.758 61 203.383 61.3906 203.055C61.7969 202.727 62.3047 202.531 62.9141 202.469C63.2266 202.703 63.5703 202.945 63.9453 203.195C64.3359 203.43 64.6562 203.742 64.9062 204.133C65.0312 204.195 65.1328 204.266 65.2109 204.344C65.3047 204.406 65.4141 204.477 65.5391 204.555V204.836C65.7266 205.008 65.875 205.211 65.9844 205.445C66.1094 205.664 66.2188 205.906 66.3125 206.172C66.4062 206.422 66.5 206.68 66.5938 206.945C66.6875 207.195 66.7969 207.438 66.9219 207.672C66.8906 207.75 66.875 207.82 66.875 207.883C66.875 207.93 66.8828 207.984 66.8984 208.047C66.9297 208.109 66.9531 208.172 66.9688 208.234C66.9844 208.297 66.9844 208.383 66.9688 208.492C66.9219 209.18 66.6953 209.734 66.2891 210.156C65.8984 210.578 65.4219 210.93 64.8594 211.211C64.2969 211.477 63.6953 211.703 63.0547 211.891C62.4141 212.078 61.8359 212.281 61.3203 212.5C61.3203 212.562 61.3438 212.594 61.3906 212.594C61.4531 212.594 61.4766 212.633 61.4609 212.711C61.8359 212.945 62.1328 213.133 62.3516 213.273C62.5703 213.414 62.7734 213.531 62.9609 213.625C63.1641 213.719 63.375 213.805 63.5938 213.883C63.8281 213.945 64.1484 214.023 64.5547 214.117C64.9609 214.211 65.2734 214.289 65.4922 214.352C65.7266 214.398 65.9375 214.445 66.125 214.492C66.3125 214.523 66.5 214.555 66.6875 214.586C66.8906 214.602 67.1719 214.625 67.5312 214.656C67.6719 214.797 67.7891 214.969 67.8828 215.172C67.9922 215.359 68.0625 215.555 68.0938 215.758C68.125 215.945 68.1328 216.133 68.1172 216.32C68.1016 216.492 68.0469 216.633 67.9531 216.742C67.9688 216.789 68 216.812 68.0469 216.812C68.1094 216.797 68.1719 216.797 68.2344 216.812C68.1406 216.875 68.0625 216.953 68 217.047C67.9375 217.141 67.875 217.234 67.8125 217.328C67.75 217.422 67.6797 217.5 67.6016 217.562C67.5234 217.641 67.4141 217.688 67.2734 217.703C66.7891 217.891 66.1797 217.898 65.4453 217.727C64.7109 217.57 63.7812 217.273 62.6562 216.836C62.0938 216.617 61.6328 216.43 61.2734 216.273C60.9297 216.102 60.625 215.938 60.3594 215.781C60.1094 215.609 59.875 215.43 59.6562 215.242C59.4531 215.055 59.2031 214.828 58.9062 214.562ZM62.2578 206.523C62.0859 206.773 61.8906 207 61.6719 207.203C61.4688 207.406 61.2656 207.617 61.0625 207.836C60.875 208.039 60.7031 208.273 60.5469 208.539C60.3906 208.789 60.2812 209.086 60.2188 209.43C60.7656 209.367 61.3359 209.219 61.9297 208.984C62.5234 208.734 63.0859 208.5 63.6172 208.281C63.5547 207.797 63.3828 207.406 63.1016 207.109C62.8359 206.812 62.5547 206.617 62.2578 206.523ZM81.1953 203.805C81.2109 203.914 81.2109 204 81.1953 204.062C81.1953 204.109 81.1875 204.156 81.1719 204.203C81.1719 204.25 81.1719 204.305 81.1719 204.367C81.1719 204.414 81.1875 204.492 81.2188 204.602C80.8906 205.133 80.5078 205.5 80.0703 205.703C79.6484 205.891 79.1875 206.031 78.6875 206.125C78.1875 206.203 77.6719 206.289 77.1406 206.383C76.625 206.477 76.1094 206.68 75.5938 206.992C75.3906 206.914 75.2031 206.914 75.0312 206.992C74.875 207.07 74.6406 207.094 74.3281 207.062C74.2344 207.156 74.1172 207.227 73.9766 207.273C73.8359 207.305 73.6953 207.344 73.5547 207.391C73.6172 207.531 73.6406 207.68 73.625 207.836C73.625 207.977 73.6484 208.094 73.6953 208.188C74.2422 208.234 74.8438 208.227 75.5 208.164C76.1719 208.102 76.8281 208.062 77.4688 208.047C77.4844 208.125 77.4766 208.18 77.4453 208.211C77.4141 208.227 77.4062 208.266 77.4219 208.328C77.5312 208.406 77.6406 208.508 77.75 208.633C77.8594 208.742 77.9688 208.852 78.0781 208.961C78.1875 209.07 78.2969 209.164 78.4062 209.242C78.5312 209.305 78.6719 209.328 78.8281 209.312C78.8906 209.438 78.9297 209.578 78.9453 209.734C78.9766 209.875 78.9609 210.023 78.8984 210.18C78.6484 210.352 78.3984 210.531 78.1484 210.719C77.8984 210.891 77.6328 211.047 77.3516 211.188C77.0859 211.328 76.7969 211.445 76.4844 211.539C76.1875 211.617 75.8516 211.648 75.4766 211.633C75.3984 211.633 75.3359 211.633 75.2891 211.633C75.2578 211.633 75.2109 211.609 75.1484 211.562C75.0234 211.641 74.8438 211.664 74.6094 211.633C74.3906 211.602 74.2188 211.625 74.0938 211.703C73.9219 211.625 73.7109 211.594 73.4609 211.609C73.2266 211.609 73.0156 211.578 72.8281 211.516C72.5781 211.844 72.3516 212.195 72.1484 212.57C71.9453 212.945 71.7656 213.344 71.6094 213.766C72.1406 213.844 72.5781 213.875 72.9219 213.859C73.2812 213.844 73.6172 213.82 73.9297 213.789C74.2422 213.742 74.5625 213.703 74.8906 213.672C75.2188 213.625 75.6328 213.609 76.1328 213.625C76.4453 213.453 76.8125 213.344 77.2344 213.297C77.6719 213.234 78.0703 213.141 78.4297 213.016C78.5547 213.062 78.6641 213.148 78.7578 213.273C78.8516 213.383 78.9375 213.492 79.0156 213.602C79.1094 213.695 79.2031 213.781 79.2969 213.859C79.3906 213.938 79.5078 213.969 79.6484 213.953C79.7109 214.016 79.75 214.094 79.7656 214.188C79.7969 214.266 79.8203 214.344 79.8359 214.422C79.8516 214.5 79.875 214.57 79.9062 214.633C79.9531 214.68 80.0234 214.695 80.1172 214.68C79.8828 215.195 79.6094 215.594 79.2969 215.875C79 216.141 78.6562 216.344 78.2656 216.484C77.875 216.625 77.4375 216.734 76.9531 216.812C76.4844 216.891 75.9609 216.984 75.3828 217.094C75.2422 217.125 75.125 217.117 75.0312 217.07C74.9375 217.039 74.8281 217.023 74.7031 217.023C74.3438 217.102 73.9141 217.172 73.4141 217.234C72.9141 217.297 72.4062 217.32 71.8906 217.305C71.375 217.289 70.8828 217.219 70.4141 217.094C69.9453 216.984 69.5625 216.781 69.2656 216.484C69.1406 216.375 69.0547 216.25 69.0078 216.109C68.9766 215.953 68.875 215.836 68.7031 215.758C68.6875 215.555 68.6562 215.328 68.6094 215.078C68.5625 214.828 68.5156 214.57 68.4688 214.305C68.4219 214.023 68.3828 213.75 68.3516 213.484C68.3359 213.219 68.3516 212.977 68.3984 212.758C68.4453 212.523 68.5391 212.312 68.6797 212.125C68.8359 211.938 68.8906 211.734 68.8438 211.516C68.9219 211.5 68.9688 211.461 68.9844 211.398C69 211.32 69.0625 211.289 69.1719 211.305C69.2656 211.023 69.3672 210.758 69.4766 210.508C69.5859 210.258 69.6953 210.016 69.8047 209.781C69.9297 209.547 70.0469 209.312 70.1562 209.078C70.2812 208.828 70.3984 208.555 70.5078 208.258C70.2891 208.055 70.125 207.836 70.0156 207.602C69.9219 207.352 69.8516 207.109 69.8047 206.875C69.7578 206.625 69.7188 206.375 69.6875 206.125C69.6562 205.859 69.6016 205.594 69.5234 205.328C69.6797 205.094 69.8672 204.906 70.0859 204.766C70.3203 204.609 70.5703 204.484 70.8359 204.391C71.1016 204.297 71.3906 204.219 71.7031 204.156C72.0156 204.094 72.3438 204.023 72.6875 203.945C73.3125 203.742 73.8672 203.586 74.3516 203.477C74.8516 203.367 75.3359 203.281 75.8047 203.219C76.2891 203.141 76.7891 203.07 77.3047 203.008C77.8203 202.945 78.4062 202.852 79.0625 202.727C79.2031 202.867 79.3359 202.938 79.4609 202.938C79.5234 202.797 79.5938 202.758 79.6719 202.82C79.7656 202.867 79.8047 202.82 79.7891 202.68C79.9453 202.945 80.1406 203.172 80.375 203.359C80.625 203.531 80.8984 203.68 81.1953 203.805ZM93.8281 217.305C93.2812 217.055 92.8438 216.688 92.5156 216.203C92.2031 215.719 91.8906 215.18 91.5781 214.586C91.5312 214.492 91.4844 214.398 91.4375 214.305C91.3906 214.211 91.3438 214.125 91.2969 214.047L90.9688 213.438L90.7812 213.062L90.5 213.32L90.0781 213.695L89.8438 213.93C89.4375 214.305 89.0234 214.68 88.6016 215.055C88.1953 215.414 87.7578 215.742 87.2891 216.039C86.8359 216.32 86.3516 216.555 85.8359 216.742C85.3359 216.914 84.7891 217.008 84.1953 217.023L83.6797 216.766C83.3828 216.609 83.1328 216.469 82.9297 216.344C82.7266 216.219 82.4922 216.023 82.2266 215.758C82.1484 215.617 82.0781 215.484 82.0156 215.359C81.9688 215.234 81.9141 215.109 81.8516 214.984C81.6797 214.672 81.5391 214.391 81.4297 214.141C81.3203 213.891 81.2109 213.609 81.1016 213.297C81.1484 213.078 81.2188 212.711 81.3125 212.195C81.4062 211.664 81.5156 211.086 81.6406 210.461C81.7812 209.836 81.9219 209.211 82.0625 208.586C82.2188 207.945 82.375 207.391 82.5312 206.922C82.6719 206.516 82.8281 206.086 83 205.633C83.1875 205.18 83.3828 204.766 83.5859 204.391C83.8047 204 84.0391 203.672 84.2891 203.406C84.5391 203.125 84.8047 202.961 85.0859 202.914C85.1641 203.023 85.25 203.102 85.3438 203.148C85.4375 203.195 85.5234 203.234 85.6016 203.266C85.8203 203.578 86.0312 203.844 86.2344 204.062C86.4531 204.281 86.7031 204.5 86.9844 204.719C86.9062 205.109 86.7891 205.547 86.6328 206.031C86.4922 206.5 86.3359 206.977 86.1641 207.461C86.0078 207.93 85.8516 208.391 85.6953 208.844C85.5391 209.297 85.4141 209.688 85.3203 210.016C85.2266 210.281 85.1484 210.578 85.0859 210.906C84.9453 211.484 84.8125 212.273 84.6875 213.273C84.875 213.227 85.0781 213.125 85.2969 212.969C85.5156 212.812 85.7266 212.648 85.9297 212.477C86.1641 212.289 86.3984 212.078 86.6328 211.844C86.9297 211.547 87.1797 211.273 87.3828 211.023C87.5859 210.773 87.7734 210.516 87.9453 210.25C88.1328 209.984 88.3203 209.695 88.5078 209.383C88.6953 209.055 88.9219 208.672 89.1875 208.234C89.4219 207.859 89.6641 207.461 89.9141 207.039C90.1797 206.602 90.4375 206.188 90.6875 205.797C90.9531 205.391 91.2109 205.023 91.4609 204.695C91.7109 204.367 91.9375 204.109 92.1406 203.922C92.2656 204.078 92.4219 204.227 92.6094 204.367C92.8125 204.508 93.0234 204.617 93.2422 204.695C93.3359 204.836 93.4219 204.969 93.5 205.094C93.5938 205.203 93.6797 205.305 93.7578 205.398C93.8516 205.539 93.9375 205.672 94.0156 205.797C94.1094 205.922 94.1953 206.047 94.2734 206.172C94.2578 206.281 94.2344 206.422 94.2031 206.594C94.1719 206.766 94.1328 206.953 94.0859 207.156C94.0547 207.359 94.0156 207.57 93.9688 207.789C93.9219 207.992 93.875 208.188 93.8281 208.375C93.7031 208.969 93.6094 209.414 93.5469 209.711C93.4844 210.008 93.4375 210.242 93.4062 210.414C93.3906 210.586 93.375 210.734 93.3594 210.859C93.3594 210.969 93.3594 211.125 93.3594 211.328C93.3438 211.484 93.3516 211.641 93.3828 211.797C93.3984 211.938 93.4297 212.086 93.4766 212.242C93.5234 212.398 93.5859 212.539 93.6641 212.664L94.6016 211.938C94.8672 211.734 95.1172 211.461 95.3516 211.117C95.6016 210.758 95.8359 210.352 96.0547 209.898C96.2891 209.43 96.5156 208.922 96.7344 208.375C96.9531 207.828 97.1719 207.273 97.3906 206.711C97.7188 205.883 98.0469 205.078 98.375 204.297C98.7188 203.516 99.0469 202.914 99.3594 202.492C99.7031 202.711 100 202.938 100.25 203.172C100.516 203.391 100.742 203.633 100.93 203.898C101.117 204.164 101.266 204.469 101.375 204.812C101.5 205.156 101.586 205.562 101.633 206.031C101.352 206.578 101.078 207.141 100.812 207.719C100.562 208.297 100.32 208.875 100.086 209.453C99.7734 210.203 99.4453 210.953 99.1016 211.703C98.7734 212.453 98.4062 213.172 98 213.859C97.5938 214.531 97.1406 215.156 96.6406 215.734C96.1406 216.297 95.5625 216.773 94.9062 217.164C94.7344 217.117 94.5859 217.094 94.4609 217.094C94.2109 217.094 94 217.164 93.8281 217.305Z" fill="black"/>
<path d="M30.7734 124.172C30.75 123.984 30.7031 123.82 30.6328 123.68C30.5859 123.516 30.5273 123.34 30.457 123.152C30.3398 122.871 30.2344 122.566 30.1406 122.238C30.0469 121.91 30 121.523 30 121.078C30.0469 120.844 30.1055 120.68 30.1758 120.586C30.2461 120.469 30.3164 120.375 30.3867 120.305L30.5273 119.672H31.0547C31.2422 119.695 31.4297 119.707 31.6172 119.707C31.8281 119.707 32.0273 119.707 32.2148 119.707C33.1055 119.707 34.0195 119.672 34.957 119.602C35.8945 119.531 36.8555 119.449 37.8398 119.355C38.918 119.215 40.0781 119.109 41.3203 119.039C41.4375 118.781 41.5078 118.617 41.5312 118.547C41.5781 118.477 41.625 118.395 41.6719 118.301L42.0586 118.09C42.5977 118.066 42.9727 118.137 43.1836 118.301C43.3945 118.441 43.5586 118.582 43.6758 118.723C44.2852 118.676 44.9062 118.617 45.5391 118.547C46.1719 118.453 46.8281 118.359 47.5078 118.266C48.4453 118.148 49.3945 118.031 50.3555 117.914C51.3164 117.797 52.2539 117.738 53.168 117.738C53.5664 117.738 53.9414 117.75 54.293 117.773C54.6445 117.797 54.9844 117.832 55.3125 117.879L55.7344 118.195C55.8281 118.359 55.9453 118.512 56.0859 118.652C56.2266 118.793 56.3906 118.934 56.5781 119.074C56.9297 119.355 57.2695 119.707 57.5977 120.129C57.9492 120.551 58.0781 121.172 57.9844 121.992L57.8086 122.344C57.7148 122.438 57.5977 122.531 57.457 122.625L57.1055 123.082H56.7188C56.4844 123.082 56.3086 123.105 56.1914 123.152C56.0742 123.176 55.9336 123.223 55.7695 123.293C55.6758 123.34 55.5703 123.387 55.4531 123.434C55.3359 123.457 55.207 123.492 55.0664 123.539C54.8086 123.516 54.6094 123.504 54.4688 123.504C54.3281 123.504 54.1641 123.504 53.9766 123.504C53.2734 123.504 52.5117 123.551 51.6914 123.645C50.8711 123.738 50.0742 123.844 49.3008 123.961C48.7383 124.031 48.1992 124.102 47.6836 124.172C47.168 124.219 46.6992 124.266 46.2773 124.312C46.043 124.922 45.832 125.461 45.6445 125.93C45.457 126.398 45.2578 126.867 45.0469 127.336C44.8359 127.805 44.6367 128.285 44.4492 128.777C44.2617 129.246 44.0859 129.773 43.9219 130.359C43.6406 130.781 43.4062 131.191 43.2188 131.59C43.0312 131.965 42.8789 132.398 42.7617 132.891C42.4102 133.289 42.1523 133.723 41.9883 134.191C41.8477 134.66 41.7188 135.059 41.6016 135.387L41.4609 135.914C41.2969 136.078 41.1914 136.207 41.1445 136.301C41.1211 136.395 41.0625 136.5 40.9688 136.617C40.8984 136.922 40.8047 137.215 40.6875 137.496C40.6406 137.613 40.5938 137.742 40.5469 137.883C40.5 138 40.4883 138.094 40.5117 138.164C40.4648 138.422 40.3945 138.621 40.3008 138.762C40.3008 138.902 40.2891 139.043 40.2656 139.184C40.2422 139.324 40.2188 139.465 40.1953 139.605C40.1484 139.77 40.1133 139.922 40.0898 140.062C40.0664 140.18 40.0781 140.297 40.125 140.414C40.1953 140.508 40.2656 140.602 40.3359 140.695C40.4062 140.789 40.4648 140.906 40.5117 141.047C40.5586 141.094 40.6172 141.129 40.6875 141.152C40.7578 141.176 40.8164 141.211 40.8633 141.258C41.0508 141.422 41.2266 141.516 41.3906 141.539L41.7422 141.961C41.8828 142.805 41.7539 143.461 41.3555 143.93C40.9336 144.469 40.2305 144.738 39.2461 144.738L38.7539 144.703C38.5898 144.539 38.4961 144.434 38.4727 144.387C38.2617 144.293 38.0859 144.211 37.9453 144.141C37.8047 144.094 37.6758 143.988 37.5586 143.824C37.5117 143.777 37.4531 143.754 37.3828 143.754C37.3125 143.73 37.2539 143.695 37.207 143.648C36.9727 143.578 36.7852 143.496 36.6445 143.402L36.2578 143.191C36.2812 142.957 36.293 142.793 36.293 142.699C36.1055 142.441 35.9531 142.16 35.8359 141.855C35.7422 141.551 35.6602 141.234 35.5898 140.906C35.5195 140.648 35.4492 140.414 35.3789 140.203C35.332 139.992 35.25 139.805 35.1328 139.641C35.0859 138 35.2383 136.629 35.5898 135.527C35.9414 134.402 36.3281 133.312 36.75 132.258C36.9844 131.695 37.207 131.121 37.418 130.535C37.6289 129.949 37.8164 129.352 37.9805 128.742L38.3672 128.355C38.5312 128.215 38.6367 128.133 38.6836 128.109C38.6836 127.805 38.7422 127.512 38.8594 127.23C38.9766 126.926 39.1055 126.621 39.2461 126.316C39.3398 126.129 39.4219 125.941 39.4922 125.754C39.5859 125.566 39.6445 125.402 39.668 125.262C39.5039 125.262 39.3516 125.273 39.2109 125.297C39.0938 125.297 38.9648 125.309 38.8242 125.332C38.5195 125.402 38.2266 125.438 37.9453 125.438C37.7344 125.438 37.582 125.426 37.4883 125.402C37.3008 125.496 37.125 125.555 36.9609 125.578C36.7969 125.578 36.6328 125.578 36.4688 125.578H36.0469H35.625C35.3438 125.578 35.1211 125.613 34.957 125.684C34.6289 125.684 34.418 125.684 34.3242 125.684C34.2305 125.684 34.125 125.684 34.0078 125.684H33.5859H33.1641C32.9766 125.684 32.7656 125.672 32.5312 125.648C32.2969 125.602 32.0508 125.508 31.793 125.367L31.5469 125.086C31.4062 124.828 31.2773 124.688 31.1602 124.664L30.7734 124.559V124.172ZM71.2734 133.453C71.25 133.734 71.2734 134.004 71.3438 134.262C71.4141 134.52 71.4961 134.777 71.5898 135.035C71.707 135.27 71.8125 135.516 71.9062 135.773C72 136.031 72.0703 136.289 72.1172 136.547C72.1641 136.875 72.1641 137.238 72.1172 137.637C72.0703 138.012 71.9883 138.387 71.8711 138.762C71.7539 139.113 71.6016 139.441 71.4141 139.746C71.2266 140.027 71.0039 140.238 70.7461 140.379C70.418 140.801 70.0195 141.129 69.5508 141.363C69.082 141.598 68.6484 141.879 68.25 142.207C67.9922 142.371 67.6992 142.488 67.3711 142.559C67.0664 142.629 66.75 142.699 66.4219 142.77C66.1641 142.91 65.8594 143.062 65.5078 143.227C65.1562 143.367 64.793 143.508 64.418 143.648C64.043 143.766 63.668 143.859 63.293 143.93C62.918 143.977 62.5898 143.988 62.3086 143.965C61.6055 144.223 60.9141 144.387 60.2344 144.457C59.5781 144.551 58.8047 144.504 57.9141 144.316C57.0703 144.434 56.2852 144.398 55.5586 144.211C54.8555 144.023 54.2227 143.73 53.6602 143.332C53.1211 142.91 52.6406 142.418 52.2188 141.855C51.8203 141.27 51.4922 140.66 51.2344 140.027C51.0469 138.691 51.0938 137.484 51.375 136.406C51.6562 135.305 52.0547 134.297 52.5703 133.383C53.1094 132.445 53.7188 131.59 54.3984 130.816C55.0781 130.02 55.7344 129.246 56.3672 128.496C56.5078 128.543 56.6133 128.543 56.6836 128.496C56.7773 128.426 56.8594 128.344 56.9297 128.25C57 128.133 57.0703 128.027 57.1406 127.934C57.2344 127.84 57.3398 127.781 57.457 127.758C57.6211 127.406 57.8555 127.148 58.1602 126.984C58.4883 126.797 58.7461 126.539 58.9336 126.211C59.1445 126.164 59.3203 126.094 59.4609 126C59.6016 125.906 59.7305 125.801 59.8477 125.684C59.9883 125.566 60.1289 125.461 60.2695 125.367C60.4102 125.25 60.5742 125.168 60.7617 125.121V124.734C61.1836 124.547 61.4883 124.336 61.6758 124.102C61.8867 123.844 62.1328 123.539 62.4141 123.188C62.625 123.164 62.7891 123.152 62.9062 123.152C63.0469 123.152 63.2461 123.129 63.5039 123.082C63.6914 122.754 63.8555 122.508 63.9961 122.344C64.1602 122.18 64.3945 122.004 64.6992 121.816C64.9805 121.957 65.2852 122.051 65.6133 122.098C65.9648 122.145 66.2695 122.297 66.5273 122.555C66.5508 122.789 66.6211 122.977 66.7383 123.117C66.8555 123.234 66.9844 123.352 67.125 123.469C67.2656 123.562 67.3945 123.668 67.5117 123.785C67.6523 123.902 67.7461 124.066 67.793 124.277C67.8867 124.301 67.9453 124.289 67.9688 124.242C68.0156 124.195 68.0859 124.184 68.1797 124.207C68.25 124.535 68.332 124.758 68.4258 124.875C68.5195 124.969 68.6133 125.168 68.707 125.473C68.5898 125.707 68.4961 125.953 68.4258 126.211C68.3789 126.445 68.2383 126.621 68.0039 126.738C67.9805 126.902 68.0273 126.996 68.1445 127.02C68.2617 127.02 68.332 127.078 68.3555 127.195C68.3789 127.406 68.3438 127.559 68.25 127.652C68.8125 128.566 69.3164 129.539 69.7617 130.57C70.207 131.578 70.7109 132.539 71.2734 133.453ZM66.8789 136.793C66.9727 136.535 67.0898 136.324 67.2305 136.16C67.3945 135.996 67.4883 135.75 67.5117 135.422C67.3945 135.234 67.3242 135.094 67.3008 135C67.2773 134.883 67.2656 134.707 67.2656 134.473C66.75 133.746 66.3047 132.973 65.9297 132.152C65.5547 131.309 65.1328 130.523 64.6641 129.797C64.6172 129.891 64.5352 129.984 64.418 130.078C64.3008 130.172 64.1719 130.148 64.0312 130.008C63.9844 130.195 63.9023 130.336 63.7852 130.43C63.668 130.5 63.5391 130.535 63.3984 130.535C63.2578 130.512 63.1055 130.477 62.9414 130.43C62.8008 130.359 62.6719 130.277 62.5547 130.184C61.875 130.723 61.1953 131.25 60.5156 131.766C59.8359 132.281 59.2266 132.879 58.6875 133.559C58.5938 133.605 58.5352 133.629 58.5117 133.629C58.4883 133.605 58.418 133.617 58.3008 133.664C58.1133 134.109 57.8789 134.52 57.5977 134.895C57.3398 135.246 57.082 135.609 56.8242 135.984C56.5664 136.359 56.3438 136.758 56.1562 137.18C55.9688 137.602 55.8633 138.094 55.8398 138.656C56.2383 138.984 56.707 139.184 57.2461 139.254C57.7852 139.324 58.3359 139.336 58.8984 139.289C59.4844 139.242 60.0469 139.172 60.5859 139.078C61.1484 138.961 61.6641 138.902 62.1328 138.902C63.1172 138.668 63.9609 138.363 64.6641 137.988C65.3672 137.59 66.1055 137.191 66.8789 136.793ZM97.7461 143.367C97.5117 143.484 97.2891 143.59 97.0781 143.684C96.8906 143.777 96.668 143.824 96.4102 143.824C95.4961 143.145 95.0156 141.961 94.9688 140.273C94.9453 138.586 95.3086 136.441 96.0586 133.84C96.1758 133.77 96.2344 133.629 96.2344 133.418L95.918 133.066C95.8242 133.066 95.7305 133.078 95.6367 133.102C95.5664 133.125 95.5078 133.207 95.4609 133.348C94.8516 133.793 94.1836 134.262 93.457 134.754C92.7305 135.223 91.9688 135.668 91.1719 136.09C90.3984 136.488 89.6016 136.816 88.7812 137.074C87.9844 137.332 87.1992 137.461 86.4258 137.461C84.457 137.461 82.9805 136.465 81.9961 134.473L81.7148 133.945L81.4336 134.402C81.3633 134.496 81.2578 134.695 81.1172 135C80.9766 135.281 80.8359 135.609 80.6953 135.984C80.5547 136.359 80.4258 136.746 80.3086 137.145C80.2148 137.52 80.1797 137.848 80.2031 138.129C79.9922 138.34 79.7695 138.586 79.5352 138.867C79.3008 139.148 79.125 139.465 79.0078 139.816C78.9609 140.004 78.9844 140.18 79.0781 140.344C79.0312 140.555 78.9258 140.719 78.7617 140.836C78.668 140.953 78.5625 141.07 78.4453 141.188C78.3516 141.281 78.2695 141.387 78.1992 141.504C78.1523 141.621 78.1172 141.738 78.0938 141.855C78.0938 141.973 78.082 142.09 78.0586 142.207C78.0586 142.371 78.0352 142.523 77.9883 142.664C77.5898 143.484 77.2734 144.012 77.0391 144.246C76.8047 144.504 76.4883 144.633 76.0898 144.633C75.9023 144.633 75.5977 144.598 75.1758 144.527C74.8711 144.199 74.5898 143.754 74.332 143.191C74.0977 142.605 73.9102 141.984 73.7695 141.328C73.6523 140.672 73.5938 140.016 73.5938 139.359C73.6172 138.68 73.7344 138.094 73.9453 137.602C73.9453 137.578 74.0391 137.344 74.2266 136.898C74.4141 136.453 74.6484 135.879 74.9297 135.176C75.2344 134.473 75.5742 133.699 75.9492 132.855C76.3242 131.988 76.6992 131.156 77.0742 130.359C77.4492 129.539 77.8008 128.789 78.1289 128.109C78.4805 127.43 78.7734 126.914 79.0078 126.562C79.1953 126.281 79.3594 126.023 79.5 125.789C79.6641 125.531 79.8164 125.285 79.957 125.051C80.3789 124.324 80.7773 123.727 81.1523 123.258C81.5508 122.766 82.125 122.379 82.875 122.098C83.3906 122.309 83.7656 122.555 84 122.836L84.0703 123.223C84.1641 123.457 84.3047 123.574 84.4922 123.574C84.75 123.645 84.9609 123.715 85.125 123.785C85.3125 123.832 85.5117 123.879 85.7227 123.926C85.8867 124.113 86.0391 124.336 86.1797 124.594C86.3672 124.875 86.543 125.156 86.707 125.438C86.8945 125.695 87.0352 125.965 87.1289 126.246C87.2461 126.504 87.3047 126.773 87.3047 127.055C87.3281 127.336 87.2812 127.629 87.1641 127.934L87.1992 128.285C87.3164 128.496 87.3398 128.789 87.2695 129.164C87.2461 129.328 87.2344 129.504 87.2344 129.691C87.2344 129.855 87.2578 130.043 87.3047 130.254C87.7266 130.582 88.1016 130.746 88.4297 130.746C88.8047 130.746 89.1445 130.664 89.4492 130.5C89.7773 130.312 90.082 130.125 90.3633 129.938C90.5508 129.797 90.7383 129.68 90.9258 129.586C91.1133 129.469 91.3008 129.398 91.4883 129.375C91.9102 128.977 92.2852 128.625 92.6133 128.32C92.9648 128.016 93.3281 127.711 93.7031 127.406C94.4062 126.844 95.0859 126.234 95.7422 125.578C96.3984 124.922 96.9258 124.102 97.3242 123.117C97.5586 122.977 97.8047 122.906 98.0625 122.906C98.3203 122.906 98.5898 122.965 98.8711 123.082C99.1523 123.199 99.4219 123.316 99.6797 123.434C99.75 123.48 99.8086 123.516 99.8555 123.539C99.9258 123.562 99.9844 123.586 100.031 123.609C100.031 123.844 100.125 124.043 100.312 124.207C100.406 124.277 100.465 124.324 100.488 124.348C100.512 124.371 100.547 124.395 100.594 124.418C100.945 124.605 101.168 124.793 101.262 124.98C101.426 125.52 101.719 125.93 102.141 126.211C102.094 126.445 102.094 126.668 102.141 126.879C102.211 127.066 102.293 127.266 102.387 127.477C102.41 127.547 102.434 127.617 102.457 127.688C102.48 127.758 102.516 127.84 102.562 127.934L101.895 127.863L102 128.531C102.047 128.859 102.012 129.223 101.895 129.621C101.801 130.02 101.684 130.336 101.543 130.57C101.566 131.18 101.578 131.66 101.578 132.012C101.602 132.34 101.59 132.656 101.543 132.961C101.496 133.242 101.426 133.512 101.332 133.77C101.262 134.027 101.156 134.309 101.016 134.613C101.109 136.113 100.934 137.484 100.488 138.727C100.066 139.945 99.6211 141.094 99.1523 142.172C99.1055 142.289 99.0469 142.406 98.9766 142.523C98.9297 142.641 98.8828 142.758 98.8359 142.875C98.625 142.945 98.4375 143.027 98.2734 143.121C98.1094 143.191 97.9336 143.273 97.7461 143.367ZM112.441 119.812C112.441 120.023 112.406 120.281 112.336 120.586C112.289 120.891 112.242 121.195 112.195 121.5C112.148 121.805 112.137 122.086 112.16 122.344C112.184 122.578 112.289 122.73 112.477 122.801C112.055 124.043 111.762 125.086 111.598 125.93C111.457 126.773 111.328 127.582 111.211 128.355C111.117 129.105 110.988 129.902 110.824 130.746C110.66 131.59 110.367 132.621 109.945 133.84C109.688 134.59 109.371 135.117 108.996 135.422C108.621 135.703 108.223 135.844 107.801 135.844C107.379 135.844 106.945 135.727 106.5 135.492C106.055 135.258 105.645 135 105.27 134.719C105.199 134.273 105.188 133.734 105.234 133.102C105.305 132.445 105.387 131.766 105.48 131.062C105.574 130.359 105.668 129.691 105.762 129.059C105.855 128.402 105.926 127.852 105.973 127.406C106.207 127.148 106.371 126.938 106.465 126.773C106.559 126.609 106.617 126.434 106.641 126.246C106.688 126.059 106.723 125.824 106.746 125.543C106.77 125.262 106.828 124.863 106.922 124.348C106.969 124.09 106.945 123.867 106.852 123.68C106.781 123.469 106.77 123.27 106.816 123.082C106.863 122.988 106.934 122.918 107.027 122.871C107.145 122.824 107.215 122.742 107.238 122.625C107.332 122.32 107.355 122.086 107.309 121.922C107.262 121.734 107.297 121.512 107.414 121.254C107.531 121.066 107.672 120.773 107.836 120.375C108.023 119.953 108.094 119.52 108.047 119.074C108.258 118.91 108.457 118.723 108.645 118.512C108.832 118.301 109.02 118.113 109.207 117.949C109.418 117.762 109.641 117.609 109.875 117.492C110.133 117.375 110.438 117.316 110.789 117.316C110.977 117.574 111.117 117.82 111.211 118.055C111.305 118.289 111.387 118.512 111.457 118.723C111.551 118.934 111.668 119.133 111.809 119.32C111.949 119.508 112.16 119.672 112.441 119.812ZM108.961 139.816C109.008 140.004 109.043 140.18 109.066 140.344C109.09 140.508 109.113 140.684 109.137 140.871C108.996 141.363 108.844 141.809 108.68 142.207C108.609 142.371 108.562 142.477 108.539 142.523C108.516 142.57 108.504 142.605 108.504 142.629C108.504 142.652 108.516 142.688 108.539 142.734C108.562 142.758 108.574 142.852 108.574 143.016L108.398 143.438C108.281 143.602 108.141 143.73 107.977 143.824C107.836 143.918 107.684 144 107.52 144.07C107.449 144.117 107.367 144.152 107.273 144.176C107.203 144.223 107.145 144.27 107.098 144.316L106.992 144.738L106.5 144.809C106.125 144.902 105.785 144.949 105.48 144.949H105.094C104.812 144.691 104.59 144.492 104.426 144.352C104.262 144.211 104.074 144.082 103.863 143.965C103.605 143.52 103.453 143.133 103.406 142.805C103.359 142.5 103.301 142.301 103.23 142.207L102.738 141.715L103.16 141.398L102.738 140.73C103.02 140.52 103.23 140.367 103.371 140.273C103.512 140.18 103.629 140.086 103.723 139.992C103.84 139.875 103.957 139.734 104.074 139.57C104.191 139.406 104.379 139.137 104.637 138.762L104.953 138.305L105.375 138.551C105.492 138.621 105.703 138.691 106.008 138.762C106.336 138.809 106.617 138.855 106.852 138.902C107.227 139.02 107.59 139.113 107.941 139.184C108.316 139.23 108.609 139.348 108.82 139.535L108.961 139.816Z" fill="black"/>
<path fill-rule="evenodd" clip-rule="evenodd" d="M53.4911 13.2112L53.4437 46.9616L53.4714 46.9618C53.7543 50.6397 61.5639 53.5983 71.1854 53.612C80.805 53.6253 88.6232 50.6877 88.9167 47.0115L88.9433 47.0115L88.9907 13.2612L53.4911 13.2112ZM71.193 48.0892C67.1436 48.0831 63.8651 44.7954 63.8702 40.7457C63.8763 36.6963 67.1643 33.4169 71.2137 33.423C75.2633 33.4281 78.5416 36.7168 78.5365 40.7664C78.5304 44.8159 75.2426 48.0943 71.193 48.0892Z" fill="#B0E4FF"/>
</g>
<defs>
<filter id="filter0_d_2_2" x="0.92099" y="11.1855" width="140.261" height="241.137" filterUnits="userSpaceOnUse" color-interpolation-filters="sRGB">
<feFlood flood-opacity="0" result="BackgroundImageFix"/>
<feColorMatrix in="SourceAlpha" type="matrix" values="0 0 0 0 0 0 0 0 0 0 0 0 0 0 0 0 0 0 127 0" result="hardAlpha"/>
<feOffset dy="2"/>
<feGaussianBlur stdDeviation="2"/>
<feColorMatrix type="matrix" values="0 0 0 0 0 0 0 0 0 0 0 0 0 0 0 0 0 0 0.35 0"/>
<feBlend mode="normal" in2="BackgroundImageFix" result="effect1_dropShadow_2_2"/>
<feBlend mode="normal" in="SourceGraphic" in2="effect1_dropShadow_2_2" result="shape"/>
</filter>
<clipPath id="clip0_2_2">
<rect width="141" height="253" fill="white"/>
</clipPath>
</defs>
</svg>
