<svg width="141" height="253" viewBox="0 0 141 253" fill="none" xmlns="http://www.w3.org/2000/svg">
<g clip-path="url(#clip0_2_24)">
<g filter="url(#filter0_d_2_24)">
<path fill-rule="evenodd" clip-rule="evenodd" d="M35.2439 13.1855C33.5856 13.1831 31.5105 14.3055 30.6095 15.6917L6.81464 52.3011C5.91349 53.6875 5.18108 56.1616 5.17878 57.8168L4.92099 243.138C4.91868 244.798 6.26626 246.145 7.92183 246.148L133.912 246.322C135.571 246.325 136.919 244.987 136.921 243.323L137.182 55.6637C137.184 54.0051 136.389 51.5767 135.408 50.2421L110.019 15.7057C109.037 14.3701 106.89 13.2854 105.239 13.2831L35.2439 13.1855ZM63.87 40.7467C63.8753 36.6961 67.1633 33.4167 71.2127 33.4227C75.2624 33.4278 78.5406 36.7166 78.5352 40.7672C78.5304 44.8159 75.2426 48.0943 71.193 48.0892C67.1436 48.0831 63.8651 44.7954 63.87 40.7467Z" fill="#F4F4F4"/>
</g>
<path d="M21.6416 83.708C21.501 83.708 21.4307 83.6055 21.4307 83.4004C21.4307 83.1953 21.4424 83.0078 21.4658 82.8379C21.4951 82.668 21.5303 82.5068 21.5713 82.3545C21.6123 82.2021 21.6592 82.0527 21.7119 81.9062L21.8789 81.4492C22.0195 81.0508 22.1162 80.6934 22.1689 80.377C22.2217 80.0605 22.2773 79.873 22.3359 79.8145C22.3945 79.75 22.459 79.7178 22.5293 79.7178C22.6465 79.7178 22.7988 79.8408 22.9863 80.0869C23.0801 80.1982 23.2178 80.2598 23.3994 80.2715C23.5869 80.2773 23.7656 80.2803 23.9355 80.2803H32.8301C33.1992 80.2803 33.4775 80.2158 33.665 80.0869C33.8525 79.958 33.9814 79.8643 34.0518 79.8057C34.1221 79.7471 34.1807 79.7178 34.2275 79.7178C34.2744 79.7178 34.3154 79.7207 34.3506 79.7266C34.3916 79.7324 34.4297 79.7471 34.4648 79.7705C34.5645 79.8291 34.5703 79.9609 34.4824 80.166C34.4004 80.3652 34.3066 80.623 34.2012 80.9395C34.0957 81.25 33.999 81.5547 33.9111 81.8535C33.7529 82.3984 33.6416 82.8203 33.5771 83.1191C33.4951 83.5293 33.3809 83.7344 33.2344 83.7344C33.082 83.7344 32.9883 83.6436 32.9531 83.4619C32.9238 83.2744 32.8887 83.1104 32.8477 82.9697C32.8066 82.8232 32.7539 82.6914 32.6895 82.5742C32.291 81.8711 31.0547 81.5195 28.9805 81.5195V91.0469C28.9805 91.8203 29.0273 92.3359 29.1211 92.5938C29.2207 92.8516 29.335 93.0303 29.4639 93.1299C29.5928 93.2236 29.7305 93.2705 29.877 93.2705C30.0293 93.2705 30.1406 93.2676 30.2109 93.2617C30.3809 93.2383 30.5039 93.2207 30.5801 93.209C30.6562 93.1973 30.7383 93.1914 30.8262 93.1914C30.9199 93.1914 30.9961 93.2383 31.0547 93.332C31.1133 93.4199 31.1426 93.499 31.1426 93.5693C31.1426 93.6338 31.125 93.6982 31.0898 93.7627C31.0547 93.8271 30.999 93.8857 30.9229 93.9385C30.7354 94.0674 30.5068 94.1318 30.2373 94.1318C29.9736 94.1318 29.7422 94.123 29.543 94.1055C29.3496 94.0938 29.168 94.082 28.998 94.0703L28.4883 94.0176C28.3242 94.0059 28.1455 94 27.9521 94C27.7588 94 27.5801 94.0059 27.416 94.0176L26.9062 94.0703C26.3965 94.1113 26.0215 94.1318 25.7812 94.1318C25.5469 94.1318 25.3711 94.1113 25.2539 94.0703C25.1426 94.0352 25.0488 93.9912 24.9727 93.9385C24.8262 93.833 24.7529 93.7275 24.7529 93.6221C24.7529 93.5166 24.7822 93.4199 24.8408 93.332C24.8994 93.2383 24.9756 93.1914 25.0693 93.1914C25.1631 93.1914 25.2393 93.1973 25.2979 93.209C25.3623 93.2148 25.4238 93.2207 25.4824 93.2266C25.6699 93.2559 25.8428 93.2705 26.001 93.2705C26.1592 93.2705 26.3027 93.2236 26.4316 93.1299C26.5605 93.0361 26.6602 92.8955 26.7305 92.708C26.8535 92.3799 26.915 91.8262 26.915 91.0469V81.5107C25.7549 81.5107 24.9199 81.5928 24.4102 81.7568C24.334 81.7803 24.1875 81.8184 23.9707 81.8711C23.7539 81.9238 23.5078 82.0557 23.2324 82.2666C22.957 82.4717 22.7139 82.6826 22.5029 82.8994C22.292 83.1104 22.1133 83.2979 21.9668 83.4619C21.8262 83.626 21.7178 83.708 21.6416 83.708ZM35.4141 89.2715C35.4141 88.7676 35.543 88.2285 35.8008 87.6543C36.0645 87.0801 36.4219 86.5762 36.873 86.1426C37.8516 85.2109 39.0439 84.7451 40.4502 84.7451C42.0791 84.7451 43.3418 85.2314 44.2383 86.2041C45.041 87.0771 45.4424 88.1172 45.4424 89.3242C45.4424 90.748 45.0176 91.9053 44.168 92.7959C43.2715 93.7393 42.0439 94.2109 40.4854 94.2109C38.2354 94.2109 36.7031 93.3613 35.8887 91.6621C35.5723 91 35.4141 90.2031 35.4141 89.2715ZM37.7871 87.584C37.6641 87.918 37.6025 88.3604 37.6025 88.9111C37.6025 89.4619 37.6934 89.9922 37.875 90.502C38.0625 91.0117 38.3086 91.4424 38.6133 91.7939C39.252 92.5205 40.0107 92.8838 40.8896 92.8838C41.9678 92.8838 42.6855 92.4121 43.043 91.4688C43.166 91.1465 43.2275 90.6895 43.2275 90.0977C43.2275 89.5059 43.1309 88.9463 42.9375 88.4189C42.7441 87.8857 42.4922 87.4463 42.1816 87.1006C41.5723 86.4209 40.8311 86.0811 39.958 86.0811C38.874 86.0811 38.1504 86.582 37.7871 87.584ZM48.1934 93.7275C48.0703 93.5869 47.9795 93.4316 47.9209 93.2617C47.8623 93.0918 47.833 92.9189 47.833 92.7432C47.833 92.5674 47.8682 92.3887 47.9385 92.207C48.0146 92.0254 48.123 91.8643 48.2637 91.7236C48.5566 91.4189 48.9258 91.2666 49.3711 91.2666C49.8281 91.2666 50.1943 91.4336 50.4697 91.7676C50.71 92.0605 50.8301 92.4062 50.8301 92.8047C50.8301 93.1504 50.6953 93.4639 50.4258 93.7451C50.1211 94.0557 49.7959 94.2109 49.4502 94.2109C49.1104 94.2109 48.8467 94.1641 48.6592 94.0703C48.4717 93.9824 48.3164 93.8682 48.1934 93.7275ZM48.1934 87.7246C48.0703 87.584 47.9795 87.4287 47.9209 87.2588C47.8623 87.0889 47.833 86.916 47.833 86.7402C47.833 86.5645 47.8682 86.3857 47.9385 86.2041C48.0146 86.0225 48.123 85.8613 48.2637 85.7207C48.5566 85.416 48.9258 85.2637 49.3711 85.2637C49.8281 85.2637 50.1943 85.4307 50.4697 85.7646C50.71 86.0576 50.8301 86.4033 50.8301 86.8018C50.8301 87.1475 50.6953 87.4609 50.4258 87.7422C50.1211 88.0527 49.7959 88.208 49.4502 88.208C49.1104 88.208 48.8467 88.1641 48.6592 88.0762C48.4717 87.9824 48.3164 87.8652 48.1934 87.7246ZM27.3984 186.123L24.8584 186C24.5654 186 24.2871 186.015 24.0234 186.044C23.5488 186.097 23.1768 186.123 22.9072 186.123C22.6436 186.123 22.459 186.103 22.3535 186.062C22.248 186.026 22.1631 185.982 22.0986 185.93C21.9814 185.836 21.9229 185.733 21.9229 185.622C21.9229 185.347 22.0371 185.209 22.2656 185.209L22.8281 185.262C23.2324 185.262 23.502 185.104 23.6367 184.787C23.7539 184.512 23.8125 183.99 23.8125 183.223V175.163C23.8125 174.372 23.7598 173.859 23.6543 173.625C23.5488 173.391 23.4229 173.229 23.2764 173.142C23.1299 173.054 22.9365 173.01 22.6963 173.01L22.2656 173.062C22.1543 173.062 22.0693 173.024 22.0107 172.948C21.9521 172.872 21.9229 172.796 21.9229 172.72C21.9229 172.644 21.9346 172.576 21.958 172.518C21.9873 172.453 22.0342 172.395 22.0986 172.342C22.2568 172.213 22.4648 172.148 22.7227 172.148C22.9805 172.148 23.2002 172.154 23.3818 172.166L24.4102 172.254C24.5742 172.271 24.7617 172.28 24.9727 172.28H32.3379C32.3789 172.556 32.4375 172.834 32.5137 173.115L32.7334 173.95C32.9033 174.577 32.9883 174.996 32.9883 175.207C32.9883 175.412 32.9238 175.515 32.7949 175.515C32.6953 175.515 32.5664 175.415 32.4082 175.216C32.25 175.017 32.0742 174.809 31.8809 174.592C31.6875 174.369 31.4707 174.17 31.2305 173.994C30.6855 173.613 30.0264 173.423 29.2529 173.423H26.7041C26.4463 173.423 26.2441 173.508 26.0977 173.678C25.957 173.848 25.8867 174.082 25.8867 174.381V177.984C25.8867 178.295 26.1416 178.45 26.6514 178.45H29.0684C29.4668 178.45 29.8359 178.245 30.1758 177.835C30.293 177.694 30.3809 177.557 30.4395 177.422C30.498 177.281 30.5449 177.188 30.5801 177.141C30.6211 177.094 30.6826 177.07 30.7646 177.07C30.9404 177.07 31.0283 177.234 31.0283 177.562L30.958 179.083L31.0283 180.463C31.0283 180.791 30.9404 180.955 30.7646 180.955C30.6416 180.955 30.5479 180.867 30.4834 180.691C30.2373 180.146 29.8857 179.801 29.4287 179.654C29.2998 179.613 29.1797 179.593 29.0684 179.593H26.6426C26.4023 179.593 26.2148 179.646 26.0801 179.751C25.9512 179.851 25.8867 179.977 25.8867 180.129V183.223C25.8867 183.984 25.9336 184.477 26.0273 184.699C26.1211 184.922 26.2324 185.071 26.3613 185.147C26.4902 185.224 26.6602 185.262 26.8711 185.262L27.9873 185.183C28.0869 185.183 28.166 185.229 28.2246 185.323C28.2832 185.411 28.3125 185.49 28.3125 185.561C28.3125 185.625 28.2949 185.689 28.2598 185.754C28.2246 185.818 28.1719 185.877 28.1016 185.93C27.9199 186.059 27.6855 186.123 27.3984 186.123ZM35.2383 186.132C34.6465 186.132 34.3506 185.953 34.3506 185.596C34.3506 185.502 34.3799 185.417 34.4385 185.341C34.5029 185.259 34.585 185.218 34.6846 185.218L35.124 185.279C35.458 185.279 35.6924 185.121 35.8271 184.805C35.9736 184.465 36.0469 183.861 36.0469 182.994V180.313C36.0469 179.458 35.9766 178.878 35.8359 178.573C35.6953 178.286 35.5283 178.107 35.335 178.037C35.1416 177.967 34.9658 177.911 34.8076 177.87C34.6553 177.823 34.5205 177.771 34.4033 177.712C34.292 177.653 34.2363 177.586 34.2363 177.51C34.2363 177.428 34.2451 177.36 34.2627 177.308C34.2803 177.255 34.3096 177.205 34.3506 177.158C34.4502 177.047 34.6025 176.991 34.8076 176.991L36.0996 177.097L37.4268 176.991C37.8896 176.991 38.1211 177.296 38.1211 177.905V178.521C38.6719 177.677 39.3926 177.129 40.2832 176.877C40.5762 176.789 40.8809 176.745 41.1973 176.745C42.2871 176.745 42.832 177.094 42.832 177.791L42.8145 179.962C42.8145 180.044 42.7881 180.114 42.7354 180.173C42.6885 180.226 42.6328 180.252 42.5684 180.252C42.416 180.252 42.3047 180.117 42.2344 179.848C42.1641 179.578 42.0645 179.35 41.9355 179.162C41.8066 178.969 41.6602 178.816 41.4961 178.705C41.1914 178.512 40.8662 178.415 40.5205 178.415C40.1807 178.415 39.8936 178.471 39.6592 178.582C39.4248 178.693 39.208 178.834 39.0088 179.004C38.6221 179.344 38.3262 179.73 38.1211 180.164V182.994C38.1211 183.967 38.2031 184.605 38.3672 184.91C38.502 185.156 38.7744 185.279 39.1846 185.279L39.791 185.209C39.8906 185.209 39.9697 185.25 40.0283 185.332C40.0869 185.414 40.1162 185.493 40.1162 185.569C40.1162 185.646 40.0898 185.716 40.0371 185.78C39.9902 185.845 39.9258 185.903 39.8438 185.956C39.5801 186.12 39.1699 186.17 38.6133 186.105C38.4785 186.094 38.3438 186.082 38.209 186.07C37.5352 185.994 37.0312 185.971 36.6973 186C36.3633 186.029 36.126 186.05 35.9854 186.062C35.8447 186.079 35.7158 186.094 35.5986 186.105C35.4814 186.123 35.3613 186.132 35.2383 186.132ZM44.3965 181.271C44.3965 180.768 44.5254 180.229 44.7832 179.654C45.0469 179.08 45.4043 178.576 45.8555 178.143C46.834 177.211 48.0264 176.745 49.4326 176.745C51.0615 176.745 52.3242 177.231 53.2207 178.204C54.0234 179.077 54.4248 180.117 54.4248 181.324C54.4248 182.748 54 183.905 53.1504 184.796C52.2539 185.739 51.0264 186.211 49.4678 186.211C47.2178 186.211 45.6855 185.361 44.8711 183.662C44.5547 183 44.3965 182.203 44.3965 181.271ZM46.7695 179.584C46.6465 179.918 46.585 180.36 46.585 180.911C46.585 181.462 46.6758 181.992 46.8574 182.502C47.0449 183.012 47.291 183.442 47.5957 183.794C48.2344 184.521 48.9932 184.884 49.8721 184.884C50.9502 184.884 51.668 184.412 52.0254 183.469C52.1484 183.146 52.21 182.689 52.21 182.098C52.21 181.506 52.1133 180.946 51.9199 180.419C51.7266 179.886 51.4746 179.446 51.1641 179.101C50.5547 178.421 49.8135 178.081 48.9404 178.081C47.8564 178.081 47.1328 178.582 46.7695 179.584ZM57.1406 186.132C56.5488 186.132 56.2529 185.953 56.2529 185.596C56.2529 185.502 56.2822 185.417 56.3408 185.341C56.4053 185.259 56.4873 185.218 56.5869 185.218L57.0264 185.279C57.5068 185.279 57.7969 184.852 57.8965 183.996C57.9316 183.686 57.9492 183.308 57.9492 182.862V180.278C57.9492 179.165 57.8203 178.438 57.5625 178.099C57.4746 177.981 57.3486 177.899 57.1846 177.853C57.0264 177.806 56.8682 177.765 56.71 177.729C56.5576 177.694 56.4229 177.653 56.3057 177.606C56.1943 177.56 56.1387 177.486 56.1387 177.387C56.1387 177.123 56.3291 176.991 56.71 176.991L58.002 177.097L59.3291 176.991C59.5693 176.991 59.7246 177.035 59.7949 177.123C59.9355 177.287 60.0117 177.586 60.0234 178.02C61.0723 177.17 62.168 176.745 63.3105 176.745C64.0078 176.745 64.6055 176.883 65.1035 177.158C65.6074 177.434 65.9883 177.814 66.2461 178.301C66.9844 177.586 67.8516 177.108 68.8477 176.868C69.1875 176.786 69.5713 176.745 69.999 176.745C70.4268 176.745 70.8428 176.818 71.2471 176.965C71.6572 177.111 72.0059 177.319 72.293 177.589C72.8848 178.151 73.1807 178.89 73.1807 179.804V182.862C73.1807 183.794 73.2334 184.397 73.3389 184.673C73.4443 184.942 73.5498 185.112 73.6553 185.183C73.7666 185.247 73.8926 185.279 74.0332 185.279L74.4902 185.218C74.584 185.218 74.6602 185.259 74.7188 185.341C74.7773 185.423 74.8066 185.499 74.8066 185.569C74.8066 185.64 74.792 185.707 74.7627 185.771C74.7393 185.83 74.6953 185.886 74.6309 185.938C74.4316 186.114 74.0566 186.17 73.5059 186.105L72.6885 186.018C72.5479 186.006 72.3896 186 72.2139 186L70.3594 186.132C69.7324 186.132 69.4189 185.953 69.4189 185.596C69.4189 185.502 69.4512 185.417 69.5156 185.341C69.5801 185.259 69.6621 185.218 69.7617 185.218L70.2188 185.279C70.5645 185.279 70.7988 185.098 70.9219 184.734C71.0332 184.406 71.0889 183.782 71.0889 182.862V180.155C71.0889 179.534 70.9336 179.051 70.623 178.705C70.3125 178.354 69.9023 178.178 69.3926 178.178C68.4375 178.178 67.4883 178.614 66.5449 179.487C66.5859 179.745 66.6064 179.971 66.6064 180.164V182.862C66.6064 183.8 66.6592 184.403 66.7646 184.673C66.876 184.942 66.9844 185.112 67.0898 185.183C67.1953 185.247 67.3184 185.279 67.459 185.279L67.9248 185.218C68.0244 185.218 68.1006 185.259 68.1533 185.341C68.2119 185.423 68.2412 185.499 68.2412 185.569C68.2412 185.64 68.2266 185.707 68.1973 185.771C68.1738 185.83 68.1299 185.886 68.0654 185.938C67.8545 186.108 67.4795 186.164 66.9404 186.105L66.123 186.018C65.9766 186.006 65.8154 186 65.6396 186L63.7852 186.132C63.2812 186.132 62.9824 186.012 62.8887 185.771C62.8652 185.707 62.8535 185.64 62.8535 185.569C62.8535 185.493 62.8828 185.417 62.9414 185.341C63.0059 185.259 63.0908 185.218 63.1963 185.218L63.6533 185.279C64.0049 185.279 64.2393 185.104 64.3564 184.752C64.4678 184.418 64.5234 183.788 64.5234 182.862V180.155C64.5234 179.534 64.3652 179.051 64.0488 178.705C63.7383 178.354 63.3047 178.178 62.748 178.178C61.8809 178.178 60.9727 178.6 60.0234 179.443V182.862C60.0234 183.853 60.082 184.474 60.1992 184.726C60.3223 184.978 60.4453 185.133 60.5684 185.191C60.6973 185.25 60.8467 185.279 61.0166 185.279L61.4561 185.218C61.5557 185.218 61.6318 185.259 61.6846 185.341C61.7432 185.417 61.7725 185.502 61.7725 185.596C61.7725 185.953 61.4678 186.132 60.8584 186.132C60.5537 186.132 60.2461 186.108 59.9355 186.062C59.6309 186.021 59.335 186 59.0479 186C58.7607 186 58.5293 186.006 58.3535 186.018C58.1836 186.035 58.0283 186.05 57.8877 186.062C57.7471 186.079 57.6182 186.094 57.501 186.105C57.3838 186.123 57.2637 186.132 57.1406 186.132ZM77.1973 185.728C77.0742 185.587 76.9834 185.432 76.9248 185.262C76.8662 185.092 76.8369 184.919 76.8369 184.743C76.8369 184.567 76.8721 184.389 76.9424 184.207C77.0186 184.025 77.127 183.864 77.2676 183.724C77.5605 183.419 77.9297 183.267 78.375 183.267C78.832 183.267 79.1982 183.434 79.4736 183.768C79.7139 184.061 79.834 184.406 79.834 184.805C79.834 185.15 79.6992 185.464 79.4297 185.745C79.125 186.056 78.7998 186.211 78.4541 186.211C78.1143 186.211 77.8506 186.164 77.6631 186.07C77.4756 185.982 77.3203 185.868 77.1973 185.728ZM77.1973 179.725C77.0742 179.584 76.9834 179.429 76.9248 179.259C76.8662 179.089 76.8369 178.916 76.8369 178.74C76.8369 178.564 76.8721 178.386 76.9424 178.204C77.0186 178.022 77.127 177.861 77.2676 177.721C77.5605 177.416 77.9297 177.264 78.375 177.264C78.832 177.264 79.1982 177.431 79.4736 177.765C79.7139 178.058 79.834 178.403 79.834 178.802C79.834 179.147 79.6992 179.461 79.4297 179.742C79.125 180.053 78.7998 180.208 78.4541 180.208C78.1143 180.208 77.8506 180.164 77.6631 180.076C77.4756 179.982 77.3203 179.865 77.1973 179.725Z" fill="black"/>
<path d="M43.2969 217.258C42.8438 217.148 42.4922 216.969 42.2422 216.719C42.0078 216.453 41.8281 216.148 41.7031 215.805C41.5938 215.445 41.5156 215.055 41.4688 214.633C41.4375 214.211 41.3984 213.773 41.3516 213.32C41.4141 213.117 41.4922 212.945 41.5859 212.805C41.6953 212.664 41.7422 212.469 41.7266 212.219C41.8984 211.719 42.0547 211.234 42.1953 210.766C42.3359 210.297 42.4297 209.812 42.4766 209.312C42.5703 209.172 42.6641 209.078 42.7578 209.031C42.8828 208.141 42.8984 207.227 42.8047 206.289C42.7109 205.352 42.5547 204.484 42.3359 203.688C42.3516 203.516 42.375 203.391 42.4062 203.312C42.4375 203.219 42.4375 203.141 42.4062 203.078C42.375 202.938 42.4219 202.867 42.5469 202.867C42.6719 202.867 42.7969 202.867 42.9219 202.867C42.9219 202.586 42.8672 202.312 42.7578 202.047C42.6641 201.766 42.5703 201.445 42.4766 201.086C42.6016 200.805 42.6875 200.531 42.7344 200.266C42.7812 200 42.8672 199.758 42.9922 199.539C43.4922 199.695 43.9844 199.875 44.4688 200.078C44.9531 200.281 45.4297 200.484 45.8984 200.688C46.3672 200.875 46.8281 201.062 47.2812 201.25C47.7344 201.422 48.1797 201.562 48.6172 201.672C49.2891 202.156 49.9766 202.641 50.6797 203.125C51.3984 203.594 52.0469 204.117 52.625 204.695C53.2188 205.258 53.7109 205.906 54.1016 206.641C54.4922 207.375 54.7188 208.242 54.7812 209.242C54.75 209.336 54.7266 209.414 54.7109 209.477C54.6953 209.539 54.6797 209.602 54.6641 209.664C54.6484 209.727 54.6406 209.797 54.6406 209.875C54.6406 209.953 54.6406 210.062 54.6406 210.203C54.0781 211.188 53.3672 212.016 52.5078 212.688C51.6484 213.359 50.7109 213.953 49.6953 214.469C48.6797 214.984 47.6172 215.461 46.5078 215.898C45.4141 216.32 44.3438 216.773 43.2969 217.258ZM45.5938 203.969C45.4531 203.969 45.3516 204 45.2891 204.062C45.4766 204.766 45.6172 205.43 45.7109 206.055C45.8047 206.68 45.8516 207.305 45.8516 207.93C45.8672 208.555 45.8359 209.195 45.7578 209.852C45.6797 210.508 45.5703 211.219 45.4297 211.984C45.6328 211.969 45.8125 211.93 45.9688 211.867C46.125 211.805 46.2812 211.734 46.4375 211.656C46.6094 211.578 46.7812 211.508 46.9531 211.445C47.1406 211.383 47.3516 211.344 47.5859 211.328C47.6484 211.203 47.7266 211.109 47.8203 211.047C47.9297 210.969 48.0234 210.891 48.1016 210.812C48.4922 210.656 48.8828 210.492 49.2734 210.32C49.6641 210.148 50.0234 209.953 50.3516 209.734C50.6797 209.516 50.9766 209.266 51.2422 208.984C51.5078 208.703 51.7266 208.367 51.8984 207.977C51.7734 207.742 51.6172 207.547 51.4297 207.391C51.2578 207.219 51.0703 207.055 50.8672 206.898C50.6797 206.727 50.4922 206.555 50.3047 206.383C50.1328 206.195 49.9922 205.984 49.8828 205.75C49.6328 205.719 49.4141 205.656 49.2266 205.562C49.0391 205.453 48.8594 205.352 48.6875 205.258C48.5156 205.148 48.3281 205.047 48.125 204.953C47.9375 204.859 47.7109 204.805 47.4453 204.789C47.0391 204.57 46.6719 204.422 46.3438 204.344C46.0156 204.25 45.7656 204.125 45.5938 203.969ZM58.9062 214.562C58.7344 215.188 58.5781 215.664 58.4375 215.992C58.3125 216.305 58.1172 216.633 57.8516 216.977C57.6484 216.945 57.5078 216.969 57.4297 217.047C57.3516 217.125 57.2656 217.195 57.1719 217.258C57.0312 217.289 56.9297 217.289 56.8672 217.258C56.8047 217.227 56.75 217.188 56.7031 217.141C56.6562 217.109 56.5938 217.07 56.5156 217.023C56.4531 216.992 56.3516 216.977 56.2109 216.977C56.1797 216.852 56.1406 216.734 56.0938 216.625C56.0625 216.516 55.9609 216.477 55.7891 216.508C55.8203 216.383 55.8281 216.281 55.8125 216.203C55.7969 216.109 55.7734 216.031 55.7422 215.969C55.7266 215.891 55.7109 215.82 55.6953 215.758C55.6797 215.68 55.6875 215.586 55.7188 215.477C55.6406 215.477 55.5781 215.422 55.5312 215.312C55.4844 215.203 55.4297 215.094 55.3672 214.984C55.4141 214.703 55.4609 214.438 55.5078 214.188C55.5547 213.938 55.6094 213.703 55.6719 213.484C55.75 213.266 55.8125 213.047 55.8594 212.828C55.9062 212.609 55.8828 212.383 55.7891 212.148C55.8516 212.195 55.8984 212.188 55.9297 212.125C55.9609 212.047 55.9844 211.953 56 211.844C56.0156 211.719 56.0234 211.602 56.0234 211.492C56.0234 211.367 56.0156 211.266 56 211.188C56.1562 210.781 56.2812 210.367 56.375 209.945C56.4844 209.508 56.5781 209.078 56.6562 208.656C56.75 208.234 56.8438 207.82 56.9375 207.414C57.0312 207.008 57.1562 206.633 57.3125 206.289C57.4844 206.258 57.6719 206.281 57.875 206.359C58.0938 206.422 58.2266 206.508 58.2734 206.617C58.6797 206.305 59.0391 205.93 59.3516 205.492C59.6641 205.039 59.9844 204.602 60.3125 204.18C60.6406 203.758 61 203.383 61.3906 203.055C61.7969 202.727 62.3047 202.531 62.9141 202.469C63.2266 202.703 63.5703 202.945 63.9453 203.195C64.3359 203.43 64.6562 203.742 64.9062 204.133C65.0312 204.195 65.1328 204.266 65.2109 204.344C65.3047 204.406 65.4141 204.477 65.5391 204.555V204.836C65.7266 205.008 65.875 205.211 65.9844 205.445C66.1094 205.664 66.2188 205.906 66.3125 206.172C66.4062 206.422 66.5 206.68 66.5938 206.945C66.6875 207.195 66.7969 207.438 66.9219 207.672C66.8906 207.75 66.875 207.82 66.875 207.883C66.875 207.93 66.8828 207.984 66.8984 208.047C66.9297 208.109 66.9531 208.172 66.9688 208.234C66.9844 208.297 66.9844 208.383 66.9688 208.492C66.9219 209.18 66.6953 209.734 66.2891 210.156C65.8984 210.578 65.4219 210.93 64.8594 211.211C64.2969 211.477 63.6953 211.703 63.0547 211.891C62.4141 212.078 61.8359 212.281 61.3203 212.5C61.3203 212.562 61.3438 212.594 61.3906 212.594C61.4531 212.594 61.4766 212.633 61.4609 212.711C61.8359 212.945 62.1328 213.133 62.3516 213.273C62.5703 213.414 62.7734 213.531 62.9609 213.625C63.1641 213.719 63.375 213.805 63.5938 213.883C63.8281 213.945 64.1484 214.023 64.5547 214.117C64.9609 214.211 65.2734 214.289 65.4922 214.352C65.7266 214.398 65.9375 214.445 66.125 214.492C66.3125 214.523 66.5 214.555 66.6875 214.586C66.8906 214.602 67.1719 214.625 67.5312 214.656C67.6719 214.797 67.7891 214.969 67.8828 215.172C67.9922 215.359 68.0625 215.555 68.0938 215.758C68.125 215.945 68.1328 216.133 68.1172 216.32C68.1016 216.492 68.0469 216.633 67.9531 216.742C67.9688 216.789 68 216.812 68.0469 216.812C68.1094 216.797 68.1719 216.797 68.2344 216.812C68.1406 216.875 68.0625 216.953 68 217.047C67.9375 217.141 67.875 217.234 67.8125 217.328C67.75 217.422 67.6797 217.5 67.6016 217.562C67.5234 217.641 67.4141 217.688 67.2734 217.703C66.7891 217.891 66.1797 217.898 65.4453 217.727C64.7109 217.57 63.7812 217.273 62.6562 216.836C62.0938 216.617 61.6328 216.43 61.2734 216.273C60.9297 216.102 60.625 215.938 60.3594 215.781C60.1094 215.609 59.875 215.43 59.6562 215.242C59.4531 215.055 59.2031 214.828 58.9062 214.562ZM62.2578 206.523C62.0859 206.773 61.8906 207 61.6719 207.203C61.4688 207.406 61.2656 207.617 61.0625 207.836C60.875 208.039 60.7031 208.273 60.5469 208.539C60.3906 208.789 60.2812 209.086 60.2188 209.43C60.7656 209.367 61.3359 209.219 61.9297 208.984C62.5234 208.734 63.0859 208.5 63.6172 208.281C63.5547 207.797 63.3828 207.406 63.1016 207.109C62.8359 206.812 62.5547 206.617 62.2578 206.523ZM81.1953 203.805C81.2109 203.914 81.2109 204 81.1953 204.062C81.1953 204.109 81.1875 204.156 81.1719 204.203C81.1719 204.25 81.1719 204.305 81.1719 204.367C81.1719 204.414 81.1875 204.492 81.2188 204.602C80.8906 205.133 80.5078 205.5 80.0703 205.703C79.6484 205.891 79.1875 206.031 78.6875 206.125C78.1875 206.203 77.6719 206.289 77.1406 206.383C76.625 206.477 76.1094 206.68 75.5938 206.992C75.3906 206.914 75.2031 206.914 75.0312 206.992C74.875 207.07 74.6406 207.094 74.3281 207.062C74.2344 207.156 74.1172 207.227 73.9766 207.273C73.8359 207.305 73.6953 207.344 73.5547 207.391C73.6172 207.531 73.6406 207.68 73.625 207.836C73.625 207.977 73.6484 208.094 73.6953 208.188C74.2422 208.234 74.8438 208.227 75.5 208.164C76.1719 208.102 76.8281 208.062 77.4688 208.047C77.4844 208.125 77.4766 208.18 77.4453 208.211C77.4141 208.227 77.4062 208.266 77.4219 208.328C77.5312 208.406 77.6406 208.508 77.75 208.633C77.8594 208.742 77.9688 208.852 78.0781 208.961C78.1875 209.07 78.2969 209.164 78.4062 209.242C78.5312 209.305 78.6719 209.328 78.8281 209.312C78.8906 209.438 78.9297 209.578 78.9453 209.734C78.9766 209.875 78.9609 210.023 78.8984 210.18C78.6484 210.352 78.3984 210.531 78.1484 210.719C77.8984 210.891 77.6328 211.047 77.3516 211.188C77.0859 211.328 76.7969 211.445 76.4844 211.539C76.1875 211.617 75.8516 211.648 75.4766 211.633C75.3984 211.633 75.3359 211.633 75.2891 211.633C75.2578 211.633 75.2109 211.609 75.1484 211.562C75.0234 211.641 74.8438 211.664 74.6094 211.633C74.3906 211.602 74.2188 211.625 74.0938 211.703C73.9219 211.625 73.7109 211.594 73.4609 211.609C73.2266 211.609 73.0156 211.578 72.8281 211.516C72.5781 211.844 72.3516 212.195 72.1484 212.57C71.9453 212.945 71.7656 213.344 71.6094 213.766C72.1406 213.844 72.5781 213.875 72.9219 213.859C73.2812 213.844 73.6172 213.82 73.9297 213.789C74.2422 213.742 74.5625 213.703 74.8906 213.672C75.2188 213.625 75.6328 213.609 76.1328 213.625C76.4453 213.453 76.8125 213.344 77.2344 213.297C77.6719 213.234 78.0703 213.141 78.4297 213.016C78.5547 213.062 78.6641 213.148 78.7578 213.273C78.8516 213.383 78.9375 213.492 79.0156 213.602C79.1094 213.695 79.2031 213.781 79.2969 213.859C79.3906 213.938 79.5078 213.969 79.6484 213.953C79.7109 214.016 79.75 214.094 79.7656 214.188C79.7969 214.266 79.8203 214.344 79.8359 214.422C79.8516 214.5 79.875 214.57 79.9062 214.633C79.9531 214.68 80.0234 214.695 80.1172 214.68C79.8828 215.195 79.6094 215.594 79.2969 215.875C79 216.141 78.6562 216.344 78.2656 216.484C77.875 216.625 77.4375 216.734 76.9531 216.812C76.4844 216.891 75.9609 216.984 75.3828 217.094C75.2422 217.125 75.125 217.117 75.0312 217.07C74.9375 217.039 74.8281 217.023 74.7031 217.023C74.3438 217.102 73.9141 217.172 73.4141 217.234C72.9141 217.297 72.4062 217.32 71.8906 217.305C71.375 217.289 70.8828 217.219 70.4141 217.094C69.9453 216.984 69.5625 216.781 69.2656 216.484C69.1406 216.375 69.0547 216.25 69.0078 216.109C68.9766 215.953 68.875 215.836 68.7031 215.758C68.6875 215.555 68.6562 215.328 68.6094 215.078C68.5625 214.828 68.5156 214.57 68.4688 214.305C68.4219 214.023 68.3828 213.75 68.3516 213.484C68.3359 213.219 68.3516 212.977 68.3984 212.758C68.4453 212.523 68.5391 212.312 68.6797 212.125C68.8359 211.938 68.8906 211.734 68.8438 211.516C68.9219 211.5 68.9688 211.461 68.9844 211.398C69 211.32 69.0625 211.289 69.1719 211.305C69.2656 211.023 69.3672 210.758 69.4766 210.508C69.5859 210.258 69.6953 210.016 69.8047 209.781C69.9297 209.547 70.0469 209.312 70.1562 209.078C70.2812 208.828 70.3984 208.555 70.5078 208.258C70.2891 208.055 70.125 207.836 70.0156 207.602C69.9219 207.352 69.8516 207.109 69.8047 206.875C69.7578 206.625 69.7188 206.375 69.6875 206.125C69.6562 205.859 69.6016 205.594 69.5234 205.328C69.6797 205.094 69.8672 204.906 70.0859 204.766C70.3203 204.609 70.5703 204.484 70.8359 204.391C71.1016 204.297 71.3906 204.219 71.7031 204.156C72.0156 204.094 72.3438 204.023 72.6875 203.945C73.3125 203.742 73.8672 203.586 74.3516 203.477C74.8516 203.367 75.3359 203.281 75.8047 203.219C76.2891 203.141 76.7891 203.07 77.3047 203.008C77.8203 202.945 78.4062 202.852 79.0625 202.727C79.2031 202.867 79.3359 202.938 79.4609 202.938C79.5234 202.797 79.5938 202.758 79.6719 202.82C79.7656 202.867 79.8047 202.82 79.7891 202.68C79.9453 202.945 80.1406 203.172 80.375 203.359C80.625 203.531 80.8984 203.68 81.1953 203.805ZM93.8281 217.305C93.2812 217.055 92.8438 216.688 92.5156 216.203C92.2031 215.719 91.8906 215.18 91.5781 214.586C91.5312 214.492 91.4844 214.398 91.4375 214.305C91.3906 214.211 91.3438 214.125 91.2969 214.047L90.9688 213.438L90.7812 213.062L90.5 213.32L90.0781 213.695L89.8438 213.93C89.4375 214.305 89.0234 214.68 88.6016 215.055C88.1953 215.414 87.7578 215.742 87.2891 216.039C86.8359 216.32 86.3516 216.555 85.8359 216.742C85.3359 216.914 84.7891 217.008 84.1953 217.023L83.6797 216.766C83.3828 216.609 83.1328 216.469 82.9297 216.344C82.7266 216.219 82.4922 216.023 82.2266 215.758C82.1484 215.617 82.0781 215.484 82.0156 215.359C81.9688 215.234 81.9141 215.109 81.8516 214.984C81.6797 214.672 81.5391 214.391 81.4297 214.141C81.3203 213.891 81.2109 213.609 81.1016 213.297C81.1484 213.078 81.2188 212.711 81.3125 212.195C81.4062 211.664 81.5156 211.086 81.6406 210.461C81.7812 209.836 81.9219 209.211 82.0625 208.586C82.2188 207.945 82.375 207.391 82.5312 206.922C82.6719 206.516 82.8281 206.086 83 205.633C83.1875 205.18 83.3828 204.766 83.5859 204.391C83.8047 204 84.0391 203.672 84.2891 203.406C84.5391 203.125 84.8047 202.961 85.0859 202.914C85.1641 203.023 85.25 203.102 85.3438 203.148C85.4375 203.195 85.5234 203.234 85.6016 203.266C85.8203 203.578 86.0312 203.844 86.2344 204.062C86.4531 204.281 86.7031 204.5 86.9844 204.719C86.9062 205.109 86.7891 205.547 86.6328 206.031C86.4922 206.5 86.3359 206.977 86.1641 207.461C86.0078 207.93 85.8516 208.391 85.6953 208.844C85.5391 209.297 85.4141 209.688 85.3203 210.016C85.2266 210.281 85.1484 210.578 85.0859 210.906C84.9453 211.484 84.8125 212.273 84.6875 213.273C84.875 213.227 85.0781 213.125 85.2969 212.969C85.5156 212.812 85.7266 212.648 85.9297 212.477C86.1641 212.289 86.3984 212.078 86.6328 211.844C86.9297 211.547 87.1797 211.273 87.3828 211.023C87.5859 210.773 87.7734 210.516 87.9453 210.25C88.1328 209.984 88.3203 209.695 88.5078 209.383C88.6953 209.055 88.9219 208.672 89.1875 208.234C89.4219 207.859 89.6641 207.461 89.9141 207.039C90.1797 206.602 90.4375 206.188 90.6875 205.797C90.9531 205.391 91.2109 205.023 91.4609 204.695C91.7109 204.367 91.9375 204.109 92.1406 203.922C92.2656 204.078 92.4219 204.227 92.6094 204.367C92.8125 204.508 93.0234 204.617 93.2422 204.695C93.3359 204.836 93.4219 204.969 93.5 205.094C93.5938 205.203 93.6797 205.305 93.7578 205.398C93.8516 205.539 93.9375 205.672 94.0156 205.797C94.1094 205.922 94.1953 206.047 94.2734 206.172C94.2578 206.281 94.2344 206.422 94.2031 206.594C94.1719 206.766 94.1328 206.953 94.0859 207.156C94.0547 207.359 94.0156 207.57 93.9688 207.789C93.9219 207.992 93.875 208.188 93.8281 208.375C93.7031 208.969 93.6094 209.414 93.5469 209.711C93.4844 210.008 93.4375 210.242 93.4062 210.414C93.3906 210.586 93.375 210.734 93.3594 210.859C93.3594 210.969 93.3594 211.125 93.3594 211.328C93.3438 211.484 93.3516 211.641 93.3828 211.797C93.3984 211.938 93.4297 212.086 93.4766 212.242C93.5234 212.398 93.5859 212.539 93.6641 212.664L94.6016 211.938C94.8672 211.734 95.1172 211.461 95.3516 211.117C95.6016 210.758 95.8359 210.352 96.0547 209.898C96.2891 209.43 96.5156 208.922 96.7344 208.375C96.9531 207.828 97.1719 207.273 97.3906 206.711C97.7188 205.883 98.0469 205.078 98.375 204.297C98.7188 203.516 99.0469 202.914 99.3594 202.492C99.7031 202.711 100 202.938 100.25 203.172C100.516 203.391 100.742 203.633 100.93 203.898C101.117 204.164 101.266 204.469 101.375 204.812C101.5 205.156 101.586 205.562 101.633 206.031C101.352 206.578 101.078 207.141 100.812 207.719C100.562 208.297 100.32 208.875 100.086 209.453C99.7734 210.203 99.4453 210.953 99.1016 211.703C98.7734 212.453 98.4062 213.172 98 213.859C97.5938 214.531 97.1406 215.156 96.6406 215.734C96.1406 216.297 95.5625 216.773 94.9062 217.164C94.7344 217.117 94.5859 217.094 94.4609 217.094C94.2109 217.094 94 217.164 93.8281 217.305Z" fill="black"/>
<path d="M24.1641 144.492C23.9297 144.492 23.5664 144.457 23.0742 144.387C22.6992 143.988 22.3594 143.449 22.0547 142.77C21.7734 142.066 21.5508 141.328 21.3867 140.555C21.2461 139.758 21.1758 138.973 21.1758 138.199C21.1992 137.402 21.3398 136.699 21.5977 136.09C21.5977 136.066 21.7031 135.785 21.9141 135.246C22.1484 134.707 22.4414 134.027 22.793 133.207C23.1445 132.363 23.543 131.438 23.9883 130.43C24.4336 129.398 24.8789 128.391 25.3242 127.406C25.7695 126.422 26.1914 125.531 26.5898 124.734C27.0117 123.914 27.375 123.281 27.6797 122.836C27.8906 122.508 28.0781 122.191 28.2422 121.887C28.4297 121.582 28.6055 121.301 28.7695 121.043C29.0273 120.621 29.2617 120.234 29.4727 119.883C29.707 119.508 29.9531 119.18 30.2109 118.898C30.4922 118.594 30.7969 118.336 31.125 118.125C31.4531 117.891 31.8516 117.691 32.3203 117.527C32.6016 117.645 32.8477 117.773 33.0586 117.914C33.2695 118.031 33.457 118.184 33.6211 118.371L33.7266 118.863C33.7734 119.027 33.8438 119.145 33.9375 119.215C34.0547 119.262 34.1484 119.285 34.2188 119.285C34.5234 119.355 34.7812 119.438 34.9922 119.531C35.2266 119.602 35.4727 119.648 35.7305 119.672C35.8242 119.812 35.9062 119.953 35.9766 120.094C36.0703 120.234 36.1641 120.363 36.2578 120.48C36.7266 121.16 37.1133 121.816 37.418 122.449C37.7227 123.082 37.7227 123.773 37.418 124.523L37.4531 124.91C37.5703 125.074 37.6289 125.227 37.6289 125.367C37.6289 125.508 37.6055 125.707 37.5586 125.965C37.5352 126.152 37.5117 126.363 37.4883 126.598C37.4883 126.809 37.5234 127.043 37.5938 127.301L37.8398 127.582C38.2148 127.77 38.5781 127.863 38.9297 127.863C39.3984 127.863 39.8203 127.758 40.1953 127.547C40.5703 127.336 40.9219 127.125 41.25 126.914C41.5078 126.727 41.7422 126.574 41.9531 126.457C42.1875 126.34 42.4102 126.258 42.6211 126.211C43.1133 125.742 43.5586 125.332 43.957 124.98C44.3789 124.605 44.8125 124.23 45.2578 123.855C46.1016 123.176 46.9219 122.449 47.7188 121.676C48.5156 120.879 49.1484 119.895 49.6172 118.723C49.875 118.559 50.168 118.477 50.4961 118.477C50.8242 118.477 51.1523 118.547 51.4805 118.688C51.8086 118.805 52.1367 118.945 52.4648 119.109C52.5352 119.156 52.5938 119.191 52.6406 119.215C52.7109 119.238 52.7812 119.273 52.8516 119.32C52.8516 119.578 52.957 119.812 53.168 120.023C53.2852 120.117 53.3672 120.176 53.4141 120.199C53.4609 120.223 53.5078 120.246 53.5547 120.27C53.7422 120.387 53.8945 120.492 54.0117 120.586C54.1523 120.68 54.2578 120.809 54.3281 120.973C54.5391 121.605 54.8906 122.098 55.3828 122.449C55.3359 122.707 55.3477 122.965 55.418 123.223C55.4883 123.457 55.5703 123.691 55.6641 123.926C55.7109 124.02 55.7461 124.113 55.7695 124.207C55.793 124.277 55.8281 124.371 55.875 124.488L55.1016 124.418L55.207 125.191C55.2773 125.59 55.2422 126.035 55.1016 126.527C54.9844 127.02 54.8438 127.406 54.6797 127.688C54.7266 128.391 54.75 128.953 54.75 129.375C54.75 129.773 54.7266 130.148 54.6797 130.5C54.6328 130.852 54.5508 131.191 54.4336 131.52C54.3398 131.824 54.2109 132.152 54.0469 132.504C54.1406 134.285 53.9297 135.914 53.4141 137.391C52.9219 138.867 52.3828 140.25 51.7969 141.539C51.7266 141.703 51.6562 141.855 51.5859 141.996C51.5156 142.137 51.457 142.277 51.4102 142.418C51.1523 142.488 50.918 142.57 50.707 142.664C50.4961 142.758 50.2969 142.863 50.1094 142.98C49.8516 143.145 49.5938 143.285 49.3359 143.402C49.0781 143.496 48.8086 143.543 48.5273 143.543C47.4023 142.723 46.8164 141.305 46.7695 139.289C46.7461 137.273 47.1797 134.707 48.0703 131.59C48.2344 131.473 48.3047 131.297 48.2812 131.062V130.676L47.9297 130.641C47.8125 130.641 47.707 130.652 47.6133 130.676C47.5195 130.699 47.4492 130.805 47.4023 130.992C46.6523 131.531 45.832 132.094 44.9414 132.68C44.0742 133.242 43.1719 133.77 42.2344 134.262C41.2969 134.73 40.3359 135.129 39.3516 135.457C38.3906 135.762 37.4531 135.914 36.5391 135.914C34.1953 135.914 32.4258 134.719 31.2305 132.328L30.9141 131.695L30.5625 132.258C30.4922 132.375 30.3633 132.609 30.1758 132.961C30.0117 133.289 29.8359 133.676 29.6484 134.121C29.4844 134.566 29.332 135.023 29.1914 135.492C29.0742 135.961 29.0391 136.371 29.0859 136.723C28.8047 136.98 28.5234 137.273 28.2422 137.602C27.9844 137.93 27.7969 138.305 27.6797 138.727C27.6328 138.844 27.6211 138.961 27.6445 139.078C27.668 139.172 27.7031 139.277 27.75 139.395C27.7266 139.559 27.6797 139.676 27.6094 139.746C27.5391 139.816 27.457 139.887 27.3633 139.957C27.2461 140.074 27.1289 140.203 27.0117 140.344C26.8945 140.461 26.7891 140.602 26.6953 140.766C26.6484 140.906 26.6133 141.059 26.5898 141.223C26.5664 141.363 26.543 141.492 26.5195 141.609C26.5195 141.867 26.4844 142.043 26.4141 142.137C26.1797 142.629 25.9688 143.039 25.7812 143.367C25.6172 143.672 25.4531 143.906 25.2891 144.07C25.125 144.234 24.9492 144.34 24.7617 144.387C24.5977 144.457 24.3984 144.492 24.1641 144.492ZM74.6484 141.047C74.5078 141.445 74.2969 141.855 74.0156 142.277C73.7578 142.676 73.4414 143.039 73.0664 143.367C72.7148 143.672 72.3164 143.93 71.8711 144.141C71.4258 144.352 70.957 144.469 70.4648 144.492C70.1602 144.422 69.9492 144.34 69.832 144.246C69.7383 144.176 69.6328 144.105 69.5156 144.035C69.4453 143.988 69.375 143.953 69.3047 143.93C69.2578 143.883 69.2109 143.848 69.1641 143.824L68.7422 143.648L68.8828 143.191C68.9297 143.004 68.918 142.863 68.8477 142.77C68.7773 142.652 68.6367 142.5 68.4258 142.312C68.3555 142.242 68.2852 142.172 68.2148 142.102C68.1445 142.031 68.0859 141.961 68.0391 141.891L67.4414 141.223L68.3906 140.977C68.9766 140.812 69.3633 140.602 69.5508 140.344C69.7617 140.086 69.8438 139.652 69.7969 139.043C69.3281 138.949 68.9297 138.938 68.6016 139.008C68.2969 139.078 67.9805 139.16 67.6523 139.254C67.2305 139.371 66.7969 139.477 66.3516 139.57C65.9297 139.641 65.4609 139.676 64.9453 139.676C64.7578 139.676 64.582 139.676 64.418 139.676C64.2539 139.652 64.0781 139.629 63.8906 139.605L63.5391 139.535C63.4922 139.277 63.4453 139.137 63.3984 139.113C63.3516 139.066 63.3047 139.02 63.2578 138.973C63.1406 138.855 63.0117 138.703 62.8711 138.516C62.7539 138.305 62.7305 138.047 62.8008 137.742C62.6836 137.531 62.6133 137.32 62.5898 137.109C62.4492 137.391 62.3438 137.684 62.2734 137.988L62.1328 138.34L61.7812 138.41C61.7344 138.434 61.6992 138.492 61.6758 138.586C61.6523 138.656 61.6406 138.715 61.6406 138.762L61.4648 139.359C61.418 139.406 61.3711 139.453 61.3242 139.5C61.2773 139.523 61.2305 139.559 61.1836 139.605C61.1367 139.816 61.0781 140.027 61.0078 140.238C60.9375 140.449 60.8672 140.648 60.7969 140.836C60.6797 141.141 60.5742 141.445 60.4805 141.75C60.4102 142.031 60.3867 142.312 60.4102 142.594L60.2695 142.98C60.1523 143.121 60.0234 143.238 59.8828 143.332C59.7422 143.402 59.6016 143.473 59.4609 143.543C59.4141 143.59 59.3438 143.637 59.25 143.684C59.1797 143.707 59.1211 143.73 59.0742 143.754L58.9688 144.141L58.5469 144.211C58.2891 144.258 58.1016 144.293 57.9844 144.316C57.8906 144.34 57.7734 144.352 57.6328 144.352L57.2812 144.316C57.0234 144.105 56.8242 143.941 56.6836 143.824C56.543 143.684 56.3789 143.555 56.1914 143.438C55.9805 143.156 55.8633 142.945 55.8398 142.805C55.8164 142.664 55.793 142.535 55.7695 142.418C55.7227 142.277 55.6992 142.16 55.6992 142.066C55.6758 141.973 55.6406 141.902 55.5938 141.855L55.1367 141.434L55.5234 141.117L55.5586 140.52C56.0273 139.324 56.5195 138.176 57.0352 137.074C57.5742 135.973 58.125 134.848 58.6875 133.699C58.875 133.324 59.0508 132.949 59.2148 132.574C59.4023 132.199 59.5898 131.824 59.7773 131.449C59.7539 131.379 59.7422 131.297 59.7422 131.203C59.7422 131.109 59.7656 131.004 59.8125 130.887C60.0703 130.488 60.2812 130.137 60.4453 129.832C60.6094 129.504 60.7734 129.176 60.9375 128.848C61.125 128.449 61.3125 128.062 61.5 127.688C61.7109 127.312 61.9688 126.926 62.2734 126.527L62.8359 126.281C62.9062 126.258 62.9883 126.234 63.082 126.211C63.1758 126.164 63.2812 126.141 63.3984 126.141L63.9258 126.211C64.582 125.906 65.1562 125.484 65.6484 124.945C66.1406 124.383 66.6445 123.715 67.1602 122.941L67.5117 122.449L67.9688 122.73C68.0859 122.801 68.25 122.871 68.4609 122.941C68.6719 122.988 68.8945 123.047 69.1289 123.117C69.5508 123.211 69.9492 123.316 70.3242 123.434C70.6992 123.551 71.0039 123.727 71.2383 123.961C71.3789 124.336 71.4609 124.617 71.4844 124.805C71.5078 124.992 71.543 125.18 71.5898 125.367C71.6602 125.766 71.7188 126.164 71.7656 126.562C71.8359 126.961 71.8828 127.406 71.9062 127.898C72.0234 128.297 72.1172 128.695 72.1875 129.094C72.2812 129.469 72.3633 129.855 72.4336 130.254C72.5508 130.816 72.668 131.367 72.7852 131.906C72.9023 132.422 73.0547 132.914 73.2422 133.383C73.4297 133.383 73.5469 133.395 73.5938 133.418C73.7109 133.371 73.8281 133.336 73.9453 133.312C74.0859 133.289 74.2383 133.266 74.4023 133.242L74.7891 133.207L74.9297 133.559C74.9531 133.676 75.0703 133.793 75.2812 133.91C75.5859 133.934 75.8086 134.004 75.9492 134.121C76.0898 134.215 76.2188 134.32 76.3359 134.438C76.4297 134.531 76.5234 134.602 76.6172 134.648L77.1445 134.859L76.8633 135.387C76.6289 135.809 76.2891 136.219 75.8438 136.617C75.4219 136.992 74.9414 137.309 74.4023 137.566C74.4258 137.707 74.4375 137.848 74.4375 137.988C74.4609 138.105 74.4961 138.234 74.543 138.375C74.6133 138.773 74.6719 139.184 74.7188 139.605C74.7656 140.027 74.7656 140.461 74.7188 140.906L74.6484 141.047ZM64.4883 134.965C65.1914 134.918 65.8242 134.871 66.3867 134.824C66.9727 134.754 67.6172 134.648 68.3203 134.508C68.1562 133.805 67.9805 133.078 67.793 132.328C67.6055 131.555 67.4062 130.793 67.1953 130.043L66.9844 130.395C66.5156 130.887 66.0586 131.438 65.6133 132.047C65.1914 132.656 64.8281 133.23 64.5234 133.77C64.3828 133.98 64.2422 134.191 64.1016 134.402C63.9609 134.613 63.832 134.824 63.7148 135.035C63.8555 135.012 63.9844 135 64.1016 135C64.2422 135 64.3711 134.988 64.4883 134.965ZM95.1797 127.09C94.5938 127.09 93.9609 127.137 93.2812 127.23C92.6016 127.301 91.9336 127.383 91.2773 127.477C90.8086 127.547 90.3516 127.605 89.9062 127.652C89.4844 127.699 89.0977 127.734 88.7461 127.758C88.582 128.273 88.418 128.73 88.2539 129.129C88.0898 129.527 87.9141 129.914 87.7266 130.289C87.5391 130.688 87.3633 131.098 87.1992 131.52C87.0586 131.918 86.918 132.352 86.7773 132.82C86.543 133.195 86.3438 133.547 86.1797 133.875C86.0391 134.18 85.9219 134.531 85.8281 134.93C85.5469 135.281 85.3359 135.656 85.1953 136.055C85.0547 136.43 84.9492 136.758 84.8789 137.039L84.7383 137.461C84.5977 137.602 84.5156 137.719 84.4922 137.812C84.4688 137.883 84.4102 137.953 84.3164 138.023C84.293 138.281 84.2109 138.539 84.0703 138.797C84.0234 138.914 83.9883 139.031 83.9648 139.148C83.9414 139.242 83.9297 139.312 83.9297 139.359C83.9297 139.594 83.8711 139.746 83.7539 139.816C83.7773 139.934 83.7773 140.062 83.7539 140.203C83.7305 140.32 83.707 140.438 83.6836 140.555C83.6133 140.836 83.5898 141.059 83.6133 141.223C83.6836 141.316 83.7422 141.398 83.7891 141.469C83.8594 141.539 83.9062 141.633 83.9297 141.75C84.0703 141.844 84.1758 141.902 84.2461 141.926C84.3398 141.996 84.4805 142.078 84.668 142.172L84.9844 142.523C85.1016 143.203 84.9961 143.742 84.668 144.141C84.3164 144.586 83.7188 144.809 82.875 144.809H82.4531C82.3359 144.691 82.2656 144.598 82.2422 144.527C82.0547 144.457 81.9023 144.398 81.7852 144.352C81.668 144.305 81.5625 144.211 81.4688 144.07C81.1641 143.93 80.918 143.812 80.7305 143.719L80.4141 143.543C80.4141 143.285 80.4141 143.145 80.4141 143.121C80.25 142.91 80.1211 142.676 80.0273 142.418C79.957 142.16 79.8984 141.902 79.8516 141.645C79.8047 141.434 79.7461 141.234 79.6758 141.047C79.6289 140.859 79.5586 140.695 79.4648 140.555C79.418 139.195 79.5469 138.047 79.8516 137.109C80.1562 136.172 80.4727 135.27 80.8008 134.402C80.9883 133.934 81.1758 133.465 81.3633 132.996C81.5508 132.504 81.7148 132 81.8555 131.484L82.1719 131.133C82.3359 130.758 82.4648 130.453 82.5586 130.219C82.6758 129.961 82.793 129.703 82.9102 129.445C82.9805 129.281 83.0391 129.129 83.0859 128.988C83.1562 128.824 83.2148 128.684 83.2617 128.566C83.1211 128.566 82.9922 128.578 82.875 128.602C82.7578 128.602 82.6406 128.613 82.5234 128.637C82.3828 128.66 82.2539 128.684 82.1367 128.707C82.0195 128.707 81.9023 128.707 81.7852 128.707C81.6211 128.707 81.5039 128.695 81.4336 128.672C81.1758 128.789 80.8945 128.848 80.5898 128.848H80.2383C80.168 128.848 80.0977 128.848 80.0273 128.848C79.9805 128.824 79.9336 128.812 79.8867 128.812C79.6523 128.812 79.4648 128.848 79.3242 128.918C79.043 128.918 78.7734 128.918 78.5156 128.918H78.1641C78.1172 128.918 78.0586 128.93 77.9883 128.953C77.918 128.953 77.8594 128.953 77.8125 128.953C77.6484 128.953 77.4727 128.941 77.2852 128.918C77.0977 128.871 76.8984 128.789 76.6875 128.672C76.4062 128.297 76.2188 128.098 76.125 128.074L75.8086 127.652C75.7852 127.512 75.75 127.383 75.7031 127.266C75.6562 127.125 75.6094 126.973 75.5625 126.809C75.4688 126.574 75.375 126.328 75.2812 126.07C75.2109 125.789 75.1758 125.461 75.1758 125.086C75.1992 124.898 75.2461 124.758 75.3164 124.664C75.3867 124.57 75.4453 124.488 75.4922 124.418L75.5977 123.891L76.0547 123.926H77.0391C77.7891 123.926 78.5508 123.902 79.3242 123.855C80.0977 123.785 80.8945 123.715 81.7148 123.645C82.1836 123.598 82.6523 123.551 83.1211 123.504C83.6133 123.457 84.1172 123.41 84.6328 123.363C84.7266 123.152 84.8203 122.953 84.9141 122.766L85.2656 122.59C85.6875 122.566 85.9805 122.625 86.1445 122.766C86.332 122.883 86.4844 123 86.6016 123.117C87.1172 123.07 87.6328 123.023 88.1484 122.977C88.6875 122.906 89.2266 122.824 89.7656 122.73C90.5625 122.613 91.3594 122.508 92.1562 122.414C92.9766 122.32 93.7617 122.273 94.5117 122.273C94.8398 122.273 95.1562 122.285 95.4609 122.309C95.7656 122.332 96.0469 122.367 96.3047 122.414L96.6562 122.66C96.7266 122.801 96.8203 122.93 96.9375 123.047C97.0781 123.164 97.2188 123.281 97.3594 123.398C97.6406 123.656 97.9219 123.961 98.2031 124.312C98.4844 124.664 98.5898 125.18 98.5195 125.859C98.332 126.141 98.1914 126.305 98.0977 126.352L97.7812 126.773L97.4297 126.738C97.2891 126.738 97.1602 126.762 97.043 126.809C96.9258 126.832 96.8086 126.867 96.6914 126.914C96.5977 126.961 96.5039 127.008 96.4102 127.055C96.3164 127.078 96.2109 127.102 96.0938 127.125C95.8828 127.125 95.707 127.125 95.5664 127.125C95.4492 127.102 95.3203 127.09 95.1797 127.09ZM112.441 127.09C111.855 127.09 111.223 127.137 110.543 127.23C109.863 127.301 109.195 127.383 108.539 127.477C108.07 127.547 107.613 127.605 107.168 127.652C106.746 127.699 106.359 127.734 106.008 127.758C105.844 128.273 105.68 128.73 105.516 129.129C105.352 129.527 105.176 129.914 104.988 130.289C104.801 130.688 104.625 131.098 104.461 131.52C104.32 131.918 104.18 132.352 104.039 132.82C103.805 133.195 103.605 133.547 103.441 133.875C103.301 134.18 103.184 134.531 103.09 134.93C102.809 135.281 102.598 135.656 102.457 136.055C102.316 136.43 102.211 136.758 102.141 137.039L102 137.461C101.859 137.602 101.777 137.719 101.754 137.812C101.73 137.883 101.672 137.953 101.578 138.023C101.555 138.281 101.473 138.539 101.332 138.797C101.285 138.914 101.25 139.031 101.227 139.148C101.203 139.242 101.191 139.312 101.191 139.359C101.191 139.594 101.133 139.746 101.016 139.816C101.039 139.934 101.039 140.062 101.016 140.203C100.992 140.32 100.969 140.438 100.945 140.555C100.875 140.836 100.852 141.059 100.875 141.223C100.945 141.316 101.004 141.398 101.051 141.469C101.121 141.539 101.168 141.633 101.191 141.75C101.332 141.844 101.438 141.902 101.508 141.926C101.602 141.996 101.742 142.078 101.93 142.172L102.246 142.523C102.363 143.203 102.258 143.742 101.93 144.141C101.578 144.586 100.98 144.809 100.137 144.809H99.7148C99.5977 144.691 99.5273 144.598 99.5039 144.527C99.3164 144.457 99.1641 144.398 99.0469 144.352C98.9297 144.305 98.8242 144.211 98.7305 144.07C98.4258 143.93 98.1797 143.812 97.9922 143.719L97.6758 143.543C97.6758 143.285 97.6758 143.145 97.6758 143.121C97.5117 142.91 97.3828 142.676 97.2891 142.418C97.2188 142.16 97.1602 141.902 97.1133 141.645C97.0664 141.434 97.0078 141.234 96.9375 141.047C96.8906 140.859 96.8203 140.695 96.7266 140.555C96.6797 139.195 96.8086 138.047 97.1133 137.109C97.418 136.172 97.7344 135.27 98.0625 134.402C98.25 133.934 98.4375 133.465 98.625 132.996C98.8125 132.504 98.9766 132 99.1172 131.484L99.4336 131.133C99.5977 130.758 99.7266 130.453 99.8203 130.219C99.9375 129.961 100.055 129.703 100.172 129.445C100.242 129.281 100.301 129.129 100.348 128.988C100.418 128.824 100.477 128.684 100.523 128.566C100.383 128.566 100.254 128.578 100.137 128.602C100.02 128.602 99.9023 128.613 99.7852 128.637C99.6445 128.66 99.5156 128.684 99.3984 128.707C99.2812 128.707 99.1641 128.707 99.0469 128.707C98.8828 128.707 98.7656 128.695 98.6953 128.672C98.4375 128.789 98.1562 128.848 97.8516 128.848H97.5C97.4297 128.848 97.3594 128.848 97.2891 128.848C97.2422 128.824 97.1953 128.812 97.1484 128.812C96.9141 128.812 96.7266 128.848 96.5859 128.918C96.3047 128.918 96.0352 128.918 95.7773 128.918H95.4258C95.3789 128.918 95.3203 128.93 95.25 128.953C95.1797 128.953 95.1211 128.953 95.0742 128.953C94.9102 128.953 94.7344 128.941 94.5469 128.918C94.3594 128.871 94.1602 128.789 93.9492 128.672C93.668 128.297 93.4805 128.098 93.3867 128.074L93.0703 127.652C93.0469 127.512 93.0117 127.383 92.9648 127.266C92.918 127.125 92.8711 126.973 92.8242 126.809C92.7305 126.574 92.6367 126.328 92.543 126.07C92.4727 125.789 92.4375 125.461 92.4375 125.086C92.4609 124.898 92.5078 124.758 92.5781 124.664C92.6484 124.57 92.707 124.488 92.7539 124.418L92.8594 123.891L93.3164 123.926H94.3008C95.0508 123.926 95.8125 123.902 96.5859 123.855C97.3594 123.785 98.1562 123.715 98.9766 123.645C99.4453 123.598 99.9141 123.551 100.383 123.504C100.875 123.457 101.379 123.41 101.895 123.363C101.988 123.152 102.082 122.953 102.176 122.766L102.527 122.59C102.949 122.566 103.242 122.625 103.406 122.766C103.594 122.883 103.746 123 103.863 123.117C104.379 123.07 104.895 123.023 105.41 122.977C105.949 122.906 106.488 122.824 107.027 122.73C107.824 122.613 108.621 122.508 109.418 122.414C110.238 122.32 111.023 122.273 111.773 122.273C112.102 122.273 112.418 122.285 112.723 122.309C113.027 122.332 113.309 122.367 113.566 122.414L113.918 122.66C113.988 122.801 114.082 122.93 114.199 123.047C114.34 123.164 114.48 123.281 114.621 123.398C114.902 123.656 115.184 123.961 115.465 124.312C115.746 124.664 115.852 125.18 115.781 125.859C115.594 126.141 115.453 126.305 115.359 126.352L115.043 126.773L114.691 126.738C114.551 126.738 114.422 126.762 114.305 126.809C114.188 126.832 114.07 126.867 113.953 126.914C113.859 126.961 113.766 127.008 113.672 127.055C113.578 127.078 113.473 127.102 113.355 127.125C113.145 127.125 112.969 127.125 112.828 127.125C112.711 127.102 112.582 127.09 112.441 127.09ZM119.402 119.812C119.402 120.023 119.367 120.281 119.297 120.586C119.25 120.891 119.203 121.195 119.156 121.5C119.109 121.805 119.098 122.086 119.121 122.344C119.145 122.578 119.25 122.73 119.438 122.801C119.016 124.043 118.723 125.086 118.559 125.93C118.418 126.773 118.289 127.582 118.172 128.355C118.078 129.105 117.949 129.902 117.785 130.746C117.621 131.59 117.328 132.621 116.906 133.84C116.648 134.59 116.332 135.117 115.957 135.422C115.582 135.703 115.184 135.844 114.762 135.844C114.34 135.844 113.906 135.727 113.461 135.492C113.016 135.258 112.605 135 112.23 134.719C112.16 134.273 112.148 133.734 112.195 133.102C112.266 132.445 112.348 131.766 112.441 131.062C112.535 130.359 112.629 129.691 112.723 129.059C112.816 128.402 112.887 127.852 112.934 127.406C113.168 127.148 113.332 126.938 113.426 126.773C113.52 126.609 113.578 126.434 113.602 126.246C113.648 126.059 113.684 125.824 113.707 125.543C113.73 125.262 113.789 124.863 113.883 124.348C113.93 124.09 113.906 123.867 113.812 123.68C113.742 123.469 113.73 123.27 113.777 123.082C113.824 122.988 113.895 122.918 113.988 122.871C114.105 122.824 114.176 122.742 114.199 122.625C114.293 122.32 114.316 122.086 114.27 121.922C114.223 121.734 114.258 121.512 114.375 121.254C114.492 121.066 114.633 120.773 114.797 120.375C114.984 119.953 115.055 119.52 115.008 119.074C115.219 118.91 115.418 118.723 115.605 118.512C115.793 118.301 115.98 118.113 116.168 117.949C116.379 117.762 116.602 117.609 116.836 117.492C117.094 117.375 117.398 117.316 117.75 117.316C117.938 117.574 118.078 117.82 118.172 118.055C118.266 118.289 118.348 118.512 118.418 118.723C118.512 118.934 118.629 119.133 118.77 119.32C118.91 119.508 119.121 119.672 119.402 119.812ZM115.922 139.816C115.969 140.004 116.004 140.18 116.027 140.344C116.051 140.508 116.074 140.684 116.098 140.871C115.957 141.363 115.805 141.809 115.641 142.207C115.57 142.371 115.523 142.477 115.5 142.523C115.477 142.57 115.465 142.605 115.465 142.629C115.465 142.652 115.477 142.688 115.5 142.734C115.523 142.758 115.535 142.852 115.535 143.016L115.359 143.438C115.242 143.602 115.102 143.73 114.938 143.824C114.797 143.918 114.645 144 114.48 144.07C114.41 144.117 114.328 144.152 114.234 144.176C114.164 144.223 114.105 144.27 114.059 144.316L113.953 144.738L113.461 144.809C113.086 144.902 112.746 144.949 112.441 144.949H112.055C111.773 144.691 111.551 144.492 111.387 144.352C111.223 144.211 111.035 144.082 110.824 143.965C110.566 143.52 110.414 143.133 110.367 142.805C110.32 142.5 110.262 142.301 110.191 142.207L109.699 141.715L110.121 141.398L109.699 140.73C109.98 140.52 110.191 140.367 110.332 140.273C110.473 140.18 110.59 140.086 110.684 139.992C110.801 139.875 110.918 139.734 111.035 139.57C111.152 139.406 111.34 139.137 111.598 138.762L111.914 138.305L112.336 138.551C112.453 138.621 112.664 138.691 112.969 138.762C113.297 138.809 113.578 138.855 113.812 138.902C114.188 139.02 114.551 139.113 114.902 139.184C115.277 139.23 115.57 139.348 115.781 139.535L115.922 139.816Z" fill="black"/>
<path fill-rule="evenodd" clip-rule="evenodd" d="M53.4911 13.2112L53.4437 46.9616L53.4714 46.9618C53.7543 50.6397 61.5639 53.5983 71.1854 53.612C80.805 53.6253 88.6232 50.6877 88.9167 47.0115L88.9433 47.0115L88.9907 13.2612L53.4911 13.2112ZM71.193 48.0892C67.1436 48.0831 63.8651 44.7954 63.8702 40.7457C63.8763 36.6963 67.1643 33.4169 71.2137 33.423C75.2633 33.4281 78.5416 36.7168 78.5365 40.7664C78.5304 44.8159 75.2426 48.0943 71.193 48.0892Z" fill="#B0E4FF"/>
</g>
<defs>
<filter id="filter0_d_2_24" x="0.92099" y="11.1855" width="140.261" height="241.137" filterUnits="userSpaceOnUse" color-interpolation-filters="sRGB">
<feFlood flood-opacity="0" result="BackgroundImageFix"/>
<feColorMatrix in="SourceAlpha" type="matrix" values="0 0 0 0 0 0 0 0 0 0 0 0 0 0 0 0 0 0 127 0" result="hardAlpha"/>
<feOffset dy="2"/>
<feGaussianBlur stdDeviation="2"/>
<feColorMatrix type="matrix" values="0 0 0 0 0 0 0 0 0 0 0 0 0 0 0 0 0 0 0.35 0"/>
<feBlend mode="normal" in2="BackgroundImageFix" result="effect1_dropShadow_2_24"/>
<feBlend mode="normal" in="SourceGraphic" in2="effect1_dropShadow_2_24" result="shape"/>
</filter>
<clipPath id="clip0_2_24">
<rect width="141" height="253" fill="white"/>
</clipPath>
</defs>
</svg>
