<svg width="141" height="253" viewBox="0 0 141 253" fill="none" xmlns="http://www.w3.org/2000/svg">
<g clip-path="url(#clip0_2_17)">
<g filter="url(#filter0_d_2_17)">
<path fill-rule="evenodd" clip-rule="evenodd" d="M35.2439 13.1855C33.5856 13.1831 31.5105 14.3055 30.6095 15.6917L6.81464 52.3011C5.91348 53.6875 5.18108 56.1616 5.17877 57.8168L4.92099 243.138C4.91868 244.798 6.26625 246.145 7.92182 246.148L133.912 246.322C135.571 246.325 136.919 244.987 136.921 243.323L137.182 55.6637C137.184 54.0051 136.389 51.5767 135.408 50.2421L110.019 15.7057C109.037 14.3701 106.89 13.2854 105.239 13.2831L35.2439 13.1855ZM63.87 40.7467C63.8753 36.6961 67.1633 33.4167 71.2127 33.4227C75.2624 33.4278 78.5406 36.7166 78.5352 40.7672C78.5304 44.8159 75.2426 48.0943 71.193 48.0892C67.1436 48.0831 63.8651 44.7954 63.87 40.7467Z" fill="#F4F4F4"/>
</g>
<path d="M21.6416 83.708C21.501 83.708 21.4307 83.6055 21.4307 83.4004C21.4307 83.1953 21.4424 83.0078 21.4658 82.8379C21.4951 82.668 21.5303 82.5068 21.5713 82.3545C21.6123 82.2021 21.6592 82.0527 21.7119 81.9062L21.8789 81.4492C22.0195 81.0508 22.1162 80.6934 22.1689 80.377C22.2217 80.0605 22.2773 79.873 22.3359 79.8145C22.3945 79.75 22.459 79.7178 22.5293 79.7178C22.6465 79.7178 22.7988 79.8408 22.9863 80.0869C23.0801 80.1982 23.2178 80.2598 23.3994 80.2715C23.5869 80.2773 23.7656 80.2803 23.9355 80.2803H32.8301C33.1992 80.2803 33.4775 80.2158 33.665 80.0869C33.8525 79.958 33.9814 79.8643 34.0518 79.8057C34.1221 79.7471 34.1807 79.7178 34.2275 79.7178C34.2744 79.7178 34.3154 79.7207 34.3506 79.7266C34.3916 79.7324 34.4297 79.7471 34.4648 79.7705C34.5645 79.8291 34.5703 79.9609 34.4824 80.166C34.4004 80.3652 34.3066 80.623 34.2012 80.9395C34.0957 81.25 33.999 81.5547 33.9111 81.8535C33.7529 82.3984 33.6416 82.8203 33.5771 83.1191C33.4951 83.5293 33.3809 83.7344 33.2344 83.7344C33.082 83.7344 32.9883 83.6436 32.9531 83.4619C32.9238 83.2744 32.8887 83.1104 32.8477 82.9697C32.8066 82.8232 32.7539 82.6914 32.6895 82.5742C32.291 81.8711 31.0547 81.5195 28.9805 81.5195V91.0469C28.9805 91.8203 29.0273 92.3359 29.1211 92.5938C29.2207 92.8516 29.335 93.0303 29.4639 93.1299C29.5928 93.2236 29.7305 93.2705 29.877 93.2705C30.0293 93.2705 30.1406 93.2676 30.2109 93.2617C30.3809 93.2383 30.5039 93.2207 30.5801 93.209C30.6562 93.1973 30.7383 93.1914 30.8262 93.1914C30.9199 93.1914 30.9961 93.2383 31.0547 93.332C31.1133 93.4199 31.1426 93.499 31.1426 93.5693C31.1426 93.6338 31.125 93.6982 31.0898 93.7627C31.0547 93.8271 30.999 93.8857 30.9229 93.9385C30.7354 94.0674 30.5068 94.1318 30.2373 94.1318C29.9736 94.1318 29.7422 94.123 29.543 94.1055C29.3496 94.0938 29.168 94.082 28.998 94.0703L28.4883 94.0176C28.3242 94.0059 28.1455 94 27.9521 94C27.7588 94 27.5801 94.0059 27.416 94.0176L26.9062 94.0703C26.3965 94.1113 26.0215 94.1318 25.7812 94.1318C25.5469 94.1318 25.3711 94.1113 25.2539 94.0703C25.1426 94.0352 25.0488 93.9912 24.9727 93.9385C24.8262 93.833 24.7529 93.7275 24.7529 93.6221C24.7529 93.5166 24.7822 93.4199 24.8408 93.332C24.8994 93.2383 24.9756 93.1914 25.0693 93.1914C25.1631 93.1914 25.2393 93.1973 25.2979 93.209C25.3623 93.2148 25.4238 93.2207 25.4824 93.2266C25.6699 93.2559 25.8428 93.2705 26.001 93.2705C26.1592 93.2705 26.3027 93.2236 26.4316 93.1299C26.5605 93.0361 26.6602 92.8955 26.7305 92.708C26.8535 92.3799 26.915 91.8262 26.915 91.0469V81.5107C25.7549 81.5107 24.9199 81.5928 24.4102 81.7568C24.334 81.7803 24.1875 81.8184 23.9707 81.8711C23.7539 81.9238 23.5078 82.0557 23.2324 82.2666C22.957 82.4717 22.7139 82.6826 22.5029 82.8994C22.292 83.1104 22.1133 83.2979 21.9668 83.4619C21.8262 83.626 21.7178 83.708 21.6416 83.708ZM35.4141 89.2715C35.4141 88.7676 35.543 88.2285 35.8008 87.6543C36.0645 87.0801 36.4219 86.5762 36.873 86.1426C37.8516 85.2109 39.0439 84.7451 40.4502 84.7451C42.0791 84.7451 43.3418 85.2314 44.2383 86.2041C45.041 87.0771 45.4424 88.1172 45.4424 89.3242C45.4424 90.748 45.0176 91.9053 44.168 92.7959C43.2715 93.7393 42.0439 94.2109 40.4854 94.2109C38.2354 94.2109 36.7031 93.3613 35.8887 91.6621C35.5723 91 35.4141 90.2031 35.4141 89.2715ZM37.7871 87.584C37.6641 87.918 37.6025 88.3604 37.6025 88.9111C37.6025 89.4619 37.6934 89.9922 37.875 90.502C38.0625 91.0117 38.3086 91.4424 38.6133 91.7939C39.252 92.5205 40.0107 92.8838 40.8896 92.8838C41.9678 92.8838 42.6855 92.4121 43.043 91.4688C43.166 91.1465 43.2275 90.6895 43.2275 90.0977C43.2275 89.5059 43.1309 88.9463 42.9375 88.4189C42.7441 87.8857 42.4922 87.4463 42.1816 87.1006C41.5723 86.4209 40.8311 86.0811 39.958 86.0811C38.874 86.0811 38.1504 86.582 37.7871 87.584ZM48.1934 93.7275C48.0703 93.5869 47.9795 93.4316 47.9209 93.2617C47.8623 93.0918 47.833 92.9189 47.833 92.7432C47.833 92.5674 47.8682 92.3887 47.9385 92.207C48.0146 92.0254 48.123 91.8643 48.2637 91.7236C48.5566 91.4189 48.9258 91.2666 49.3711 91.2666C49.8281 91.2666 50.1943 91.4336 50.4697 91.7676C50.71 92.0605 50.8301 92.4062 50.8301 92.8047C50.8301 93.1504 50.6953 93.4639 50.4258 93.7451C50.1211 94.0557 49.7959 94.2109 49.4502 94.2109C49.1104 94.2109 48.8467 94.1641 48.6592 94.0703C48.4717 93.9824 48.3164 93.8682 48.1934 93.7275ZM48.1934 87.7246C48.0703 87.584 47.9795 87.4287 47.9209 87.2588C47.8623 87.0889 47.833 86.916 47.833 86.7402C47.833 86.5645 47.8682 86.3857 47.9385 86.2041C48.0146 86.0225 48.123 85.8613 48.2637 85.7207C48.5566 85.416 48.9258 85.2637 49.3711 85.2637C49.8281 85.2637 50.1943 85.4307 50.4697 85.7646C50.71 86.0576 50.8301 86.4033 50.8301 86.8018C50.8301 87.1475 50.6953 87.4609 50.4258 87.7422C50.1211 88.0527 49.7959 88.208 49.4502 88.208C49.1104 88.208 48.8467 88.1641 48.6592 88.0762C48.4717 87.9824 48.3164 87.8652 48.1934 87.7246ZM27.3984 186.123L24.8584 186C24.5654 186 24.2871 186.015 24.0234 186.044C23.5488 186.097 23.1768 186.123 22.9072 186.123C22.6436 186.123 22.459 186.103 22.3535 186.062C22.248 186.026 22.1631 185.982 22.0986 185.93C21.9814 185.836 21.9229 185.733 21.9229 185.622C21.9229 185.347 22.0371 185.209 22.2656 185.209L22.8281 185.262C23.2324 185.262 23.502 185.104 23.6367 184.787C23.7539 184.512 23.8125 183.99 23.8125 183.223V175.163C23.8125 174.372 23.7598 173.859 23.6543 173.625C23.5488 173.391 23.4229 173.229 23.2764 173.142C23.1299 173.054 22.9365 173.01 22.6963 173.01L22.2656 173.062C22.1543 173.062 22.0693 173.024 22.0107 172.948C21.9521 172.872 21.9229 172.796 21.9229 172.72C21.9229 172.644 21.9346 172.576 21.958 172.518C21.9873 172.453 22.0342 172.395 22.0986 172.342C22.2568 172.213 22.4648 172.148 22.7227 172.148C22.9805 172.148 23.2002 172.154 23.3818 172.166L24.4102 172.254C24.5742 172.271 24.7617 172.28 24.9727 172.28H32.3379C32.3789 172.556 32.4375 172.834 32.5137 173.115L32.7334 173.95C32.9033 174.577 32.9883 174.996 32.9883 175.207C32.9883 175.412 32.9238 175.515 32.7949 175.515C32.6953 175.515 32.5664 175.415 32.4082 175.216C32.25 175.017 32.0742 174.809 31.8809 174.592C31.6875 174.369 31.4707 174.17 31.2305 173.994C30.6855 173.613 30.0264 173.423 29.2529 173.423H26.7041C26.4463 173.423 26.2441 173.508 26.0977 173.678C25.957 173.848 25.8867 174.082 25.8867 174.381V177.984C25.8867 178.295 26.1416 178.45 26.6514 178.45H29.0684C29.4668 178.45 29.8359 178.245 30.1758 177.835C30.293 177.694 30.3809 177.557 30.4395 177.422C30.498 177.281 30.5449 177.188 30.5801 177.141C30.6211 177.094 30.6826 177.07 30.7646 177.07C30.9404 177.07 31.0283 177.234 31.0283 177.562L30.958 179.083L31.0283 180.463C31.0283 180.791 30.9404 180.955 30.7646 180.955C30.6416 180.955 30.5479 180.867 30.4834 180.691C30.2373 180.146 29.8857 179.801 29.4287 179.654C29.2998 179.613 29.1797 179.593 29.0684 179.593H26.6426C26.4023 179.593 26.2148 179.646 26.0801 179.751C25.9512 179.851 25.8867 179.977 25.8867 180.129V183.223C25.8867 183.984 25.9336 184.477 26.0273 184.699C26.1211 184.922 26.2324 185.071 26.3613 185.147C26.4902 185.224 26.6602 185.262 26.8711 185.262L27.9873 185.183C28.0869 185.183 28.166 185.229 28.2246 185.323C28.2832 185.411 28.3125 185.49 28.3125 185.561C28.3125 185.625 28.2949 185.689 28.2598 185.754C28.2246 185.818 28.1719 185.877 28.1016 185.93C27.9199 186.059 27.6855 186.123 27.3984 186.123ZM35.2383 186.132C34.6465 186.132 34.3506 185.953 34.3506 185.596C34.3506 185.502 34.3799 185.417 34.4385 185.341C34.5029 185.259 34.585 185.218 34.6846 185.218L35.124 185.279C35.458 185.279 35.6924 185.121 35.8271 184.805C35.9736 184.465 36.0469 183.861 36.0469 182.994V180.313C36.0469 179.458 35.9766 178.878 35.8359 178.573C35.6953 178.286 35.5283 178.107 35.335 178.037C35.1416 177.967 34.9658 177.911 34.8076 177.87C34.6553 177.823 34.5205 177.771 34.4033 177.712C34.292 177.653 34.2363 177.586 34.2363 177.51C34.2363 177.428 34.2451 177.36 34.2627 177.308C34.2803 177.255 34.3096 177.205 34.3506 177.158C34.4502 177.047 34.6025 176.991 34.8076 176.991L36.0996 177.097L37.4268 176.991C37.8896 176.991 38.1211 177.296 38.1211 177.905V178.521C38.6719 177.677 39.3926 177.129 40.2832 176.877C40.5762 176.789 40.8809 176.745 41.1973 176.745C42.2871 176.745 42.832 177.094 42.832 177.791L42.8145 179.962C42.8145 180.044 42.7881 180.114 42.7354 180.173C42.6885 180.226 42.6328 180.252 42.5684 180.252C42.416 180.252 42.3047 180.117 42.2344 179.848C42.1641 179.578 42.0645 179.35 41.9355 179.162C41.8066 178.969 41.6602 178.816 41.4961 178.705C41.1914 178.512 40.8662 178.415 40.5205 178.415C40.1807 178.415 39.8936 178.471 39.6592 178.582C39.4248 178.693 39.208 178.834 39.0088 179.004C38.6221 179.344 38.3262 179.73 38.1211 180.164V182.994C38.1211 183.967 38.2031 184.605 38.3672 184.91C38.502 185.156 38.7744 185.279 39.1846 185.279L39.791 185.209C39.8906 185.209 39.9697 185.25 40.0283 185.332C40.0869 185.414 40.1162 185.493 40.1162 185.569C40.1162 185.646 40.0898 185.716 40.0371 185.78C39.9902 185.845 39.9258 185.903 39.8438 185.956C39.5801 186.12 39.1699 186.17 38.6133 186.105C38.4785 186.094 38.3438 186.082 38.209 186.07C37.5352 185.994 37.0312 185.971 36.6973 186C36.3633 186.029 36.126 186.05 35.9854 186.062C35.8447 186.079 35.7158 186.094 35.5986 186.105C35.4814 186.123 35.3613 186.132 35.2383 186.132ZM44.3965 181.271C44.3965 180.768 44.5254 180.229 44.7832 179.654C45.0469 179.08 45.4043 178.576 45.8555 178.143C46.834 177.211 48.0264 176.745 49.4326 176.745C51.0615 176.745 52.3242 177.231 53.2207 178.204C54.0234 179.077 54.4248 180.117 54.4248 181.324C54.4248 182.748 54 183.905 53.1504 184.796C52.2539 185.739 51.0264 186.211 49.4678 186.211C47.2178 186.211 45.6855 185.361 44.8711 183.662C44.5547 183 44.3965 182.203 44.3965 181.271ZM46.7695 179.584C46.6465 179.918 46.585 180.36 46.585 180.911C46.585 181.462 46.6758 181.992 46.8574 182.502C47.0449 183.012 47.291 183.442 47.5957 183.794C48.2344 184.521 48.9932 184.884 49.8721 184.884C50.9502 184.884 51.668 184.412 52.0254 183.469C52.1484 183.146 52.21 182.689 52.21 182.098C52.21 181.506 52.1133 180.946 51.9199 180.419C51.7266 179.886 51.4746 179.446 51.1641 179.101C50.5547 178.421 49.8135 178.081 48.9404 178.081C47.8564 178.081 47.1328 178.582 46.7695 179.584ZM57.1406 186.132C56.5488 186.132 56.2529 185.953 56.2529 185.596C56.2529 185.502 56.2822 185.417 56.3408 185.341C56.4053 185.259 56.4873 185.218 56.5869 185.218L57.0264 185.279C57.5068 185.279 57.7969 184.852 57.8965 183.996C57.9316 183.686 57.9492 183.308 57.9492 182.862V180.278C57.9492 179.165 57.8203 178.438 57.5625 178.099C57.4746 177.981 57.3486 177.899 57.1846 177.853C57.0264 177.806 56.8682 177.765 56.71 177.729C56.5576 177.694 56.4229 177.653 56.3057 177.606C56.1943 177.56 56.1387 177.486 56.1387 177.387C56.1387 177.123 56.3291 176.991 56.71 176.991L58.002 177.097L59.3291 176.991C59.5693 176.991 59.7246 177.035 59.7949 177.123C59.9355 177.287 60.0117 177.586 60.0234 178.02C61.0723 177.17 62.168 176.745 63.3105 176.745C64.0078 176.745 64.6055 176.883 65.1035 177.158C65.6074 177.434 65.9883 177.814 66.2461 178.301C66.9844 177.586 67.8516 177.108 68.8477 176.868C69.1875 176.786 69.5713 176.745 69.999 176.745C70.4268 176.745 70.8428 176.818 71.2471 176.965C71.6572 177.111 72.0059 177.319 72.293 177.589C72.8848 178.151 73.1807 178.89 73.1807 179.804V182.862C73.1807 183.794 73.2334 184.397 73.3389 184.673C73.4443 184.942 73.5498 185.112 73.6553 185.183C73.7666 185.247 73.8926 185.279 74.0332 185.279L74.4902 185.218C74.584 185.218 74.6602 185.259 74.7188 185.341C74.7773 185.423 74.8066 185.499 74.8066 185.569C74.8066 185.64 74.792 185.707 74.7627 185.771C74.7393 185.83 74.6953 185.886 74.6309 185.938C74.4316 186.114 74.0566 186.17 73.5059 186.105L72.6885 186.018C72.5479 186.006 72.3896 186 72.2139 186L70.3594 186.132C69.7324 186.132 69.4189 185.953 69.4189 185.596C69.4189 185.502 69.4512 185.417 69.5156 185.341C69.5801 185.259 69.6621 185.218 69.7617 185.218L70.2188 185.279C70.5645 185.279 70.7988 185.098 70.9219 184.734C71.0332 184.406 71.0889 183.782 71.0889 182.862V180.155C71.0889 179.534 70.9336 179.051 70.623 178.705C70.3125 178.354 69.9023 178.178 69.3926 178.178C68.4375 178.178 67.4883 178.614 66.5449 179.487C66.5859 179.745 66.6064 179.971 66.6064 180.164V182.862C66.6064 183.8 66.6592 184.403 66.7646 184.673C66.876 184.942 66.9844 185.112 67.0898 185.183C67.1953 185.247 67.3184 185.279 67.459 185.279L67.9248 185.218C68.0244 185.218 68.1006 185.259 68.1533 185.341C68.2119 185.423 68.2412 185.499 68.2412 185.569C68.2412 185.64 68.2266 185.707 68.1973 185.771C68.1738 185.83 68.1299 185.886 68.0654 185.938C67.8545 186.108 67.4795 186.164 66.9404 186.105L66.123 186.018C65.9766 186.006 65.8154 186 65.6396 186L63.7852 186.132C63.2812 186.132 62.9824 186.012 62.8887 185.771C62.8652 185.707 62.8535 185.64 62.8535 185.569C62.8535 185.493 62.8828 185.417 62.9414 185.341C63.0059 185.259 63.0908 185.218 63.1963 185.218L63.6533 185.279C64.0049 185.279 64.2393 185.104 64.3564 184.752C64.4678 184.418 64.5234 183.788 64.5234 182.862V180.155C64.5234 179.534 64.3652 179.051 64.0488 178.705C63.7383 178.354 63.3047 178.178 62.748 178.178C61.8809 178.178 60.9727 178.6 60.0234 179.443V182.862C60.0234 183.853 60.082 184.474 60.1992 184.726C60.3223 184.978 60.4453 185.133 60.5684 185.191C60.6973 185.25 60.8467 185.279 61.0166 185.279L61.4561 185.218C61.5557 185.218 61.6318 185.259 61.6846 185.341C61.7432 185.417 61.7725 185.502 61.7725 185.596C61.7725 185.953 61.4678 186.132 60.8584 186.132C60.5537 186.132 60.2461 186.108 59.9355 186.062C59.6309 186.021 59.335 186 59.0479 186C58.7607 186 58.5293 186.006 58.3535 186.018C58.1836 186.035 58.0283 186.05 57.8877 186.062C57.7471 186.079 57.6182 186.094 57.501 186.105C57.3838 186.123 57.2637 186.132 57.1406 186.132ZM77.1973 185.728C77.0742 185.587 76.9834 185.432 76.9248 185.262C76.8662 185.092 76.8369 184.919 76.8369 184.743C76.8369 184.567 76.8721 184.389 76.9424 184.207C77.0186 184.025 77.127 183.864 77.2676 183.724C77.5605 183.419 77.9297 183.267 78.375 183.267C78.832 183.267 79.1982 183.434 79.4736 183.768C79.7139 184.061 79.834 184.406 79.834 184.805C79.834 185.15 79.6992 185.464 79.4297 185.745C79.125 186.056 78.7998 186.211 78.4541 186.211C78.1143 186.211 77.8506 186.164 77.6631 186.07C77.4756 185.982 77.3203 185.868 77.1973 185.728ZM77.1973 179.725C77.0742 179.584 76.9834 179.429 76.9248 179.259C76.8662 179.089 76.8369 178.916 76.8369 178.74C76.8369 178.564 76.8721 178.386 76.9424 178.204C77.0186 178.022 77.127 177.861 77.2676 177.721C77.5605 177.416 77.9297 177.264 78.375 177.264C78.832 177.264 79.1982 177.431 79.4736 177.765C79.7139 178.058 79.834 178.403 79.834 178.802C79.834 179.147 79.6992 179.461 79.4297 179.742C79.125 180.053 78.7998 180.208 78.4541 180.208C78.1143 180.208 77.8506 180.164 77.6631 180.076C77.4756 179.982 77.3203 179.865 77.1973 179.725Z" fill="black"/>
<path d="M43.2969 217.258C42.8438 217.148 42.4922 216.969 42.2422 216.719C42.0078 216.453 41.8281 216.148 41.7031 215.805C41.5938 215.445 41.5156 215.055 41.4688 214.633C41.4375 214.211 41.3984 213.773 41.3516 213.32C41.4141 213.117 41.4922 212.945 41.5859 212.805C41.6953 212.664 41.7422 212.469 41.7266 212.219C41.8984 211.719 42.0547 211.234 42.1953 210.766C42.3359 210.297 42.4297 209.812 42.4766 209.312C42.5703 209.172 42.6641 209.078 42.7578 209.031C42.8828 208.141 42.8984 207.227 42.8047 206.289C42.7109 205.352 42.5547 204.484 42.3359 203.688C42.3516 203.516 42.375 203.391 42.4062 203.312C42.4375 203.219 42.4375 203.141 42.4062 203.078C42.375 202.938 42.4219 202.867 42.5469 202.867C42.6719 202.867 42.7969 202.867 42.9219 202.867C42.9219 202.586 42.8672 202.312 42.7578 202.047C42.6641 201.766 42.5703 201.445 42.4766 201.086C42.6016 200.805 42.6875 200.531 42.7344 200.266C42.7812 200 42.8672 199.758 42.9922 199.539C43.4922 199.695 43.9844 199.875 44.4688 200.078C44.9531 200.281 45.4297 200.484 45.8984 200.688C46.3672 200.875 46.8281 201.062 47.2812 201.25C47.7344 201.422 48.1797 201.562 48.6172 201.672C49.2891 202.156 49.9766 202.641 50.6797 203.125C51.3984 203.594 52.0469 204.117 52.625 204.695C53.2188 205.258 53.7109 205.906 54.1016 206.641C54.4922 207.375 54.7188 208.242 54.7812 209.242C54.75 209.336 54.7266 209.414 54.7109 209.477C54.6953 209.539 54.6797 209.602 54.6641 209.664C54.6484 209.727 54.6406 209.797 54.6406 209.875C54.6406 209.953 54.6406 210.062 54.6406 210.203C54.0781 211.188 53.3672 212.016 52.5078 212.688C51.6484 213.359 50.7109 213.953 49.6953 214.469C48.6797 214.984 47.6172 215.461 46.5078 215.898C45.4141 216.32 44.3438 216.773 43.2969 217.258ZM45.5938 203.969C45.4531 203.969 45.3516 204 45.2891 204.062C45.4766 204.766 45.6172 205.43 45.7109 206.055C45.8047 206.68 45.8516 207.305 45.8516 207.93C45.8672 208.555 45.8359 209.195 45.7578 209.852C45.6797 210.508 45.5703 211.219 45.4297 211.984C45.6328 211.969 45.8125 211.93 45.9688 211.867C46.125 211.805 46.2812 211.734 46.4375 211.656C46.6094 211.578 46.7812 211.508 46.9531 211.445C47.1406 211.383 47.3516 211.344 47.5859 211.328C47.6484 211.203 47.7266 211.109 47.8203 211.047C47.9297 210.969 48.0234 210.891 48.1016 210.812C48.4922 210.656 48.8828 210.492 49.2734 210.32C49.6641 210.148 50.0234 209.953 50.3516 209.734C50.6797 209.516 50.9766 209.266 51.2422 208.984C51.5078 208.703 51.7266 208.367 51.8984 207.977C51.7734 207.742 51.6172 207.547 51.4297 207.391C51.2578 207.219 51.0703 207.055 50.8672 206.898C50.6797 206.727 50.4922 206.555 50.3047 206.383C50.1328 206.195 49.9922 205.984 49.8828 205.75C49.6328 205.719 49.4141 205.656 49.2266 205.562C49.0391 205.453 48.8594 205.352 48.6875 205.258C48.5156 205.148 48.3281 205.047 48.125 204.953C47.9375 204.859 47.7109 204.805 47.4453 204.789C47.0391 204.57 46.6719 204.422 46.3438 204.344C46.0156 204.25 45.7656 204.125 45.5938 203.969ZM58.9062 214.562C58.7344 215.188 58.5781 215.664 58.4375 215.992C58.3125 216.305 58.1172 216.633 57.8516 216.977C57.6484 216.945 57.5078 216.969 57.4297 217.047C57.3516 217.125 57.2656 217.195 57.1719 217.258C57.0312 217.289 56.9297 217.289 56.8672 217.258C56.8047 217.227 56.75 217.188 56.7031 217.141C56.6562 217.109 56.5938 217.07 56.5156 217.023C56.4531 216.992 56.3516 216.977 56.2109 216.977C56.1797 216.852 56.1406 216.734 56.0938 216.625C56.0625 216.516 55.9609 216.477 55.7891 216.508C55.8203 216.383 55.8281 216.281 55.8125 216.203C55.7969 216.109 55.7734 216.031 55.7422 215.969C55.7266 215.891 55.7109 215.82 55.6953 215.758C55.6797 215.68 55.6875 215.586 55.7188 215.477C55.6406 215.477 55.5781 215.422 55.5312 215.312C55.4844 215.203 55.4297 215.094 55.3672 214.984C55.4141 214.703 55.4609 214.438 55.5078 214.188C55.5547 213.938 55.6094 213.703 55.6719 213.484C55.75 213.266 55.8125 213.047 55.8594 212.828C55.9062 212.609 55.8828 212.383 55.7891 212.148C55.8516 212.195 55.8984 212.188 55.9297 212.125C55.9609 212.047 55.9844 211.953 56 211.844C56.0156 211.719 56.0234 211.602 56.0234 211.492C56.0234 211.367 56.0156 211.266 56 211.188C56.1562 210.781 56.2812 210.367 56.375 209.945C56.4844 209.508 56.5781 209.078 56.6562 208.656C56.75 208.234 56.8438 207.82 56.9375 207.414C57.0312 207.008 57.1562 206.633 57.3125 206.289C57.4844 206.258 57.6719 206.281 57.875 206.359C58.0938 206.422 58.2266 206.508 58.2734 206.617C58.6797 206.305 59.0391 205.93 59.3516 205.492C59.6641 205.039 59.9844 204.602 60.3125 204.18C60.6406 203.758 61 203.383 61.3906 203.055C61.7969 202.727 62.3047 202.531 62.9141 202.469C63.2266 202.703 63.5703 202.945 63.9453 203.195C64.3359 203.43 64.6562 203.742 64.9062 204.133C65.0312 204.195 65.1328 204.266 65.2109 204.344C65.3047 204.406 65.4141 204.477 65.5391 204.555V204.836C65.7266 205.008 65.875 205.211 65.9844 205.445C66.1094 205.664 66.2188 205.906 66.3125 206.172C66.4062 206.422 66.5 206.68 66.5938 206.945C66.6875 207.195 66.7969 207.438 66.9219 207.672C66.8906 207.75 66.875 207.82 66.875 207.883C66.875 207.93 66.8828 207.984 66.8984 208.047C66.9297 208.109 66.9531 208.172 66.9688 208.234C66.9844 208.297 66.9844 208.383 66.9688 208.492C66.9219 209.18 66.6953 209.734 66.2891 210.156C65.8984 210.578 65.4219 210.93 64.8594 211.211C64.2969 211.477 63.6953 211.703 63.0547 211.891C62.4141 212.078 61.8359 212.281 61.3203 212.5C61.3203 212.562 61.3438 212.594 61.3906 212.594C61.4531 212.594 61.4766 212.633 61.4609 212.711C61.8359 212.945 62.1328 213.133 62.3516 213.273C62.5703 213.414 62.7734 213.531 62.9609 213.625C63.1641 213.719 63.375 213.805 63.5938 213.883C63.8281 213.945 64.1484 214.023 64.5547 214.117C64.9609 214.211 65.2734 214.289 65.4922 214.352C65.7266 214.398 65.9375 214.445 66.125 214.492C66.3125 214.523 66.5 214.555 66.6875 214.586C66.8906 214.602 67.1719 214.625 67.5312 214.656C67.6719 214.797 67.7891 214.969 67.8828 215.172C67.9922 215.359 68.0625 215.555 68.0938 215.758C68.125 215.945 68.1328 216.133 68.1172 216.32C68.1016 216.492 68.0469 216.633 67.9531 216.742C67.9688 216.789 68 216.812 68.0469 216.812C68.1094 216.797 68.1719 216.797 68.2344 216.812C68.1406 216.875 68.0625 216.953 68 217.047C67.9375 217.141 67.875 217.234 67.8125 217.328C67.75 217.422 67.6797 217.5 67.6016 217.562C67.5234 217.641 67.4141 217.688 67.2734 217.703C66.7891 217.891 66.1797 217.898 65.4453 217.727C64.7109 217.57 63.7812 217.273 62.6562 216.836C62.0938 216.617 61.6328 216.43 61.2734 216.273C60.9297 216.102 60.625 215.938 60.3594 215.781C60.1094 215.609 59.875 215.43 59.6562 215.242C59.4531 215.055 59.2031 214.828 58.9062 214.562ZM62.2578 206.523C62.0859 206.773 61.8906 207 61.6719 207.203C61.4688 207.406 61.2656 207.617 61.0625 207.836C60.875 208.039 60.7031 208.273 60.5469 208.539C60.3906 208.789 60.2812 209.086 60.2188 209.43C60.7656 209.367 61.3359 209.219 61.9297 208.984C62.5234 208.734 63.0859 208.5 63.6172 208.281C63.5547 207.797 63.3828 207.406 63.1016 207.109C62.8359 206.812 62.5547 206.617 62.2578 206.523ZM81.1953 203.805C81.2109 203.914 81.2109 204 81.1953 204.062C81.1953 204.109 81.1875 204.156 81.1719 204.203C81.1719 204.25 81.1719 204.305 81.1719 204.367C81.1719 204.414 81.1875 204.492 81.2188 204.602C80.8906 205.133 80.5078 205.5 80.0703 205.703C79.6484 205.891 79.1875 206.031 78.6875 206.125C78.1875 206.203 77.6719 206.289 77.1406 206.383C76.625 206.477 76.1094 206.68 75.5938 206.992C75.3906 206.914 75.2031 206.914 75.0312 206.992C74.875 207.07 74.6406 207.094 74.3281 207.062C74.2344 207.156 74.1172 207.227 73.9766 207.273C73.8359 207.305 73.6953 207.344 73.5547 207.391C73.6172 207.531 73.6406 207.68 73.625 207.836C73.625 207.977 73.6484 208.094 73.6953 208.188C74.2422 208.234 74.8438 208.227 75.5 208.164C76.1719 208.102 76.8281 208.062 77.4688 208.047C77.4844 208.125 77.4766 208.18 77.4453 208.211C77.4141 208.227 77.4062 208.266 77.4219 208.328C77.5312 208.406 77.6406 208.508 77.75 208.633C77.8594 208.742 77.9688 208.852 78.0781 208.961C78.1875 209.07 78.2969 209.164 78.4062 209.242C78.5312 209.305 78.6719 209.328 78.8281 209.312C78.8906 209.438 78.9297 209.578 78.9453 209.734C78.9766 209.875 78.9609 210.023 78.8984 210.18C78.6484 210.352 78.3984 210.531 78.1484 210.719C77.8984 210.891 77.6328 211.047 77.3516 211.188C77.0859 211.328 76.7969 211.445 76.4844 211.539C76.1875 211.617 75.8516 211.648 75.4766 211.633C75.3984 211.633 75.3359 211.633 75.2891 211.633C75.2578 211.633 75.2109 211.609 75.1484 211.562C75.0234 211.641 74.8438 211.664 74.6094 211.633C74.3906 211.602 74.2188 211.625 74.0938 211.703C73.9219 211.625 73.7109 211.594 73.4609 211.609C73.2266 211.609 73.0156 211.578 72.8281 211.516C72.5781 211.844 72.3516 212.195 72.1484 212.57C71.9453 212.945 71.7656 213.344 71.6094 213.766C72.1406 213.844 72.5781 213.875 72.9219 213.859C73.2812 213.844 73.6172 213.82 73.9297 213.789C74.2422 213.742 74.5625 213.703 74.8906 213.672C75.2188 213.625 75.6328 213.609 76.1328 213.625C76.4453 213.453 76.8125 213.344 77.2344 213.297C77.6719 213.234 78.0703 213.141 78.4297 213.016C78.5547 213.062 78.6641 213.148 78.7578 213.273C78.8516 213.383 78.9375 213.492 79.0156 213.602C79.1094 213.695 79.2031 213.781 79.2969 213.859C79.3906 213.938 79.5078 213.969 79.6484 213.953C79.7109 214.016 79.75 214.094 79.7656 214.188C79.7969 214.266 79.8203 214.344 79.8359 214.422C79.8516 214.5 79.875 214.57 79.9062 214.633C79.9531 214.68 80.0234 214.695 80.1172 214.68C79.8828 215.195 79.6094 215.594 79.2969 215.875C79 216.141 78.6562 216.344 78.2656 216.484C77.875 216.625 77.4375 216.734 76.9531 216.812C76.4844 216.891 75.9609 216.984 75.3828 217.094C75.2422 217.125 75.125 217.117 75.0312 217.07C74.9375 217.039 74.8281 217.023 74.7031 217.023C74.3438 217.102 73.9141 217.172 73.4141 217.234C72.9141 217.297 72.4062 217.32 71.8906 217.305C71.375 217.289 70.8828 217.219 70.4141 217.094C69.9453 216.984 69.5625 216.781 69.2656 216.484C69.1406 216.375 69.0547 216.25 69.0078 216.109C68.9766 215.953 68.875 215.836 68.7031 215.758C68.6875 215.555 68.6562 215.328 68.6094 215.078C68.5625 214.828 68.5156 214.57 68.4688 214.305C68.4219 214.023 68.3828 213.75 68.3516 213.484C68.3359 213.219 68.3516 212.977 68.3984 212.758C68.4453 212.523 68.5391 212.312 68.6797 212.125C68.8359 211.938 68.8906 211.734 68.8438 211.516C68.9219 211.5 68.9688 211.461 68.9844 211.398C69 211.32 69.0625 211.289 69.1719 211.305C69.2656 211.023 69.3672 210.758 69.4766 210.508C69.5859 210.258 69.6953 210.016 69.8047 209.781C69.9297 209.547 70.0469 209.312 70.1562 209.078C70.2812 208.828 70.3984 208.555 70.5078 208.258C70.2891 208.055 70.125 207.836 70.0156 207.602C69.9219 207.352 69.8516 207.109 69.8047 206.875C69.7578 206.625 69.7188 206.375 69.6875 206.125C69.6562 205.859 69.6016 205.594 69.5234 205.328C69.6797 205.094 69.8672 204.906 70.0859 204.766C70.3203 204.609 70.5703 204.484 70.8359 204.391C71.1016 204.297 71.3906 204.219 71.7031 204.156C72.0156 204.094 72.3438 204.023 72.6875 203.945C73.3125 203.742 73.8672 203.586 74.3516 203.477C74.8516 203.367 75.3359 203.281 75.8047 203.219C76.2891 203.141 76.7891 203.07 77.3047 203.008C77.8203 202.945 78.4062 202.852 79.0625 202.727C79.2031 202.867 79.3359 202.938 79.4609 202.938C79.5234 202.797 79.5938 202.758 79.6719 202.82C79.7656 202.867 79.8047 202.82 79.7891 202.68C79.9453 202.945 80.1406 203.172 80.375 203.359C80.625 203.531 80.8984 203.68 81.1953 203.805ZM93.8281 217.305C93.2812 217.055 92.8438 216.688 92.5156 216.203C92.2031 215.719 91.8906 215.18 91.5781 214.586C91.5312 214.492 91.4844 214.398 91.4375 214.305C91.3906 214.211 91.3438 214.125 91.2969 214.047L90.9688 213.438L90.7812 213.062L90.5 213.32L90.0781 213.695L89.8438 213.93C89.4375 214.305 89.0234 214.68 88.6016 215.055C88.1953 215.414 87.7578 215.742 87.2891 216.039C86.8359 216.32 86.3516 216.555 85.8359 216.742C85.3359 216.914 84.7891 217.008 84.1953 217.023L83.6797 216.766C83.3828 216.609 83.1328 216.469 82.9297 216.344C82.7266 216.219 82.4922 216.023 82.2266 215.758C82.1484 215.617 82.0781 215.484 82.0156 215.359C81.9688 215.234 81.9141 215.109 81.8516 214.984C81.6797 214.672 81.5391 214.391 81.4297 214.141C81.3203 213.891 81.2109 213.609 81.1016 213.297C81.1484 213.078 81.2188 212.711 81.3125 212.195C81.4062 211.664 81.5156 211.086 81.6406 210.461C81.7812 209.836 81.9219 209.211 82.0625 208.586C82.2188 207.945 82.375 207.391 82.5312 206.922C82.6719 206.516 82.8281 206.086 83 205.633C83.1875 205.18 83.3828 204.766 83.5859 204.391C83.8047 204 84.0391 203.672 84.2891 203.406C84.5391 203.125 84.8047 202.961 85.0859 202.914C85.1641 203.023 85.25 203.102 85.3438 203.148C85.4375 203.195 85.5234 203.234 85.6016 203.266C85.8203 203.578 86.0312 203.844 86.2344 204.062C86.4531 204.281 86.7031 204.5 86.9844 204.719C86.9062 205.109 86.7891 205.547 86.6328 206.031C86.4922 206.5 86.3359 206.977 86.1641 207.461C86.0078 207.93 85.8516 208.391 85.6953 208.844C85.5391 209.297 85.4141 209.688 85.3203 210.016C85.2266 210.281 85.1484 210.578 85.0859 210.906C84.9453 211.484 84.8125 212.273 84.6875 213.273C84.875 213.227 85.0781 213.125 85.2969 212.969C85.5156 212.812 85.7266 212.648 85.9297 212.477C86.1641 212.289 86.3984 212.078 86.6328 211.844C86.9297 211.547 87.1797 211.273 87.3828 211.023C87.5859 210.773 87.7734 210.516 87.9453 210.25C88.1328 209.984 88.3203 209.695 88.5078 209.383C88.6953 209.055 88.9219 208.672 89.1875 208.234C89.4219 207.859 89.6641 207.461 89.9141 207.039C90.1797 206.602 90.4375 206.188 90.6875 205.797C90.9531 205.391 91.2109 205.023 91.4609 204.695C91.7109 204.367 91.9375 204.109 92.1406 203.922C92.2656 204.078 92.4219 204.227 92.6094 204.367C92.8125 204.508 93.0234 204.617 93.2422 204.695C93.3359 204.836 93.4219 204.969 93.5 205.094C93.5938 205.203 93.6797 205.305 93.7578 205.398C93.8516 205.539 93.9375 205.672 94.0156 205.797C94.1094 205.922 94.1953 206.047 94.2734 206.172C94.2578 206.281 94.2344 206.422 94.2031 206.594C94.1719 206.766 94.1328 206.953 94.0859 207.156C94.0547 207.359 94.0156 207.57 93.9688 207.789C93.9219 207.992 93.875 208.188 93.8281 208.375C93.7031 208.969 93.6094 209.414 93.5469 209.711C93.4844 210.008 93.4375 210.242 93.4062 210.414C93.3906 210.586 93.375 210.734 93.3594 210.859C93.3594 210.969 93.3594 211.125 93.3594 211.328C93.3438 211.484 93.3516 211.641 93.3828 211.797C93.3984 211.938 93.4297 212.086 93.4766 212.242C93.5234 212.398 93.5859 212.539 93.6641 212.664L94.6016 211.938C94.8672 211.734 95.1172 211.461 95.3516 211.117C95.6016 210.758 95.8359 210.352 96.0547 209.898C96.2891 209.43 96.5156 208.922 96.7344 208.375C96.9531 207.828 97.1719 207.273 97.3906 206.711C97.7188 205.883 98.0469 205.078 98.375 204.297C98.7188 203.516 99.0469 202.914 99.3594 202.492C99.7031 202.711 100 202.938 100.25 203.172C100.516 203.391 100.742 203.633 100.93 203.898C101.117 204.164 101.266 204.469 101.375 204.812C101.5 205.156 101.586 205.562 101.633 206.031C101.352 206.578 101.078 207.141 100.812 207.719C100.562 208.297 100.32 208.875 100.086 209.453C99.7734 210.203 99.4453 210.953 99.1016 211.703C98.7734 212.453 98.4062 213.172 98 213.859C97.5938 214.531 97.1406 215.156 96.6406 215.734C96.1406 216.297 95.5625 216.773 94.9062 217.164C94.7344 217.117 94.5859 217.094 94.4609 217.094C94.2109 217.094 94 217.164 93.8281 217.305Z" fill="black"/>
<path d="M19.1641 144.492C18.9297 144.492 18.5664 144.457 18.0742 144.387C17.6992 143.988 17.3594 143.449 17.0547 142.77C16.7734 142.066 16.5508 141.328 16.3867 140.555C16.2461 139.758 16.1758 138.973 16.1758 138.199C16.1992 137.402 16.3398 136.699 16.5977 136.09C16.5977 136.066 16.7031 135.785 16.9141 135.246C17.1484 134.707 17.4414 134.027 17.793 133.207C18.1445 132.363 18.543 131.438 18.9883 130.43C19.4336 129.398 19.8789 128.391 20.3242 127.406C20.7695 126.422 21.1914 125.531 21.5898 124.734C22.0117 123.914 22.375 123.281 22.6797 122.836C22.8906 122.508 23.0781 122.191 23.2422 121.887C23.4297 121.582 23.6055 121.301 23.7695 121.043C24.0273 120.621 24.2617 120.234 24.4727 119.883C24.707 119.508 24.9531 119.18 25.2109 118.898C25.4922 118.594 25.7969 118.336 26.125 118.125C26.4531 117.891 26.8516 117.691 27.3203 117.527C27.6016 117.645 27.8477 117.773 28.0586 117.914C28.2695 118.031 28.457 118.184 28.6211 118.371L28.7266 118.863C28.7734 119.027 28.8438 119.145 28.9375 119.215C29.0547 119.262 29.1484 119.285 29.2188 119.285C29.5234 119.355 29.7812 119.438 29.9922 119.531C30.2266 119.602 30.4727 119.648 30.7305 119.672C30.8242 119.812 30.9062 119.953 30.9766 120.094C31.0703 120.234 31.1641 120.363 31.2578 120.48C31.7266 121.16 32.1133 121.816 32.418 122.449C32.7227 123.082 32.7227 123.773 32.418 124.523L32.4531 124.91C32.5703 125.074 32.6289 125.227 32.6289 125.367C32.6289 125.508 32.6055 125.707 32.5586 125.965C32.5352 126.152 32.5117 126.363 32.4883 126.598C32.4883 126.809 32.5234 127.043 32.5938 127.301L32.8398 127.582C33.2148 127.77 33.5781 127.863 33.9297 127.863C34.3984 127.863 34.8203 127.758 35.1953 127.547C35.5703 127.336 35.9219 127.125 36.25 126.914C36.5078 126.727 36.7422 126.574 36.9531 126.457C37.1875 126.34 37.4102 126.258 37.6211 126.211C38.1133 125.742 38.5586 125.332 38.957 124.98C39.3789 124.605 39.8125 124.23 40.2578 123.855C41.1016 123.176 41.9219 122.449 42.7188 121.676C43.5156 120.879 44.1484 119.895 44.6172 118.723C44.875 118.559 45.168 118.477 45.4961 118.477C45.8242 118.477 46.1523 118.547 46.4805 118.688C46.8086 118.805 47.1367 118.945 47.4648 119.109C47.5352 119.156 47.5938 119.191 47.6406 119.215C47.7109 119.238 47.7812 119.273 47.8516 119.32C47.8516 119.578 47.957 119.812 48.168 120.023C48.2852 120.117 48.3672 120.176 48.4141 120.199C48.4609 120.223 48.5078 120.246 48.5547 120.27C48.7422 120.387 48.8945 120.492 49.0117 120.586C49.1523 120.68 49.2578 120.809 49.3281 120.973C49.5391 121.605 49.8906 122.098 50.3828 122.449C50.3359 122.707 50.3477 122.965 50.418 123.223C50.4883 123.457 50.5703 123.691 50.6641 123.926C50.7109 124.02 50.7461 124.113 50.7695 124.207C50.793 124.277 50.8281 124.371 50.875 124.488L50.1016 124.418L50.207 125.191C50.2773 125.59 50.2422 126.035 50.1016 126.527C49.9844 127.02 49.8438 127.406 49.6797 127.688C49.7266 128.391 49.75 128.953 49.75 129.375C49.75 129.773 49.7266 130.148 49.6797 130.5C49.6328 130.852 49.5508 131.191 49.4336 131.52C49.3398 131.824 49.2109 132.152 49.0469 132.504C49.1406 134.285 48.9297 135.914 48.4141 137.391C47.9219 138.867 47.3828 140.25 46.7969 141.539C46.7266 141.703 46.6562 141.855 46.5859 141.996C46.5156 142.137 46.457 142.277 46.4102 142.418C46.1523 142.488 45.918 142.57 45.707 142.664C45.4961 142.758 45.2969 142.863 45.1094 142.98C44.8516 143.145 44.5938 143.285 44.3359 143.402C44.0781 143.496 43.8086 143.543 43.5273 143.543C42.4023 142.723 41.8164 141.305 41.7695 139.289C41.7461 137.273 42.1797 134.707 43.0703 131.59C43.2344 131.473 43.3047 131.297 43.2812 131.062V130.676L42.9297 130.641C42.8125 130.641 42.707 130.652 42.6133 130.676C42.5195 130.699 42.4492 130.805 42.4023 130.992C41.6523 131.531 40.832 132.094 39.9414 132.68C39.0742 133.242 38.1719 133.77 37.2344 134.262C36.2969 134.73 35.3359 135.129 34.3516 135.457C33.3906 135.762 32.4531 135.914 31.5391 135.914C29.1953 135.914 27.4258 134.719 26.2305 132.328L25.9141 131.695L25.5625 132.258C25.4922 132.375 25.3633 132.609 25.1758 132.961C25.0117 133.289 24.8359 133.676 24.6484 134.121C24.4844 134.566 24.332 135.023 24.1914 135.492C24.0742 135.961 24.0391 136.371 24.0859 136.723C23.8047 136.98 23.5234 137.273 23.2422 137.602C22.9844 137.93 22.7969 138.305 22.6797 138.727C22.6328 138.844 22.6211 138.961 22.6445 139.078C22.668 139.172 22.7031 139.277 22.75 139.395C22.7266 139.559 22.6797 139.676 22.6094 139.746C22.5391 139.816 22.457 139.887 22.3633 139.957C22.2461 140.074 22.1289 140.203 22.0117 140.344C21.8945 140.461 21.7891 140.602 21.6953 140.766C21.6484 140.906 21.6133 141.059 21.5898 141.223C21.5664 141.363 21.543 141.492 21.5195 141.609C21.5195 141.867 21.4844 142.043 21.4141 142.137C21.1797 142.629 20.9688 143.039 20.7812 143.367C20.6172 143.672 20.4531 143.906 20.2891 144.07C20.125 144.234 19.9492 144.34 19.7617 144.387C19.5977 144.457 19.3984 144.492 19.1641 144.492ZM69.6484 141.047C69.5078 141.445 69.2969 141.855 69.0156 142.277C68.7578 142.676 68.4414 143.039 68.0664 143.367C67.7148 143.672 67.3164 143.93 66.8711 144.141C66.4258 144.352 65.957 144.469 65.4648 144.492C65.1602 144.422 64.9492 144.34 64.832 144.246C64.7383 144.176 64.6328 144.105 64.5156 144.035C64.4453 143.988 64.375 143.953 64.3047 143.93C64.2578 143.883 64.2109 143.848 64.1641 143.824L63.7422 143.648L63.8828 143.191C63.9297 143.004 63.918 142.863 63.8477 142.77C63.7773 142.652 63.6367 142.5 63.4258 142.312C63.3555 142.242 63.2852 142.172 63.2148 142.102C63.1445 142.031 63.0859 141.961 63.0391 141.891L62.4414 141.223L63.3906 140.977C63.9766 140.812 64.3633 140.602 64.5508 140.344C64.7617 140.086 64.8438 139.652 64.7969 139.043C64.3281 138.949 63.9297 138.938 63.6016 139.008C63.2969 139.078 62.9805 139.16 62.6523 139.254C62.2305 139.371 61.7969 139.477 61.3516 139.57C60.9297 139.641 60.4609 139.676 59.9453 139.676C59.7578 139.676 59.582 139.676 59.418 139.676C59.2539 139.652 59.0781 139.629 58.8906 139.605L58.5391 139.535C58.4922 139.277 58.4453 139.137 58.3984 139.113C58.3516 139.066 58.3047 139.02 58.2578 138.973C58.1406 138.855 58.0117 138.703 57.8711 138.516C57.7539 138.305 57.7305 138.047 57.8008 137.742C57.6836 137.531 57.6133 137.32 57.5898 137.109C57.4492 137.391 57.3438 137.684 57.2734 137.988L57.1328 138.34L56.7812 138.41C56.7344 138.434 56.6992 138.492 56.6758 138.586C56.6523 138.656 56.6406 138.715 56.6406 138.762L56.4648 139.359C56.418 139.406 56.3711 139.453 56.3242 139.5C56.2773 139.523 56.2305 139.559 56.1836 139.605C56.1367 139.816 56.0781 140.027 56.0078 140.238C55.9375 140.449 55.8672 140.648 55.7969 140.836C55.6797 141.141 55.5742 141.445 55.4805 141.75C55.4102 142.031 55.3867 142.312 55.4102 142.594L55.2695 142.98C55.1523 143.121 55.0234 143.238 54.8828 143.332C54.7422 143.402 54.6016 143.473 54.4609 143.543C54.4141 143.59 54.3438 143.637 54.25 143.684C54.1797 143.707 54.1211 143.73 54.0742 143.754L53.9688 144.141L53.5469 144.211C53.2891 144.258 53.1016 144.293 52.9844 144.316C52.8906 144.34 52.7734 144.352 52.6328 144.352L52.2812 144.316C52.0234 144.105 51.8242 143.941 51.6836 143.824C51.543 143.684 51.3789 143.555 51.1914 143.438C50.9805 143.156 50.8633 142.945 50.8398 142.805C50.8164 142.664 50.793 142.535 50.7695 142.418C50.7227 142.277 50.6992 142.16 50.6992 142.066C50.6758 141.973 50.6406 141.902 50.5938 141.855L50.1367 141.434L50.5234 141.117L50.5586 140.52C51.0273 139.324 51.5195 138.176 52.0352 137.074C52.5742 135.973 53.125 134.848 53.6875 133.699C53.875 133.324 54.0508 132.949 54.2148 132.574C54.4023 132.199 54.5898 131.824 54.7773 131.449C54.7539 131.379 54.7422 131.297 54.7422 131.203C54.7422 131.109 54.7656 131.004 54.8125 130.887C55.0703 130.488 55.2812 130.137 55.4453 129.832C55.6094 129.504 55.7734 129.176 55.9375 128.848C56.125 128.449 56.3125 128.062 56.5 127.688C56.7109 127.312 56.9688 126.926 57.2734 126.527L57.8359 126.281C57.9062 126.258 57.9883 126.234 58.082 126.211C58.1758 126.164 58.2812 126.141 58.3984 126.141L58.9258 126.211C59.582 125.906 60.1562 125.484 60.6484 124.945C61.1406 124.383 61.6445 123.715 62.1602 122.941L62.5117 122.449L62.9688 122.73C63.0859 122.801 63.25 122.871 63.4609 122.941C63.6719 122.988 63.8945 123.047 64.1289 123.117C64.5508 123.211 64.9492 123.316 65.3242 123.434C65.6992 123.551 66.0039 123.727 66.2383 123.961C66.3789 124.336 66.4609 124.617 66.4844 124.805C66.5078 124.992 66.543 125.18 66.5898 125.367C66.6602 125.766 66.7188 126.164 66.7656 126.562C66.8359 126.961 66.8828 127.406 66.9062 127.898C67.0234 128.297 67.1172 128.695 67.1875 129.094C67.2812 129.469 67.3633 129.855 67.4336 130.254C67.5508 130.816 67.668 131.367 67.7852 131.906C67.9023 132.422 68.0547 132.914 68.2422 133.383C68.4297 133.383 68.5469 133.395 68.5938 133.418C68.7109 133.371 68.8281 133.336 68.9453 133.312C69.0859 133.289 69.2383 133.266 69.4023 133.242L69.7891 133.207L69.9297 133.559C69.9531 133.676 70.0703 133.793 70.2812 133.91C70.5859 133.934 70.8086 134.004 70.9492 134.121C71.0898 134.215 71.2188 134.32 71.3359 134.438C71.4297 134.531 71.5234 134.602 71.6172 134.648L72.1445 134.859L71.8633 135.387C71.6289 135.809 71.2891 136.219 70.8438 136.617C70.4219 136.992 69.9414 137.309 69.4023 137.566C69.4258 137.707 69.4375 137.848 69.4375 137.988C69.4609 138.105 69.4961 138.234 69.543 138.375C69.6133 138.773 69.6719 139.184 69.7188 139.605C69.7656 140.027 69.7656 140.461 69.7188 140.906L69.6484 141.047ZM59.4883 134.965C60.1914 134.918 60.8242 134.871 61.3867 134.824C61.9727 134.754 62.6172 134.648 63.3203 134.508C63.1562 133.805 62.9805 133.078 62.793 132.328C62.6055 131.555 62.4062 130.793 62.1953 130.043L61.9844 130.395C61.5156 130.887 61.0586 131.438 60.6133 132.047C60.1914 132.656 59.8281 133.23 59.5234 133.77C59.3828 133.98 59.2422 134.191 59.1016 134.402C58.9609 134.613 58.832 134.824 58.7148 135.035C58.8555 135.012 58.9844 135 59.1016 135C59.2422 135 59.3711 134.988 59.4883 134.965ZM77.6289 140.344C77.3711 141.281 77.1367 141.996 76.9258 142.488C76.7383 142.957 76.4453 143.449 76.0469 143.965C75.7422 143.918 75.5312 143.953 75.4141 144.07C75.2969 144.188 75.168 144.293 75.0273 144.387C74.8164 144.434 74.6641 144.434 74.5703 144.387C74.4766 144.34 74.3945 144.281 74.3242 144.211C74.2539 144.164 74.1602 144.105 74.043 144.035C73.9492 143.988 73.7969 143.965 73.5859 143.965C73.5391 143.777 73.4805 143.602 73.4102 143.438C73.3633 143.273 73.2109 143.215 72.9531 143.262C73 143.074 73.0117 142.922 72.9883 142.805C72.9648 142.664 72.9297 142.547 72.8828 142.453C72.8594 142.336 72.8359 142.23 72.8125 142.137C72.7891 142.02 72.8008 141.879 72.8477 141.715C72.7305 141.715 72.6367 141.633 72.5664 141.469C72.4961 141.305 72.4141 141.141 72.3203 140.977C72.3906 140.555 72.4609 140.156 72.5312 139.781C72.6016 139.406 72.6836 139.055 72.7773 138.727C72.8945 138.398 72.9883 138.07 73.0586 137.742C73.1289 137.414 73.0938 137.074 72.9531 136.723C73.0469 136.793 73.1172 136.781 73.1641 136.688C73.2109 136.57 73.2461 136.43 73.2695 136.266C73.293 136.078 73.3047 135.902 73.3047 135.738C73.3047 135.551 73.293 135.398 73.2695 135.281C73.5039 134.672 73.6914 134.051 73.832 133.418C73.9961 132.762 74.1367 132.117 74.2539 131.484C74.3945 130.852 74.5352 130.23 74.6758 129.621C74.8164 129.012 75.0039 128.449 75.2383 127.934C75.4961 127.887 75.7773 127.922 76.082 128.039C76.4102 128.133 76.6094 128.262 76.6797 128.426C77.2891 127.957 77.8281 127.395 78.2969 126.738C78.7656 126.059 79.2461 125.402 79.7383 124.77C80.2305 124.137 80.7695 123.574 81.3555 123.082C81.9648 122.59 82.7266 122.297 83.6406 122.203C84.1094 122.555 84.625 122.918 85.1875 123.293C85.7734 123.645 86.2539 124.113 86.6289 124.699C86.8164 124.793 86.9688 124.898 87.0859 125.016C87.2266 125.109 87.3906 125.215 87.5781 125.332V125.754C87.8594 126.012 88.082 126.316 88.2461 126.668C88.4336 126.996 88.5977 127.359 88.7383 127.758C88.8789 128.133 89.0195 128.52 89.1602 128.918C89.3008 129.293 89.4648 129.656 89.6523 130.008C89.6055 130.125 89.582 130.23 89.582 130.324C89.582 130.395 89.5938 130.477 89.6172 130.57C89.6641 130.664 89.6992 130.758 89.7227 130.852C89.7461 130.945 89.7461 131.074 89.7227 131.238C89.6523 132.27 89.3125 133.102 88.7031 133.734C88.1172 134.367 87.4023 134.895 86.5586 135.316C85.7148 135.715 84.8125 136.055 83.8516 136.336C82.8906 136.617 82.0234 136.922 81.25 137.25C81.25 137.344 81.2852 137.391 81.3555 137.391C81.4492 137.391 81.4844 137.449 81.4609 137.566C82.0234 137.918 82.4688 138.199 82.7969 138.41C83.125 138.621 83.4297 138.797 83.7109 138.938C84.0156 139.078 84.332 139.207 84.6602 139.324C85.0117 139.418 85.4922 139.535 86.1016 139.676C86.7109 139.816 87.1797 139.934 87.5078 140.027C87.8594 140.098 88.1758 140.168 88.457 140.238C88.7383 140.285 89.0195 140.332 89.3008 140.379C89.6055 140.402 90.0273 140.438 90.5664 140.484C90.7773 140.695 90.9531 140.953 91.0938 141.258C91.2578 141.539 91.3633 141.832 91.4102 142.137C91.457 142.418 91.4688 142.699 91.4453 142.98C91.4219 143.238 91.3398 143.449 91.1992 143.613C91.2227 143.684 91.2695 143.719 91.3398 143.719C91.4336 143.695 91.5273 143.695 91.6211 143.719C91.4805 143.812 91.3633 143.93 91.2695 144.07C91.1758 144.211 91.082 144.352 90.9883 144.492C90.8945 144.633 90.7891 144.75 90.6719 144.844C90.5547 144.961 90.3906 145.031 90.1797 145.055C89.4531 145.336 88.5391 145.348 87.4375 145.09C86.3359 144.855 84.9414 144.41 83.2539 143.754C82.4102 143.426 81.7188 143.145 81.1797 142.91C80.6641 142.652 80.207 142.406 79.8086 142.172C79.4336 141.914 79.082 141.645 78.7539 141.363C78.4492 141.082 78.0742 140.742 77.6289 140.344ZM82.6562 128.285C82.3984 128.66 82.1055 129 81.7773 129.305C81.4727 129.609 81.168 129.926 80.8633 130.254C80.582 130.559 80.3242 130.91 80.0898 131.309C79.8555 131.684 79.6914 132.129 79.5977 132.645C80.418 132.551 81.2734 132.328 82.1641 131.977C83.0547 131.602 83.8984 131.25 84.6953 130.922C84.6016 130.195 84.3438 129.609 83.9219 129.164C83.5234 128.719 83.1016 128.426 82.6562 128.285ZM112.645 142.734C111.52 142.781 110.523 142.758 109.656 142.664C108.812 142.57 107.98 142.348 107.16 141.996C107.113 141.973 107.066 141.914 107.02 141.82C106.973 141.727 106.926 141.656 106.879 141.609C106.738 141.539 106.562 141.516 106.352 141.539C106.164 141.539 106 141.516 105.859 141.469C105.672 141.375 105.379 141.199 104.98 140.941C104.582 140.66 104.219 140.402 103.891 140.168C103.469 139.84 103.07 139.512 102.695 139.184C102.32 138.855 101.992 138.504 101.711 138.129C101.641 138.035 101.547 137.988 101.43 137.988C101.312 137.965 101.207 137.93 101.113 137.883C100.434 138.305 99.8594 138.832 99.3906 139.465C98.9219 140.098 98.4766 140.742 98.0547 141.398C97.6328 142.055 97.1875 142.676 96.7188 143.262C96.25 143.848 95.6523 144.293 94.9258 144.598C94.7148 144.598 94.5273 144.562 94.3633 144.492C94.1992 144.422 94.0469 144.328 93.9062 144.211C93.7656 144.117 93.625 144.023 93.4844 143.93C93.3438 143.836 93.1914 143.766 93.0273 143.719C93.0273 143.438 92.9688 143.18 92.8516 142.945C92.7578 142.711 92.6523 142.488 92.5352 142.277C92.4414 142.066 92.3711 141.867 92.3242 141.68C92.2773 141.469 92.3242 141.27 92.4648 141.082C92.3242 140.941 92.1133 140.789 91.832 140.625C91.9727 140.484 92.0312 140.355 92.0078 140.238C92.0078 140.121 91.9844 140.004 91.9375 139.887C91.8906 139.77 91.8438 139.641 91.7969 139.5C91.7734 139.359 91.8086 139.219 91.9023 139.078C92.0195 139.078 92.1602 139.055 92.3242 139.008C92.1836 138.82 92.1133 138.715 92.1133 138.691C92.1367 138.645 92.1133 138.586 92.043 138.516C91.9961 138.375 92.0195 138.293 92.1133 138.27C92.207 138.223 92.3008 138.176 92.3945 138.129C92.4883 136.98 92.6875 135.914 92.9922 134.93C93.2969 133.945 93.6367 132.996 94.0117 132.082C94.3867 131.168 94.75 130.242 95.1016 129.305C95.4766 128.367 95.7812 127.359 96.0156 126.281C96.2734 126.023 96.4727 125.719 96.6133 125.367C96.7773 125.016 96.9414 124.664 97.1055 124.312C97.293 123.961 97.4922 123.621 97.7031 123.293C97.9375 122.941 98.2539 122.66 98.6523 122.449C98.9805 122.473 99.2734 122.566 99.5312 122.73C99.7891 122.871 100.105 122.93 100.48 122.906C100.551 123.023 100.609 123.141 100.656 123.258C100.727 123.375 100.809 123.492 100.902 123.609L101.43 123.504C101.688 123.715 101.91 123.984 102.098 124.312C102.309 124.617 102.449 124.945 102.52 125.297C102.59 125.648 102.578 125.988 102.484 126.316C102.391 126.621 102.168 126.867 101.816 127.055C101.84 127.172 101.84 127.266 101.816 127.336C101.816 127.383 101.805 127.43 101.781 127.477C101.758 127.523 101.746 127.57 101.746 127.617C101.746 127.664 101.781 127.734 101.852 127.828C101.383 128.18 101.031 128.672 100.797 129.305C100.562 129.938 100.434 130.5 100.41 130.992C100.691 130.711 100.996 130.441 101.324 130.184C101.676 129.902 102.027 129.633 102.379 129.375C102.754 129.117 103.105 128.871 103.434 128.637C103.785 128.402 104.102 128.168 104.383 127.934C105.156 127.23 105.895 126.668 106.598 126.246C107.324 125.801 108.086 125.309 108.883 124.77C109.07 124.723 109.211 124.723 109.305 124.77C109.422 124.793 109.539 124.828 109.656 124.875C109.656 124.734 109.609 124.652 109.516 124.629C109.445 124.605 109.422 124.512 109.445 124.348C109.797 124.254 110.102 124.148 110.359 124.031C110.617 123.891 110.898 123.762 111.203 123.645C111.414 123.855 111.613 124.078 111.801 124.312C111.988 124.523 112.246 124.652 112.574 124.699C112.691 124.957 112.832 125.156 112.996 125.297C113.16 125.414 113.324 125.531 113.488 125.648C113.652 125.766 113.793 125.906 113.91 126.07C114.051 126.234 114.133 126.492 114.156 126.844C114.062 127.008 113.957 127.184 113.84 127.371C113.746 127.559 113.652 127.781 113.559 128.039C113.09 128.461 112.609 128.836 112.117 129.164C111.648 129.492 111.168 129.809 110.676 130.113C110.184 130.418 109.68 130.723 109.164 131.027C108.648 131.332 108.121 131.695 107.582 132.117C107.465 132.281 107.312 132.434 107.125 132.574C106.961 132.691 106.785 132.82 106.598 132.961C106.41 133.078 106.234 133.207 106.07 133.348C105.906 133.488 105.777 133.652 105.684 133.84C105.613 133.863 105.543 133.875 105.473 133.875C105.402 133.875 105.332 133.887 105.262 133.91C105.191 134.074 105.074 134.203 104.91 134.297C104.77 134.391 104.676 134.52 104.629 134.684C104.98 135.434 105.438 136.008 106 136.406C106.562 136.805 107.195 137.098 107.898 137.285C108.602 137.449 109.363 137.543 110.184 137.566C111.004 137.566 111.859 137.566 112.75 137.566C112.844 137.543 112.879 137.496 112.855 137.426C112.855 137.332 112.914 137.297 113.031 137.32C113.594 137.508 114.027 137.777 114.332 138.129C114.637 138.457 115 138.785 115.422 139.113C115.375 140.004 115.105 140.742 114.613 141.328C114.121 141.914 113.465 142.383 112.645 142.734ZM124.387 119.812C124.387 120.023 124.352 120.281 124.281 120.586C124.234 120.891 124.188 121.195 124.141 121.5C124.094 121.805 124.082 122.086 124.105 122.344C124.129 122.578 124.234 122.73 124.422 122.801C124 124.043 123.707 125.086 123.543 125.93C123.402 126.773 123.273 127.582 123.156 128.355C123.062 129.105 122.934 129.902 122.77 130.746C122.605 131.59 122.312 132.621 121.891 133.84C121.633 134.59 121.316 135.117 120.941 135.422C120.566 135.703 120.168 135.844 119.746 135.844C119.324 135.844 118.891 135.727 118.445 135.492C118 135.258 117.59 135 117.215 134.719C117.145 134.273 117.133 133.734 117.18 133.102C117.25 132.445 117.332 131.766 117.426 131.062C117.52 130.359 117.613 129.691 117.707 129.059C117.801 128.402 117.871 127.852 117.918 127.406C118.152 127.148 118.316 126.938 118.41 126.773C118.504 126.609 118.562 126.434 118.586 126.246C118.633 126.059 118.668 125.824 118.691 125.543C118.715 125.262 118.773 124.863 118.867 124.348C118.914 124.09 118.891 123.867 118.797 123.68C118.727 123.469 118.715 123.27 118.762 123.082C118.809 122.988 118.879 122.918 118.973 122.871C119.09 122.824 119.16 122.742 119.184 122.625C119.277 122.32 119.301 122.086 119.254 121.922C119.207 121.734 119.242 121.512 119.359 121.254C119.477 121.066 119.617 120.773 119.781 120.375C119.969 119.953 120.039 119.52 119.992 119.074C120.203 118.91 120.402 118.723 120.59 118.512C120.777 118.301 120.965 118.113 121.152 117.949C121.363 117.762 121.586 117.609 121.82 117.492C122.078 117.375 122.383 117.316 122.734 117.316C122.922 117.574 123.062 117.82 123.156 118.055C123.25 118.289 123.332 118.512 123.402 118.723C123.496 118.934 123.613 119.133 123.754 119.32C123.895 119.508 124.105 119.672 124.387 119.812ZM120.906 139.816C120.953 140.004 120.988 140.18 121.012 140.344C121.035 140.508 121.059 140.684 121.082 140.871C120.941 141.363 120.789 141.809 120.625 142.207C120.555 142.371 120.508 142.477 120.484 142.523C120.461 142.57 120.449 142.605 120.449 142.629C120.449 142.652 120.461 142.688 120.484 142.734C120.508 142.758 120.52 142.852 120.52 143.016L120.344 143.438C120.227 143.602 120.086 143.73 119.922 143.824C119.781 143.918 119.629 144 119.465 144.07C119.395 144.117 119.312 144.152 119.219 144.176C119.148 144.223 119.09 144.27 119.043 144.316L118.938 144.738L118.445 144.809C118.07 144.902 117.73 144.949 117.426 144.949H117.039C116.758 144.691 116.535 144.492 116.371 144.352C116.207 144.211 116.02 144.082 115.809 143.965C115.551 143.52 115.398 143.133 115.352 142.805C115.305 142.5 115.246 142.301 115.176 142.207L114.684 141.715L115.105 141.398L114.684 140.73C114.965 140.52 115.176 140.367 115.316 140.273C115.457 140.18 115.574 140.086 115.668 139.992C115.785 139.875 115.902 139.734 116.02 139.57C116.137 139.406 116.324 139.137 116.582 138.762L116.898 138.305L117.32 138.551C117.438 138.621 117.648 138.691 117.953 138.762C118.281 138.809 118.562 138.855 118.797 138.902C119.172 139.02 119.535 139.113 119.887 139.184C120.262 139.23 120.555 139.348 120.766 139.535L120.906 139.816Z" fill="black"/>
<path fill-rule="evenodd" clip-rule="evenodd" d="M53.4911 13.2112L53.4437 46.9616L53.4714 46.9618C53.7543 50.6397 61.5639 53.5983 71.1854 53.612C80.805 53.6253 88.6232 50.6877 88.9166 47.0115L88.9433 47.0115L88.9907 13.2612L53.4911 13.2112ZM71.193 48.0892C67.1435 48.0831 63.8651 44.7954 63.8702 40.7457C63.8763 36.6963 67.1643 33.4169 71.2137 33.423C75.2633 33.4281 78.5415 36.7168 78.5364 40.7664C78.5304 44.8159 75.2426 48.0943 71.193 48.0892Z" fill="#B0E4FF"/>
</g>
<defs>
<filter id="filter0_d_2_17" x="0.920986" y="11.1855" width="140.261" height="241.137" filterUnits="userSpaceOnUse" color-interpolation-filters="sRGB">
<feFlood flood-opacity="0" result="BackgroundImageFix"/>
<feColorMatrix in="SourceAlpha" type="matrix" values="0 0 0 0 0 0 0 0 0 0 0 0 0 0 0 0 0 0 127 0" result="hardAlpha"/>
<feOffset dy="2"/>
<feGaussianBlur stdDeviation="2"/>
<feColorMatrix type="matrix" values="0 0 0 0 0 0 0 0 0 0 0 0 0 0 0 0 0 0 0.35 0"/>
<feBlend mode="normal" in2="BackgroundImageFix" result="effect1_dropShadow_2_17"/>
<feBlend mode="normal" in="SourceGraphic" in2="effect1_dropShadow_2_17" result="shape"/>
</filter>
<clipPath id="clip0_2_17">
<rect width="141" height="253" fill="white"/>
</clipPath>
</defs>
</svg>
